<?xml version="1.0" encoding="utf-8" standalone="no"?>
<!DOCTYPE svg PUBLIC "-//W3C//DTD SVG 1.1//EN"
  "http://www.w3.org/Graphics/SVG/1.1/DTD/svg11.dtd">
<svg xmlns:xlink="http://www.w3.org/1999/xlink" width="856.643017pt" height="580.592344pt" viewBox="0 0 856.643017 580.592344" xmlns="http://www.w3.org/2000/svg" version="1.1">
 <metadata>
  <rdf:RDF xmlns:dc="http://purl.org/dc/elements/1.1/" xmlns:cc="http://creativecommons.org/ns#" xmlns:rdf="http://www.w3.org/1999/02/22-rdf-syntax-ns#">
   <cc:Work>
    <dc:type rdf:resource="http://purl.org/dc/dcmitype/StillImage"/>
    <dc:date>2025-11-18T12:43:07.135664</dc:date>
    <dc:format>image/svg+xml</dc:format>
    <dc:creator>
     <cc:Agent>
      <dc:title>Matplotlib v3.10.0, https://matplotlib.org/</dc:title>
     </cc:Agent>
    </dc:creator>
   </cc:Work>
  </rdf:RDF>
 </metadata>
 <defs>
  <style type="text/css">*{stroke-linejoin: round; stroke-linecap: butt}</style>
 </defs>
 <g id="figure_1">
  <g id="patch_1">
   <path d="M 0 580.592344 
L 856.643017 580.592344 
L 856.643017 0 
L 0 0 
z
" style="fill: #ffffff"/>
  </g>
  <g id="axes_1">
   <g id="patch_2">
    <path d="M 121.880781 543.917969 
L 754.17821 543.917969 
L 754.17821 32.077969 
L 121.880781 32.077969 
z
" style="fill: #ffffff"/>
   </g>
   <g id="matplotlib.axis_1">
    <g id="xtick_1">
     <g id="line2d_1">
      <path d="M 121.880781 543.917969 
L 121.880781 32.077969 
" clip-path="url(#p9512658684)" style="fill: none; stroke: #cccccc; stroke-opacity: 0.3; stroke-width: 0.8; stroke-linecap: round"/>
     </g>
     <g id="text_1">
      <!-- 0 -->
      <g style="fill: #262626" transform="translate(119.335781 556.996719) scale(0.08 -0.08)">
       <defs>
        <path id="DejaVuSans-30" d="M 2034 4250 
Q 1547 4250 1301 3770 
Q 1056 3291 1056 2328 
Q 1056 1369 1301 889 
Q 1547 409 2034 409 
Q 2525 409 2770 889 
Q 3016 1369 3016 2328 
Q 3016 3291 2770 3770 
Q 2525 4250 2034 4250 
z
M 2034 4750 
Q 2819 4750 3233 4129 
Q 3647 3509 3647 2328 
Q 3647 1150 3233 529 
Q 2819 -91 2034 -91 
Q 1250 -91 836 529 
Q 422 1150 422 2328 
Q 422 3509 836 4129 
Q 1250 4750 2034 4750 
z
" transform="scale(0.015625)"/>
       </defs>
       <use xlink:href="#DejaVuSans-30"/>
      </g>
     </g>
    </g>
    <g id="xtick_2">
     <g id="line2d_2">
      <path d="M 229.471709 543.917969 
L 229.471709 32.077969 
" clip-path="url(#p9512658684)" style="fill: none; stroke: #cccccc; stroke-opacity: 0.3; stroke-width: 0.8; stroke-linecap: round"/>
     </g>
     <g id="text_2">
      <!-- 1 -->
      <g style="fill: #262626" transform="translate(226.926709 556.996719) scale(0.08 -0.08)">
       <defs>
        <path id="DejaVuSans-31" d="M 794 531 
L 1825 531 
L 1825 4091 
L 703 3866 
L 703 4441 
L 1819 4666 
L 2450 4666 
L 2450 531 
L 3481 531 
L 3481 0 
L 794 0 
L 794 531 
z
" transform="scale(0.015625)"/>
       </defs>
       <use xlink:href="#DejaVuSans-31"/>
      </g>
     </g>
    </g>
    <g id="xtick_3">
     <g id="line2d_3">
      <path d="M 337.062636 543.917969 
L 337.062636 32.077969 
" clip-path="url(#p9512658684)" style="fill: none; stroke: #cccccc; stroke-opacity: 0.3; stroke-width: 0.8; stroke-linecap: round"/>
     </g>
     <g id="text_3">
      <!-- 2 -->
      <g style="fill: #262626" transform="translate(334.517636 556.996719) scale(0.08 -0.08)">
       <defs>
        <path id="DejaVuSans-32" d="M 1228 531 
L 3431 531 
L 3431 0 
L 469 0 
L 469 531 
Q 828 903 1448 1529 
Q 2069 2156 2228 2338 
Q 2531 2678 2651 2914 
Q 2772 3150 2772 3378 
Q 2772 3750 2511 3984 
Q 2250 4219 1831 4219 
Q 1534 4219 1204 4116 
Q 875 4013 500 3803 
L 500 4441 
Q 881 4594 1212 4672 
Q 1544 4750 1819 4750 
Q 2544 4750 2975 4387 
Q 3406 4025 3406 3419 
Q 3406 3131 3298 2873 
Q 3191 2616 2906 2266 
Q 2828 2175 2409 1742 
Q 1991 1309 1228 531 
z
" transform="scale(0.015625)"/>
       </defs>
       <use xlink:href="#DejaVuSans-32"/>
      </g>
     </g>
    </g>
    <g id="xtick_4">
     <g id="line2d_4">
      <path d="M 444.653564 543.917969 
L 444.653564 32.077969 
" clip-path="url(#p9512658684)" style="fill: none; stroke: #cccccc; stroke-opacity: 0.3; stroke-width: 0.8; stroke-linecap: round"/>
     </g>
     <g id="text_4">
      <!-- 3 -->
      <g style="fill: #262626" transform="translate(442.108564 556.996719) scale(0.08 -0.08)">
       <defs>
        <path id="DejaVuSans-33" d="M 2597 2516 
Q 3050 2419 3304 2112 
Q 3559 1806 3559 1356 
Q 3559 666 3084 287 
Q 2609 -91 1734 -91 
Q 1441 -91 1130 -33 
Q 819 25 488 141 
L 488 750 
Q 750 597 1062 519 
Q 1375 441 1716 441 
Q 2309 441 2620 675 
Q 2931 909 2931 1356 
Q 2931 1769 2642 2001 
Q 2353 2234 1838 2234 
L 1294 2234 
L 1294 2753 
L 1863 2753 
Q 2328 2753 2575 2939 
Q 2822 3125 2822 3475 
Q 2822 3834 2567 4026 
Q 2313 4219 1838 4219 
Q 1578 4219 1281 4162 
Q 984 4106 628 3988 
L 628 4550 
Q 988 4650 1302 4700 
Q 1616 4750 1894 4750 
Q 2613 4750 3031 4423 
Q 3450 4097 3450 3541 
Q 3450 3153 3228 2886 
Q 3006 2619 2597 2516 
z
" transform="scale(0.015625)"/>
       </defs>
       <use xlink:href="#DejaVuSans-33"/>
      </g>
     </g>
    </g>
    <g id="xtick_5">
     <g id="line2d_5">
      <path d="M 552.244491 543.917969 
L 552.244491 32.077969 
" clip-path="url(#p9512658684)" style="fill: none; stroke: #cccccc; stroke-opacity: 0.3; stroke-width: 0.8; stroke-linecap: round"/>
     </g>
     <g id="text_5">
      <!-- 4 -->
      <g style="fill: #262626" transform="translate(549.699491 556.996719) scale(0.08 -0.08)">
       <defs>
        <path id="DejaVuSans-34" d="M 2419 4116 
L 825 1625 
L 2419 1625 
L 2419 4116 
z
M 2253 4666 
L 3047 4666 
L 3047 1625 
L 3713 1625 
L 3713 1100 
L 3047 1100 
L 3047 0 
L 2419 0 
L 2419 1100 
L 313 1100 
L 313 1709 
L 2253 4666 
z
" transform="scale(0.015625)"/>
       </defs>
       <use xlink:href="#DejaVuSans-34"/>
      </g>
     </g>
    </g>
    <g id="xtick_6">
     <g id="line2d_6">
      <path d="M 659.835419 543.917969 
L 659.835419 32.077969 
" clip-path="url(#p9512658684)" style="fill: none; stroke: #cccccc; stroke-opacity: 0.3; stroke-width: 0.8; stroke-linecap: round"/>
     </g>
     <g id="text_6">
      <!-- 5 -->
      <g style="fill: #262626" transform="translate(657.290419 556.996719) scale(0.08 -0.08)">
       <defs>
        <path id="DejaVuSans-35" d="M 691 4666 
L 3169 4666 
L 3169 4134 
L 1269 4134 
L 1269 2991 
Q 1406 3038 1543 3061 
Q 1681 3084 1819 3084 
Q 2600 3084 3056 2656 
Q 3513 2228 3513 1497 
Q 3513 744 3044 326 
Q 2575 -91 1722 -91 
Q 1428 -91 1123 -41 
Q 819 9 494 109 
L 494 744 
Q 775 591 1075 516 
Q 1375 441 1709 441 
Q 2250 441 2565 725 
Q 2881 1009 2881 1497 
Q 2881 1984 2565 2268 
Q 2250 2553 1709 2553 
Q 1456 2553 1204 2497 
Q 953 2441 691 2322 
L 691 4666 
z
" transform="scale(0.015625)"/>
       </defs>
       <use xlink:href="#DejaVuSans-35"/>
      </g>
     </g>
    </g>
    <g id="text_7">
     <!-- Missing Data (%) -->
     <g style="fill: #262626" transform="translate(385.400511 571.01875) scale(0.11 -0.11)">
      <defs>
       <path id="DejaVuSans-Bold-4d" d="M 588 4666 
L 2119 4666 
L 3181 2169 
L 4250 4666 
L 5778 4666 
L 5778 0 
L 4641 0 
L 4641 3413 
L 3566 897 
L 2803 897 
L 1728 3413 
L 1728 0 
L 588 0 
L 588 4666 
z
" transform="scale(0.015625)"/>
       <path id="DejaVuSans-Bold-69" d="M 538 3500 
L 1656 3500 
L 1656 0 
L 538 0 
L 538 3500 
z
M 538 4863 
L 1656 4863 
L 1656 3950 
L 538 3950 
L 538 4863 
z
" transform="scale(0.015625)"/>
       <path id="DejaVuSans-Bold-73" d="M 3272 3391 
L 3272 2541 
Q 2913 2691 2578 2766 
Q 2244 2841 1947 2841 
Q 1628 2841 1473 2761 
Q 1319 2681 1319 2516 
Q 1319 2381 1436 2309 
Q 1553 2238 1856 2203 
L 2053 2175 
Q 2913 2066 3209 1816 
Q 3506 1566 3506 1031 
Q 3506 472 3093 190 
Q 2681 -91 1863 -91 
Q 1516 -91 1145 -36 
Q 775 19 384 128 
L 384 978 
Q 719 816 1070 734 
Q 1422 653 1784 653 
Q 2113 653 2278 743 
Q 2444 834 2444 1013 
Q 2444 1163 2330 1236 
Q 2216 1309 1875 1350 
L 1678 1375 
Q 931 1469 631 1722 
Q 331 1975 331 2491 
Q 331 3047 712 3315 
Q 1094 3584 1881 3584 
Q 2191 3584 2531 3537 
Q 2872 3491 3272 3391 
z
" transform="scale(0.015625)"/>
       <path id="DejaVuSans-Bold-6e" d="M 4056 2131 
L 4056 0 
L 2931 0 
L 2931 347 
L 2931 1631 
Q 2931 2084 2911 2256 
Q 2891 2428 2841 2509 
Q 2775 2619 2662 2680 
Q 2550 2741 2406 2741 
Q 2056 2741 1856 2470 
Q 1656 2200 1656 1722 
L 1656 0 
L 538 0 
L 538 3500 
L 1656 3500 
L 1656 2988 
Q 1909 3294 2193 3439 
Q 2478 3584 2822 3584 
Q 3428 3584 3742 3212 
Q 4056 2841 4056 2131 
z
" transform="scale(0.015625)"/>
       <path id="DejaVuSans-Bold-67" d="M 2919 594 
Q 2688 288 2409 144 
Q 2131 0 1766 0 
Q 1125 0 706 504 
Q 288 1009 288 1791 
Q 288 2575 706 3076 
Q 1125 3578 1766 3578 
Q 2131 3578 2409 3434 
Q 2688 3291 2919 2981 
L 2919 3500 
L 4044 3500 
L 4044 353 
Q 4044 -491 3511 -936 
Q 2978 -1381 1966 -1381 
Q 1638 -1381 1331 -1331 
Q 1025 -1281 716 -1178 
L 716 -306 
Q 1009 -475 1290 -558 
Q 1572 -641 1856 -641 
Q 2406 -641 2662 -400 
Q 2919 -159 2919 353 
L 2919 594 
z
M 2181 2772 
Q 1834 2772 1640 2515 
Q 1447 2259 1447 1791 
Q 1447 1309 1634 1061 
Q 1822 813 2181 813 
Q 2531 813 2725 1069 
Q 2919 1325 2919 1791 
Q 2919 2259 2725 2515 
Q 2531 2772 2181 2772 
z
" transform="scale(0.015625)"/>
       <path id="DejaVuSans-Bold-20" transform="scale(0.015625)"/>
       <path id="DejaVuSans-Bold-44" d="M 1791 3756 
L 1791 909 
L 2222 909 
Q 2959 909 3348 1275 
Q 3738 1641 3738 2338 
Q 3738 3031 3350 3393 
Q 2963 3756 2222 3756 
L 1791 3756 
z
M 588 4666 
L 1856 4666 
Q 2919 4666 3439 4514 
Q 3959 4363 4331 4000 
Q 4659 3684 4818 3271 
Q 4978 2859 4978 2338 
Q 4978 1809 4818 1395 
Q 4659 981 4331 666 
Q 3956 303 3431 151 
Q 2906 0 1856 0 
L 588 0 
L 588 4666 
z
" transform="scale(0.015625)"/>
       <path id="DejaVuSans-Bold-61" d="M 2106 1575 
Q 1756 1575 1579 1456 
Q 1403 1338 1403 1106 
Q 1403 894 1545 773 
Q 1688 653 1941 653 
Q 2256 653 2472 879 
Q 2688 1106 2688 1447 
L 2688 1575 
L 2106 1575 
z
M 3816 1997 
L 3816 0 
L 2688 0 
L 2688 519 
Q 2463 200 2181 54 
Q 1900 -91 1497 -91 
Q 953 -91 614 226 
Q 275 544 275 1050 
Q 275 1666 698 1953 
Q 1122 2241 2028 2241 
L 2688 2241 
L 2688 2328 
Q 2688 2594 2478 2717 
Q 2269 2841 1825 2841 
Q 1466 2841 1156 2769 
Q 847 2697 581 2553 
L 581 3406 
Q 941 3494 1303 3539 
Q 1666 3584 2028 3584 
Q 2975 3584 3395 3211 
Q 3816 2838 3816 1997 
z
" transform="scale(0.015625)"/>
       <path id="DejaVuSans-Bold-74" d="M 1759 4494 
L 1759 3500 
L 2913 3500 
L 2913 2700 
L 1759 2700 
L 1759 1216 
Q 1759 972 1856 886 
Q 1953 800 2241 800 
L 2816 800 
L 2816 0 
L 1856 0 
Q 1194 0 917 276 
Q 641 553 641 1216 
L 641 2700 
L 84 2700 
L 84 3500 
L 641 3500 
L 641 4494 
L 1759 4494 
z
" transform="scale(0.015625)"/>
       <path id="DejaVuSans-Bold-28" d="M 2413 -844 
L 1484 -844 
Q 1006 -72 778 623 
Q 550 1319 550 2003 
Q 550 2688 779 3389 
Q 1009 4091 1484 4856 
L 2413 4856 
Q 2013 4116 1813 3408 
Q 1613 2700 1613 2009 
Q 1613 1319 1811 609 
Q 2009 -100 2413 -844 
z
" transform="scale(0.015625)"/>
       <path id="DejaVuSans-Bold-25" d="M 4959 1925 
Q 4738 1925 4616 1733 
Q 4494 1541 4494 1184 
Q 4494 825 4614 633 
Q 4734 441 4959 441 
Q 5184 441 5303 633 
Q 5422 825 5422 1184 
Q 5422 1541 5301 1733 
Q 5181 1925 4959 1925 
z
M 4959 2450 
Q 5541 2450 5875 2112 
Q 6209 1775 6209 1184 
Q 6209 594 5875 251 
Q 5541 -91 4959 -91 
Q 4378 -91 4042 251 
Q 3706 594 3706 1184 
Q 3706 1772 4042 2111 
Q 4378 2450 4959 2450 
z
M 2094 -91 
L 1403 -91 
L 4319 4750 
L 5013 4750 
L 2094 -91 
z
M 1453 4750 
Q 2034 4750 2367 4411 
Q 2700 4072 2700 3481 
Q 2700 2891 2367 2550 
Q 2034 2209 1453 2209 
Q 872 2209 539 2550 
Q 206 2891 206 3481 
Q 206 4072 539 4411 
Q 872 4750 1453 4750 
z
M 1453 4225 
Q 1228 4225 1106 4031 
Q 984 3838 984 3481 
Q 984 3122 1106 2926 
Q 1228 2731 1453 2731 
Q 1678 2731 1798 2926 
Q 1919 3122 1919 3481 
Q 1919 3838 1797 4031 
Q 1675 4225 1453 4225 
z
" transform="scale(0.015625)"/>
       <path id="DejaVuSans-Bold-29" d="M 513 -844 
Q 913 -100 1113 609 
Q 1313 1319 1313 2009 
Q 1313 2700 1113 3408 
Q 913 4116 513 4856 
L 1441 4856 
Q 1916 4091 2145 3389 
Q 2375 2688 2375 2003 
Q 2375 1319 2147 623 
Q 1919 -72 1441 -844 
L 513 -844 
z
" transform="scale(0.015625)"/>
      </defs>
      <use xlink:href="#DejaVuSans-Bold-4d"/>
      <use xlink:href="#DejaVuSans-Bold-69" transform="translate(99.511719 0)"/>
      <use xlink:href="#DejaVuSans-Bold-73" transform="translate(133.789062 0)"/>
      <use xlink:href="#DejaVuSans-Bold-73" transform="translate(193.310547 0)"/>
      <use xlink:href="#DejaVuSans-Bold-69" transform="translate(252.832031 0)"/>
      <use xlink:href="#DejaVuSans-Bold-6e" transform="translate(287.109375 0)"/>
      <use xlink:href="#DejaVuSans-Bold-67" transform="translate(358.300781 0)"/>
      <use xlink:href="#DejaVuSans-Bold-20" transform="translate(429.882812 0)"/>
      <use xlink:href="#DejaVuSans-Bold-44" transform="translate(464.697266 0)"/>
      <use xlink:href="#DejaVuSans-Bold-61" transform="translate(547.705078 0)"/>
      <use xlink:href="#DejaVuSans-Bold-74" transform="translate(615.185547 0)"/>
      <use xlink:href="#DejaVuSans-Bold-61" transform="translate(662.988281 0)"/>
      <use xlink:href="#DejaVuSans-Bold-20" transform="translate(730.46875 0)"/>
      <use xlink:href="#DejaVuSans-Bold-28" transform="translate(765.283203 0)"/>
      <use xlink:href="#DejaVuSans-Bold-25" transform="translate(810.986328 0)"/>
      <use xlink:href="#DejaVuSans-Bold-29" transform="translate(911.181641 0)"/>
     </g>
    </g>
   </g>
   <g id="matplotlib.axis_2">
    <g id="ytick_1">
     <g id="line2d_7">
      <path d="M 121.880781 513.707602 
L 754.17821 513.707602 
" clip-path="url(#p9512658684)" style="fill: none; stroke: #cccccc; stroke-width: 0.8; stroke-linecap: round"/>
     </g>
     <g id="text_8">
      <!-- FASTING GLUCOSE -->
      <g style="fill: #262626" transform="translate(49.6725 516.367056) scale(0.07 -0.07)">
       <defs>
        <path id="DejaVuSans-46" d="M 628 4666 
L 3309 4666 
L 3309 4134 
L 1259 4134 
L 1259 2759 
L 3109 2759 
L 3109 2228 
L 1259 2228 
L 1259 0 
L 628 0 
L 628 4666 
z
" transform="scale(0.015625)"/>
        <path id="DejaVuSans-41" d="M 2188 4044 
L 1331 1722 
L 3047 1722 
L 2188 4044 
z
M 1831 4666 
L 2547 4666 
L 4325 0 
L 3669 0 
L 3244 1197 
L 1141 1197 
L 716 0 
L 50 0 
L 1831 4666 
z
" transform="scale(0.015625)"/>
        <path id="DejaVuSans-53" d="M 3425 4513 
L 3425 3897 
Q 3066 4069 2747 4153 
Q 2428 4238 2131 4238 
Q 1616 4238 1336 4038 
Q 1056 3838 1056 3469 
Q 1056 3159 1242 3001 
Q 1428 2844 1947 2747 
L 2328 2669 
Q 3034 2534 3370 2195 
Q 3706 1856 3706 1288 
Q 3706 609 3251 259 
Q 2797 -91 1919 -91 
Q 1588 -91 1214 -16 
Q 841 59 441 206 
L 441 856 
Q 825 641 1194 531 
Q 1563 422 1919 422 
Q 2459 422 2753 634 
Q 3047 847 3047 1241 
Q 3047 1584 2836 1778 
Q 2625 1972 2144 2069 
L 1759 2144 
Q 1053 2284 737 2584 
Q 422 2884 422 3419 
Q 422 4038 858 4394 
Q 1294 4750 2059 4750 
Q 2388 4750 2728 4690 
Q 3069 4631 3425 4513 
z
" transform="scale(0.015625)"/>
        <path id="DejaVuSans-54" d="M -19 4666 
L 3928 4666 
L 3928 4134 
L 2272 4134 
L 2272 0 
L 1638 0 
L 1638 4134 
L -19 4134 
L -19 4666 
z
" transform="scale(0.015625)"/>
        <path id="DejaVuSans-49" d="M 628 4666 
L 1259 4666 
L 1259 0 
L 628 0 
L 628 4666 
z
" transform="scale(0.015625)"/>
        <path id="DejaVuSans-4e" d="M 628 4666 
L 1478 4666 
L 3547 763 
L 3547 4666 
L 4159 4666 
L 4159 0 
L 3309 0 
L 1241 3903 
L 1241 0 
L 628 0 
L 628 4666 
z
" transform="scale(0.015625)"/>
        <path id="DejaVuSans-47" d="M 3809 666 
L 3809 1919 
L 2778 1919 
L 2778 2438 
L 4434 2438 
L 4434 434 
Q 4069 175 3628 42 
Q 3188 -91 2688 -91 
Q 1594 -91 976 548 
Q 359 1188 359 2328 
Q 359 3472 976 4111 
Q 1594 4750 2688 4750 
Q 3144 4750 3555 4637 
Q 3966 4525 4313 4306 
L 4313 3634 
Q 3963 3931 3569 4081 
Q 3175 4231 2741 4231 
Q 1884 4231 1454 3753 
Q 1025 3275 1025 2328 
Q 1025 1384 1454 906 
Q 1884 428 2741 428 
Q 3075 428 3337 486 
Q 3600 544 3809 666 
z
" transform="scale(0.015625)"/>
        <path id="DejaVuSans-20" transform="scale(0.015625)"/>
        <path id="DejaVuSans-4c" d="M 628 4666 
L 1259 4666 
L 1259 531 
L 3531 531 
L 3531 0 
L 628 0 
L 628 4666 
z
" transform="scale(0.015625)"/>
        <path id="DejaVuSans-55" d="M 556 4666 
L 1191 4666 
L 1191 1831 
Q 1191 1081 1462 751 
Q 1734 422 2344 422 
Q 2950 422 3222 751 
Q 3494 1081 3494 1831 
L 3494 4666 
L 4128 4666 
L 4128 1753 
Q 4128 841 3676 375 
Q 3225 -91 2344 -91 
Q 1459 -91 1007 375 
Q 556 841 556 1753 
L 556 4666 
z
" transform="scale(0.015625)"/>
        <path id="DejaVuSans-43" d="M 4122 4306 
L 4122 3641 
Q 3803 3938 3442 4084 
Q 3081 4231 2675 4231 
Q 1875 4231 1450 3742 
Q 1025 3253 1025 2328 
Q 1025 1406 1450 917 
Q 1875 428 2675 428 
Q 3081 428 3442 575 
Q 3803 722 4122 1019 
L 4122 359 
Q 3791 134 3420 21 
Q 3050 -91 2638 -91 
Q 1578 -91 968 557 
Q 359 1206 359 2328 
Q 359 3453 968 4101 
Q 1578 4750 2638 4750 
Q 3056 4750 3426 4639 
Q 3797 4528 4122 4306 
z
" transform="scale(0.015625)"/>
        <path id="DejaVuSans-4f" d="M 2522 4238 
Q 1834 4238 1429 3725 
Q 1025 3213 1025 2328 
Q 1025 1447 1429 934 
Q 1834 422 2522 422 
Q 3209 422 3611 934 
Q 4013 1447 4013 2328 
Q 4013 3213 3611 3725 
Q 3209 4238 2522 4238 
z
M 2522 4750 
Q 3503 4750 4090 4092 
Q 4678 3434 4678 2328 
Q 4678 1225 4090 567 
Q 3503 -91 2522 -91 
Q 1538 -91 948 565 
Q 359 1222 359 2328 
Q 359 3434 948 4092 
Q 1538 4750 2522 4750 
z
" transform="scale(0.015625)"/>
        <path id="DejaVuSans-45" d="M 628 4666 
L 3578 4666 
L 3578 4134 
L 1259 4134 
L 1259 2753 
L 3481 2753 
L 3481 2222 
L 1259 2222 
L 1259 531 
L 3634 531 
L 3634 0 
L 628 0 
L 628 4666 
z
" transform="scale(0.015625)"/>
       </defs>
       <use xlink:href="#DejaVuSans-46"/>
       <use xlink:href="#DejaVuSans-41" transform="translate(48.394531 0)"/>
       <use xlink:href="#DejaVuSans-53" transform="translate(116.802734 0)"/>
       <use xlink:href="#DejaVuSans-54" transform="translate(180.279297 0)"/>
       <use xlink:href="#DejaVuSans-49" transform="translate(241.363281 0)"/>
       <use xlink:href="#DejaVuSans-4e" transform="translate(270.855469 0)"/>
       <use xlink:href="#DejaVuSans-47" transform="translate(345.660156 0)"/>
       <use xlink:href="#DejaVuSans-20" transform="translate(423.150391 0)"/>
       <use xlink:href="#DejaVuSans-47" transform="translate(454.9375 0)"/>
       <use xlink:href="#DejaVuSans-4c" transform="translate(532.427734 0)"/>
       <use xlink:href="#DejaVuSans-55" transform="translate(583.140625 0)"/>
       <use xlink:href="#DejaVuSans-43" transform="translate(656.333984 0)"/>
       <use xlink:href="#DejaVuSans-4f" transform="translate(726.158203 0)"/>
       <use xlink:href="#DejaVuSans-53" transform="translate(804.869141 0)"/>
       <use xlink:href="#DejaVuSans-45" transform="translate(868.345703 0)"/>
      </g>
     </g>
    </g>
    <g id="ytick_2">
     <g id="line2d_8">
      <path d="M 121.880781 496.345323 
L 754.17821 496.345323 
" clip-path="url(#p9512658684)" style="fill: none; stroke: #cccccc; stroke-width: 0.8; stroke-linecap: round"/>
     </g>
     <g id="text_9">
      <!-- FASTING LDL -->
      <g style="fill: #262626" transform="translate(69.844531 499.004776) scale(0.07 -0.07)">
       <defs>
        <path id="DejaVuSans-44" d="M 1259 4147 
L 1259 519 
L 2022 519 
Q 2988 519 3436 956 
Q 3884 1394 3884 2338 
Q 3884 3275 3436 3711 
Q 2988 4147 2022 4147 
L 1259 4147 
z
M 628 4666 
L 1925 4666 
Q 3281 4666 3915 4102 
Q 4550 3538 4550 2338 
Q 4550 1131 3912 565 
Q 3275 0 1925 0 
L 628 0 
L 628 4666 
z
" transform="scale(0.015625)"/>
       </defs>
       <use xlink:href="#DejaVuSans-46"/>
       <use xlink:href="#DejaVuSans-41" transform="translate(48.394531 0)"/>
       <use xlink:href="#DejaVuSans-53" transform="translate(116.802734 0)"/>
       <use xlink:href="#DejaVuSans-54" transform="translate(180.279297 0)"/>
       <use xlink:href="#DejaVuSans-49" transform="translate(241.363281 0)"/>
       <use xlink:href="#DejaVuSans-4e" transform="translate(270.855469 0)"/>
       <use xlink:href="#DejaVuSans-47" transform="translate(345.660156 0)"/>
       <use xlink:href="#DejaVuSans-20" transform="translate(423.150391 0)"/>
       <use xlink:href="#DejaVuSans-4c" transform="translate(454.9375 0)"/>
       <use xlink:href="#DejaVuSans-44" transform="translate(510.650391 0)"/>
       <use xlink:href="#DejaVuSans-4c" transform="translate(587.652344 0)"/>
      </g>
     </g>
    </g>
    <g id="ytick_3">
     <g id="line2d_9">
      <path d="M 121.880781 478.983043 
L 754.17821 478.983043 
" clip-path="url(#p9512658684)" style="fill: none; stroke: #cccccc; stroke-width: 0.8; stroke-linecap: round"/>
     </g>
     <g id="text_10">
      <!-- FASTING TOTAL CHOLESTEROL -->
      <g style="fill: #262626" transform="translate(7.2 481.642497) scale(0.07 -0.07)">
       <defs>
        <path id="DejaVuSans-48" d="M 628 4666 
L 1259 4666 
L 1259 2753 
L 3553 2753 
L 3553 4666 
L 4184 4666 
L 4184 0 
L 3553 0 
L 3553 2222 
L 1259 2222 
L 1259 0 
L 628 0 
L 628 4666 
z
" transform="scale(0.015625)"/>
        <path id="DejaVuSans-52" d="M 2841 2188 
Q 3044 2119 3236 1894 
Q 3428 1669 3622 1275 
L 4263 0 
L 3584 0 
L 2988 1197 
Q 2756 1666 2539 1819 
Q 2322 1972 1947 1972 
L 1259 1972 
L 1259 0 
L 628 0 
L 628 4666 
L 2053 4666 
Q 2853 4666 3247 4331 
Q 3641 3997 3641 3322 
Q 3641 2881 3436 2590 
Q 3231 2300 2841 2188 
z
M 1259 4147 
L 1259 2491 
L 2053 2491 
Q 2509 2491 2742 2702 
Q 2975 2913 2975 3322 
Q 2975 3731 2742 3939 
Q 2509 4147 2053 4147 
L 1259 4147 
z
" transform="scale(0.015625)"/>
       </defs>
       <use xlink:href="#DejaVuSans-46"/>
       <use xlink:href="#DejaVuSans-41" transform="translate(48.394531 0)"/>
       <use xlink:href="#DejaVuSans-53" transform="translate(116.802734 0)"/>
       <use xlink:href="#DejaVuSans-54" transform="translate(180.279297 0)"/>
       <use xlink:href="#DejaVuSans-49" transform="translate(241.363281 0)"/>
       <use xlink:href="#DejaVuSans-4e" transform="translate(270.855469 0)"/>
       <use xlink:href="#DejaVuSans-47" transform="translate(345.660156 0)"/>
       <use xlink:href="#DejaVuSans-20" transform="translate(423.150391 0)"/>
       <use xlink:href="#DejaVuSans-54" transform="translate(454.9375 0)"/>
       <use xlink:href="#DejaVuSans-4f" transform="translate(516.021484 0)"/>
       <use xlink:href="#DejaVuSans-54" transform="translate(594.732422 0)"/>
       <use xlink:href="#DejaVuSans-41" transform="translate(648.066406 0)"/>
       <use xlink:href="#DejaVuSans-4c" transform="translate(716.474609 0)"/>
       <use xlink:href="#DejaVuSans-20" transform="translate(772.1875 0)"/>
       <use xlink:href="#DejaVuSans-43" transform="translate(803.974609 0)"/>
       <use xlink:href="#DejaVuSans-48" transform="translate(873.798828 0)"/>
       <use xlink:href="#DejaVuSans-4f" transform="translate(948.994141 0)"/>
       <use xlink:href="#DejaVuSans-4c" transform="translate(1027.705078 0)"/>
       <use xlink:href="#DejaVuSans-45" transform="translate(1083.417969 0)"/>
       <use xlink:href="#DejaVuSans-53" transform="translate(1146.601562 0)"/>
       <use xlink:href="#DejaVuSans-54" transform="translate(1210.078125 0)"/>
       <use xlink:href="#DejaVuSans-45" transform="translate(1271.162109 0)"/>
       <use xlink:href="#DejaVuSans-52" transform="translate(1334.345703 0)"/>
       <use xlink:href="#DejaVuSans-4f" transform="translate(1403.828125 0)"/>
       <use xlink:href="#DejaVuSans-4c" transform="translate(1482.539062 0)"/>
      </g>
     </g>
    </g>
    <g id="ytick_4">
     <g id="line2d_10">
      <path d="M 121.880781 461.620764 
L 754.17821 461.620764 
" clip-path="url(#p9512658684)" style="fill: none; stroke: #cccccc; stroke-width: 0.8; stroke-linecap: round"/>
     </g>
     <g id="text_11">
      <!-- FASTING HDL -->
      <g style="fill: #262626" transform="translate(68.480625 464.280217) scale(0.07 -0.07)">
       <use xlink:href="#DejaVuSans-46"/>
       <use xlink:href="#DejaVuSans-41" transform="translate(48.394531 0)"/>
       <use xlink:href="#DejaVuSans-53" transform="translate(116.802734 0)"/>
       <use xlink:href="#DejaVuSans-54" transform="translate(180.279297 0)"/>
       <use xlink:href="#DejaVuSans-49" transform="translate(241.363281 0)"/>
       <use xlink:href="#DejaVuSans-4e" transform="translate(270.855469 0)"/>
       <use xlink:href="#DejaVuSans-47" transform="translate(345.660156 0)"/>
       <use xlink:href="#DejaVuSans-20" transform="translate(423.150391 0)"/>
       <use xlink:href="#DejaVuSans-48" transform="translate(454.9375 0)"/>
       <use xlink:href="#DejaVuSans-44" transform="translate(530.132812 0)"/>
       <use xlink:href="#DejaVuSans-4c" transform="translate(607.134766 0)"/>
      </g>
     </g>
    </g>
    <g id="ytick_5">
     <g id="line2d_11">
      <path d="M 121.880781 444.258484 
L 754.17821 444.258484 
" clip-path="url(#p9512658684)" style="fill: none; stroke: #cccccc; stroke-width: 0.8; stroke-linecap: round"/>
     </g>
     <g id="text_12">
      <!-- ALBUMIN -->
      <g style="fill: #262626" transform="translate(82.924688 446.917937) scale(0.07 -0.07)">
       <defs>
        <path id="DejaVuSans-42" d="M 1259 2228 
L 1259 519 
L 2272 519 
Q 2781 519 3026 730 
Q 3272 941 3272 1375 
Q 3272 1813 3026 2020 
Q 2781 2228 2272 2228 
L 1259 2228 
z
M 1259 4147 
L 1259 2741 
L 2194 2741 
Q 2656 2741 2882 2914 
Q 3109 3088 3109 3444 
Q 3109 3797 2882 3972 
Q 2656 4147 2194 4147 
L 1259 4147 
z
M 628 4666 
L 2241 4666 
Q 2963 4666 3353 4366 
Q 3744 4066 3744 3513 
Q 3744 3084 3544 2831 
Q 3344 2578 2956 2516 
Q 3422 2416 3680 2098 
Q 3938 1781 3938 1306 
Q 3938 681 3513 340 
Q 3088 0 2303 0 
L 628 0 
L 628 4666 
z
" transform="scale(0.015625)"/>
        <path id="DejaVuSans-4d" d="M 628 4666 
L 1569 4666 
L 2759 1491 
L 3956 4666 
L 4897 4666 
L 4897 0 
L 4281 0 
L 4281 4097 
L 3078 897 
L 2444 897 
L 1241 4097 
L 1241 0 
L 628 0 
L 628 4666 
z
" transform="scale(0.015625)"/>
       </defs>
       <use xlink:href="#DejaVuSans-41"/>
       <use xlink:href="#DejaVuSans-4c" transform="translate(68.408203 0)"/>
       <use xlink:href="#DejaVuSans-42" transform="translate(124.121094 0)"/>
       <use xlink:href="#DejaVuSans-55" transform="translate(192.724609 0)"/>
       <use xlink:href="#DejaVuSans-4d" transform="translate(265.917969 0)"/>
       <use xlink:href="#DejaVuSans-49" transform="translate(352.197266 0)"/>
       <use xlink:href="#DejaVuSans-4e" transform="translate(381.689453 0)"/>
      </g>
     </g>
    </g>
    <g id="ytick_6">
     <g id="line2d_12">
      <path d="M 121.880781 426.896205 
L 754.17821 426.896205 
" clip-path="url(#p9512658684)" style="fill: none; stroke: #cccccc; stroke-width: 0.8; stroke-linecap: round"/>
     </g>
     <g id="text_13">
      <!-- CREATININE -->
      <g style="fill: #262626" transform="translate(73.1575 429.555658) scale(0.07 -0.07)">
       <use xlink:href="#DejaVuSans-43"/>
       <use xlink:href="#DejaVuSans-52" transform="translate(69.824219 0)"/>
       <use xlink:href="#DejaVuSans-45" transform="translate(139.306641 0)"/>
       <use xlink:href="#DejaVuSans-41" transform="translate(202.490234 0)"/>
       <use xlink:href="#DejaVuSans-54" transform="translate(263.148438 0)"/>
       <use xlink:href="#DejaVuSans-49" transform="translate(324.232422 0)"/>
       <use xlink:href="#DejaVuSans-4e" transform="translate(353.724609 0)"/>
       <use xlink:href="#DejaVuSans-49" transform="translate(428.529297 0)"/>
       <use xlink:href="#DejaVuSans-4e" transform="translate(458.021484 0)"/>
       <use xlink:href="#DejaVuSans-45" transform="translate(532.826172 0)"/>
      </g>
     </g>
    </g>
    <g id="ytick_7">
     <g id="line2d_13">
      <path d="M 121.880781 409.533925 
L 754.17821 409.533925 
" clip-path="url(#p9512658684)" style="fill: none; stroke: #cccccc; stroke-width: 0.8; stroke-linecap: round"/>
     </g>
     <g id="text_14">
      <!-- ALKALINE PHOSPHATASE -->
      <g style="fill: #262626" transform="translate(28.527031 412.193378) scale(0.07 -0.07)">
       <defs>
        <path id="DejaVuSans-4b" d="M 628 4666 
L 1259 4666 
L 1259 2694 
L 3353 4666 
L 4166 4666 
L 1850 2491 
L 4331 0 
L 3500 0 
L 1259 2247 
L 1259 0 
L 628 0 
L 628 4666 
z
" transform="scale(0.015625)"/>
        <path id="DejaVuSans-50" d="M 1259 4147 
L 1259 2394 
L 2053 2394 
Q 2494 2394 2734 2622 
Q 2975 2850 2975 3272 
Q 2975 3691 2734 3919 
Q 2494 4147 2053 4147 
L 1259 4147 
z
M 628 4666 
L 2053 4666 
Q 2838 4666 3239 4311 
Q 3641 3956 3641 3272 
Q 3641 2581 3239 2228 
Q 2838 1875 2053 1875 
L 1259 1875 
L 1259 0 
L 628 0 
L 628 4666 
z
" transform="scale(0.015625)"/>
       </defs>
       <use xlink:href="#DejaVuSans-41"/>
       <use xlink:href="#DejaVuSans-4c" transform="translate(68.408203 0)"/>
       <use xlink:href="#DejaVuSans-4b" transform="translate(124.121094 0)"/>
       <use xlink:href="#DejaVuSans-41" transform="translate(187.947266 0)"/>
       <use xlink:href="#DejaVuSans-4c" transform="translate(256.355469 0)"/>
       <use xlink:href="#DejaVuSans-49" transform="translate(312.068359 0)"/>
       <use xlink:href="#DejaVuSans-4e" transform="translate(341.560547 0)"/>
       <use xlink:href="#DejaVuSans-45" transform="translate(416.365234 0)"/>
       <use xlink:href="#DejaVuSans-20" transform="translate(479.548828 0)"/>
       <use xlink:href="#DejaVuSans-50" transform="translate(511.335938 0)"/>
       <use xlink:href="#DejaVuSans-48" transform="translate(571.638672 0)"/>
       <use xlink:href="#DejaVuSans-4f" transform="translate(646.833984 0)"/>
       <use xlink:href="#DejaVuSans-53" transform="translate(725.544922 0)"/>
       <use xlink:href="#DejaVuSans-50" transform="translate(789.021484 0)"/>
       <use xlink:href="#DejaVuSans-48" transform="translate(849.324219 0)"/>
       <use xlink:href="#DejaVuSans-41" transform="translate(924.519531 0)"/>
       <use xlink:href="#DejaVuSans-54" transform="translate(985.177734 0)"/>
       <use xlink:href="#DejaVuSans-41" transform="translate(1038.511719 0)"/>
       <use xlink:href="#DejaVuSans-53" transform="translate(1106.919922 0)"/>
       <use xlink:href="#DejaVuSans-45" transform="translate(1170.396484 0)"/>
      </g>
     </g>
    </g>
    <g id="ytick_8">
     <g id="line2d_14">
      <path d="M 121.880781 392.171646 
L 754.17821 392.171646 
" clip-path="url(#p9512658684)" style="fill: none; stroke: #cccccc; stroke-width: 0.8; stroke-linecap: round"/>
     </g>
     <g id="text_15">
      <!-- ALT -->
      <g style="fill: #262626" transform="translate(102.879063 394.831099) scale(0.07 -0.07)">
       <use xlink:href="#DejaVuSans-41"/>
       <use xlink:href="#DejaVuSans-4c" transform="translate(68.408203 0)"/>
       <use xlink:href="#DejaVuSans-54" transform="translate(110.371094 0)"/>
      </g>
     </g>
    </g>
    <g id="ytick_9">
     <g id="line2d_15">
      <path d="M 121.880781 374.809366 
L 754.17821 374.809366 
" clip-path="url(#p9512658684)" style="fill: none; stroke: #cccccc; stroke-width: 0.8; stroke-linecap: round"/>
     </g>
     <g id="text_16">
      <!-- SODIUM -->
      <g style="fill: #262626" transform="translate(86.30875 377.468819) scale(0.07 -0.07)">
       <use xlink:href="#DejaVuSans-53"/>
       <use xlink:href="#DejaVuSans-4f" transform="translate(63.476562 0)"/>
       <use xlink:href="#DejaVuSans-44" transform="translate(142.1875 0)"/>
       <use xlink:href="#DejaVuSans-49" transform="translate(219.189453 0)"/>
       <use xlink:href="#DejaVuSans-55" transform="translate(248.681641 0)"/>
       <use xlink:href="#DejaVuSans-4d" transform="translate(321.875 0)"/>
      </g>
     </g>
    </g>
    <g id="ytick_10">
     <g id="line2d_16">
      <path d="M 121.880781 357.447087 
L 754.17821 357.447087 
" clip-path="url(#p9512658684)" style="fill: none; stroke: #cccccc; stroke-width: 0.8; stroke-linecap: round"/>
     </g>
     <g id="text_17">
      <!-- TOTAL BILIRUBIN -->
      <g style="fill: #262626" transform="translate(55.524063 360.10654) scale(0.07 -0.07)">
       <use xlink:href="#DejaVuSans-54"/>
       <use xlink:href="#DejaVuSans-4f" transform="translate(61.083984 0)"/>
       <use xlink:href="#DejaVuSans-54" transform="translate(139.794922 0)"/>
       <use xlink:href="#DejaVuSans-41" transform="translate(193.128906 0)"/>
       <use xlink:href="#DejaVuSans-4c" transform="translate(261.537109 0)"/>
       <use xlink:href="#DejaVuSans-20" transform="translate(317.25 0)"/>
       <use xlink:href="#DejaVuSans-42" transform="translate(349.037109 0)"/>
       <use xlink:href="#DejaVuSans-49" transform="translate(417.640625 0)"/>
       <use xlink:href="#DejaVuSans-4c" transform="translate(447.132812 0)"/>
       <use xlink:href="#DejaVuSans-49" transform="translate(502.845703 0)"/>
       <use xlink:href="#DejaVuSans-52" transform="translate(532.337891 0)"/>
       <use xlink:href="#DejaVuSans-55" transform="translate(601.820312 0)"/>
       <use xlink:href="#DejaVuSans-42" transform="translate(675.013672 0)"/>
       <use xlink:href="#DejaVuSans-49" transform="translate(743.617188 0)"/>
       <use xlink:href="#DejaVuSans-4e" transform="translate(773.109375 0)"/>
      </g>
     </g>
    </g>
    <g id="ytick_11">
     <g id="line2d_17">
      <path d="M 121.880781 340.084807 
L 754.17821 340.084807 
" clip-path="url(#p9512658684)" style="fill: none; stroke: #cccccc; stroke-width: 0.8; stroke-linecap: round"/>
     </g>
     <g id="text_18">
      <!-- AST -->
      <g style="fill: #262626" transform="translate(101.372969 342.74426) scale(0.07 -0.07)">
       <use xlink:href="#DejaVuSans-41"/>
       <use xlink:href="#DejaVuSans-53" transform="translate(68.408203 0)"/>
       <use xlink:href="#DejaVuSans-54" transform="translate(131.884766 0)"/>
      </g>
     </g>
    </g>
    <g id="ytick_12">
     <g id="line2d_18">
      <path d="M 121.880781 322.722528 
L 754.17821 322.722528 
" clip-path="url(#p9512658684)" style="fill: none; stroke: #cccccc; stroke-width: 0.8; stroke-linecap: round"/>
     </g>
     <g id="text_19">
      <!-- POTASSIUM -->
      <g style="fill: #262626" transform="translate(74.512656 325.381981) scale(0.07 -0.07)">
       <use xlink:href="#DejaVuSans-50"/>
       <use xlink:href="#DejaVuSans-4f" transform="translate(60.302734 0)"/>
       <use xlink:href="#DejaVuSans-54" transform="translate(139.013672 0)"/>
       <use xlink:href="#DejaVuSans-41" transform="translate(192.347656 0)"/>
       <use xlink:href="#DejaVuSans-53" transform="translate(260.755859 0)"/>
       <use xlink:href="#DejaVuSans-53" transform="translate(324.232422 0)"/>
       <use xlink:href="#DejaVuSans-49" transform="translate(387.708984 0)"/>
       <use xlink:href="#DejaVuSans-55" transform="translate(417.201172 0)"/>
       <use xlink:href="#DejaVuSans-4d" transform="translate(490.394531 0)"/>
      </g>
     </g>
    </g>
    <g id="ytick_13">
     <g id="line2d_19">
      <path d="M 121.880781 305.360248 
L 754.17821 305.360248 
" clip-path="url(#p9512658684)" style="fill: none; stroke: #cccccc; stroke-width: 0.8; stroke-linecap: round"/>
     </g>
     <g id="text_20">
      <!-- PLATELET COUNT -->
      <g style="fill: #262626" transform="translate(53.800313 308.019701) scale(0.07 -0.07)">
       <use xlink:href="#DejaVuSans-50"/>
       <use xlink:href="#DejaVuSans-4c" transform="translate(60.302734 0)"/>
       <use xlink:href="#DejaVuSans-41" transform="translate(118.265625 0)"/>
       <use xlink:href="#DejaVuSans-54" transform="translate(178.923828 0)"/>
       <use xlink:href="#DejaVuSans-45" transform="translate(240.007812 0)"/>
       <use xlink:href="#DejaVuSans-4c" transform="translate(303.191406 0)"/>
       <use xlink:href="#DejaVuSans-45" transform="translate(358.904297 0)"/>
       <use xlink:href="#DejaVuSans-54" transform="translate(422.087891 0)"/>
       <use xlink:href="#DejaVuSans-20" transform="translate(483.171875 0)"/>
       <use xlink:href="#DejaVuSans-43" transform="translate(514.958984 0)"/>
       <use xlink:href="#DejaVuSans-4f" transform="translate(584.783203 0)"/>
       <use xlink:href="#DejaVuSans-55" transform="translate(663.494141 0)"/>
       <use xlink:href="#DejaVuSans-4e" transform="translate(736.6875 0)"/>
       <use xlink:href="#DejaVuSans-54" transform="translate(811.492188 0)"/>
      </g>
     </g>
    </g>
    <g id="ytick_14">
     <g id="line2d_20">
      <path d="M 121.880781 287.997969 
L 754.17821 287.997969 
" clip-path="url(#p9512658684)" style="fill: none; stroke: #cccccc; stroke-width: 0.8; stroke-linecap: round"/>
     </g>
     <g id="text_21">
      <!-- WBC -->
      <g style="fill: #262626" transform="translate(98.391406 290.657422) scale(0.07 -0.07)">
       <defs>
        <path id="DejaVuSans-57" d="M 213 4666 
L 850 4666 
L 1831 722 
L 2809 4666 
L 3519 4666 
L 4500 722 
L 5478 4666 
L 6119 4666 
L 4947 0 
L 4153 0 
L 3169 4050 
L 2175 0 
L 1381 0 
L 213 4666 
z
" transform="scale(0.015625)"/>
       </defs>
       <use xlink:href="#DejaVuSans-57"/>
       <use xlink:href="#DejaVuSans-42" transform="translate(98.876953 0)"/>
       <use xlink:href="#DejaVuSans-43" transform="translate(165.730469 0)"/>
      </g>
     </g>
    </g>
    <g id="ytick_15">
     <g id="line2d_21">
      <path d="M 121.880781 270.635689 
L 754.17821 270.635689 
" clip-path="url(#p9512658684)" style="fill: none; stroke: #cccccc; stroke-width: 0.8; stroke-linecap: round"/>
     </g>
     <g id="text_22">
      <!-- HEMATOCRIT -->
      <g style="fill: #262626" transform="translate(69.029688 273.295142) scale(0.07 -0.07)">
       <use xlink:href="#DejaVuSans-48"/>
       <use xlink:href="#DejaVuSans-45" transform="translate(75.195312 0)"/>
       <use xlink:href="#DejaVuSans-4d" transform="translate(138.378906 0)"/>
       <use xlink:href="#DejaVuSans-41" transform="translate(224.658203 0)"/>
       <use xlink:href="#DejaVuSans-54" transform="translate(285.316406 0)"/>
       <use xlink:href="#DejaVuSans-4f" transform="translate(346.400391 0)"/>
       <use xlink:href="#DejaVuSans-43" transform="translate(425.111328 0)"/>
       <use xlink:href="#DejaVuSans-52" transform="translate(494.935547 0)"/>
       <use xlink:href="#DejaVuSans-49" transform="translate(564.417969 0)"/>
       <use xlink:href="#DejaVuSans-54" transform="translate(593.910156 0)"/>
      </g>
     </g>
    </g>
    <g id="ytick_16">
     <g id="line2d_22">
      <path d="M 121.880781 253.27341 
L 754.17821 253.27341 
" clip-path="url(#p9512658684)" style="fill: none; stroke: #cccccc; stroke-width: 0.8; stroke-linecap: round"/>
     </g>
     <g id="text_23">
      <!-- HEMOGLOBIN -->
      <g style="fill: #262626" transform="translate(66.958125 255.932863) scale(0.07 -0.07)">
       <use xlink:href="#DejaVuSans-48"/>
       <use xlink:href="#DejaVuSans-45" transform="translate(75.195312 0)"/>
       <use xlink:href="#DejaVuSans-4d" transform="translate(138.378906 0)"/>
       <use xlink:href="#DejaVuSans-4f" transform="translate(224.658203 0)"/>
       <use xlink:href="#DejaVuSans-47" transform="translate(303.369141 0)"/>
       <use xlink:href="#DejaVuSans-4c" transform="translate(380.859375 0)"/>
       <use xlink:href="#DejaVuSans-4f" transform="translate(432.947266 0)"/>
       <use xlink:href="#DejaVuSans-42" transform="translate(511.658203 0)"/>
       <use xlink:href="#DejaVuSans-49" transform="translate(580.261719 0)"/>
       <use xlink:href="#DejaVuSans-4e" transform="translate(609.753906 0)"/>
      </g>
     </g>
    </g>
    <g id="ytick_17">
     <g id="line2d_23">
      <path d="M 121.880781 235.91113 
L 754.17821 235.91113 
" clip-path="url(#p9512658684)" style="fill: none; stroke: #cccccc; stroke-width: 0.8; stroke-linecap: round"/>
     </g>
     <g id="text_24">
      <!-- LYMPHOCYTES -->
      <g style="fill: #262626" transform="translate(64.414062 238.570583) scale(0.07 -0.07)">
       <defs>
        <path id="DejaVuSans-59" d="M -13 4666 
L 666 4666 
L 1959 2747 
L 3244 4666 
L 3922 4666 
L 2272 2222 
L 2272 0 
L 1638 0 
L 1638 2222 
L -13 4666 
z
" transform="scale(0.015625)"/>
       </defs>
       <use xlink:href="#DejaVuSans-4c"/>
       <use xlink:href="#DejaVuSans-59" transform="translate(42.462891 0)"/>
       <use xlink:href="#DejaVuSans-4d" transform="translate(103.546875 0)"/>
       <use xlink:href="#DejaVuSans-50" transform="translate(189.826172 0)"/>
       <use xlink:href="#DejaVuSans-48" transform="translate(250.128906 0)"/>
       <use xlink:href="#DejaVuSans-4f" transform="translate(325.324219 0)"/>
       <use xlink:href="#DejaVuSans-43" transform="translate(404.035156 0)"/>
       <use xlink:href="#DejaVuSans-59" transform="translate(472.109375 0)"/>
       <use xlink:href="#DejaVuSans-54" transform="translate(533.193359 0)"/>
       <use xlink:href="#DejaVuSans-45" transform="translate(594.277344 0)"/>
       <use xlink:href="#DejaVuSans-53" transform="translate(657.460938 0)"/>
      </g>
     </g>
    </g>
    <g id="ytick_18">
     <g id="line2d_24">
      <path d="M 121.880781 218.548851 
L 754.17821 218.548851 
" clip-path="url(#p9512658684)" style="fill: none; stroke: #cccccc; stroke-width: 0.8; stroke-linecap: round"/>
     </g>
     <g id="text_25">
      <!-- NEUTROPHILS -->
      <g style="fill: #262626" transform="translate(65.55375 221.208304) scale(0.07 -0.07)">
       <use xlink:href="#DejaVuSans-4e"/>
       <use xlink:href="#DejaVuSans-45" transform="translate(74.804688 0)"/>
       <use xlink:href="#DejaVuSans-55" transform="translate(137.988281 0)"/>
       <use xlink:href="#DejaVuSans-54" transform="translate(211.181641 0)"/>
       <use xlink:href="#DejaVuSans-52" transform="translate(272.265625 0)"/>
       <use xlink:href="#DejaVuSans-4f" transform="translate(341.748047 0)"/>
       <use xlink:href="#DejaVuSans-50" transform="translate(420.458984 0)"/>
       <use xlink:href="#DejaVuSans-48" transform="translate(480.761719 0)"/>
       <use xlink:href="#DejaVuSans-49" transform="translate(555.957031 0)"/>
       <use xlink:href="#DejaVuSans-4c" transform="translate(585.449219 0)"/>
       <use xlink:href="#DejaVuSans-53" transform="translate(641.162109 0)"/>
      </g>
     </g>
    </g>
    <g id="ytick_19">
     <g id="line2d_25">
      <path d="M 121.880781 201.186571 
L 754.17821 201.186571 
" clip-path="url(#p9512658684)" style="fill: none; stroke: #cccccc; stroke-width: 0.8; stroke-linecap: round"/>
     </g>
     <g id="text_26">
      <!-- date -->
      <g style="fill: #262626" transform="translate(99.095781 203.846024) scale(0.07 -0.07)">
       <defs>
        <path id="DejaVuSans-64" d="M 2906 2969 
L 2906 4863 
L 3481 4863 
L 3481 0 
L 2906 0 
L 2906 525 
Q 2725 213 2448 61 
Q 2172 -91 1784 -91 
Q 1150 -91 751 415 
Q 353 922 353 1747 
Q 353 2572 751 3078 
Q 1150 3584 1784 3584 
Q 2172 3584 2448 3432 
Q 2725 3281 2906 2969 
z
M 947 1747 
Q 947 1113 1208 752 
Q 1469 391 1925 391 
Q 2381 391 2643 752 
Q 2906 1113 2906 1747 
Q 2906 2381 2643 2742 
Q 2381 3103 1925 3103 
Q 1469 3103 1208 2742 
Q 947 2381 947 1747 
z
" transform="scale(0.015625)"/>
        <path id="DejaVuSans-61" d="M 2194 1759 
Q 1497 1759 1228 1600 
Q 959 1441 959 1056 
Q 959 750 1161 570 
Q 1363 391 1709 391 
Q 2188 391 2477 730 
Q 2766 1069 2766 1631 
L 2766 1759 
L 2194 1759 
z
M 3341 1997 
L 3341 0 
L 2766 0 
L 2766 531 
Q 2569 213 2275 61 
Q 1981 -91 1556 -91 
Q 1019 -91 701 211 
Q 384 513 384 1019 
Q 384 1609 779 1909 
Q 1175 2209 1959 2209 
L 2766 2209 
L 2766 2266 
Q 2766 2663 2505 2880 
Q 2244 3097 1772 3097 
Q 1472 3097 1187 3025 
Q 903 2953 641 2809 
L 641 3341 
Q 956 3463 1253 3523 
Q 1550 3584 1831 3584 
Q 2591 3584 2966 3190 
Q 3341 2797 3341 1997 
z
" transform="scale(0.015625)"/>
        <path id="DejaVuSans-74" d="M 1172 4494 
L 1172 3500 
L 2356 3500 
L 2356 3053 
L 1172 3053 
L 1172 1153 
Q 1172 725 1289 603 
Q 1406 481 1766 481 
L 2356 481 
L 2356 0 
L 1766 0 
Q 1100 0 847 248 
Q 594 497 594 1153 
L 594 3053 
L 172 3053 
L 172 3500 
L 594 3500 
L 594 4494 
L 1172 4494 
z
" transform="scale(0.015625)"/>
        <path id="DejaVuSans-65" d="M 3597 1894 
L 3597 1613 
L 953 1613 
Q 991 1019 1311 708 
Q 1631 397 2203 397 
Q 2534 397 2845 478 
Q 3156 559 3463 722 
L 3463 178 
Q 3153 47 2828 -22 
Q 2503 -91 2169 -91 
Q 1331 -91 842 396 
Q 353 884 353 1716 
Q 353 2575 817 3079 
Q 1281 3584 2069 3584 
Q 2775 3584 3186 3129 
Q 3597 2675 3597 1894 
z
M 3022 2063 
Q 3016 2534 2758 2815 
Q 2500 3097 2075 3097 
Q 1594 3097 1305 2825 
Q 1016 2553 972 2059 
L 3022 2063 
z
" transform="scale(0.015625)"/>
       </defs>
       <use xlink:href="#DejaVuSans-64"/>
       <use xlink:href="#DejaVuSans-61" transform="translate(63.476562 0)"/>
       <use xlink:href="#DejaVuSans-74" transform="translate(124.755859 0)"/>
       <use xlink:href="#DejaVuSans-65" transform="translate(163.964844 0)"/>
      </g>
     </g>
    </g>
    <g id="ytick_20">
     <g id="line2d_26">
      <path d="M 121.880781 183.824292 
L 754.17821 183.824292 
" clip-path="url(#p9512658684)" style="fill: none; stroke: #cccccc; stroke-width: 0.8; stroke-linecap: round"/>
     </g>
     <g id="text_27">
      <!-- CD4 Count -->
      <g style="fill: #262626" transform="translate(77.136563 186.483745) scale(0.07 -0.07)">
       <defs>
        <path id="DejaVuSans-6f" d="M 1959 3097 
Q 1497 3097 1228 2736 
Q 959 2375 959 1747 
Q 959 1119 1226 758 
Q 1494 397 1959 397 
Q 2419 397 2687 759 
Q 2956 1122 2956 1747 
Q 2956 2369 2687 2733 
Q 2419 3097 1959 3097 
z
M 1959 3584 
Q 2709 3584 3137 3096 
Q 3566 2609 3566 1747 
Q 3566 888 3137 398 
Q 2709 -91 1959 -91 
Q 1206 -91 779 398 
Q 353 888 353 1747 
Q 353 2609 779 3096 
Q 1206 3584 1959 3584 
z
" transform="scale(0.015625)"/>
        <path id="DejaVuSans-75" d="M 544 1381 
L 544 3500 
L 1119 3500 
L 1119 1403 
Q 1119 906 1312 657 
Q 1506 409 1894 409 
Q 2359 409 2629 706 
Q 2900 1003 2900 1516 
L 2900 3500 
L 3475 3500 
L 3475 0 
L 2900 0 
L 2900 538 
Q 2691 219 2414 64 
Q 2138 -91 1772 -91 
Q 1169 -91 856 284 
Q 544 659 544 1381 
z
M 1991 3584 
L 1991 3584 
z
" transform="scale(0.015625)"/>
        <path id="DejaVuSans-6e" d="M 3513 2113 
L 3513 0 
L 2938 0 
L 2938 2094 
Q 2938 2591 2744 2837 
Q 2550 3084 2163 3084 
Q 1697 3084 1428 2787 
Q 1159 2491 1159 1978 
L 1159 0 
L 581 0 
L 581 3500 
L 1159 3500 
L 1159 2956 
Q 1366 3272 1645 3428 
Q 1925 3584 2291 3584 
Q 2894 3584 3203 3211 
Q 3513 2838 3513 2113 
z
" transform="scale(0.015625)"/>
       </defs>
       <use xlink:href="#DejaVuSans-43"/>
       <use xlink:href="#DejaVuSans-44" transform="translate(69.824219 0)"/>
       <use xlink:href="#DejaVuSans-34" transform="translate(146.826172 0)"/>
       <use xlink:href="#DejaVuSans-20" transform="translate(210.449219 0)"/>
       <use xlink:href="#DejaVuSans-43" transform="translate(242.236328 0)"/>
       <use xlink:href="#DejaVuSans-6f" transform="translate(312.060547 0)"/>
       <use xlink:href="#DejaVuSans-75" transform="translate(373.242188 0)"/>
       <use xlink:href="#DejaVuSans-6e" transform="translate(436.621094 0)"/>
       <use xlink:href="#DejaVuSans-74" transform="translate(500 0)"/>
      </g>
     </g>
    </g>
    <g id="ytick_21">
     <g id="line2d_27">
      <path d="M 121.880781 166.462012 
L 754.17821 166.462012 
" clip-path="url(#p9512658684)" style="fill: none; stroke: #cccccc; stroke-width: 0.8; stroke-linecap: round"/>
     </g>
     <g id="text_28">
      <!-- HIV Viral Load -->
      <g style="fill: #262626" transform="translate(65.831563 169.121465) scale(0.07 -0.07)">
       <defs>
        <path id="DejaVuSans-56" d="M 1831 0 
L 50 4666 
L 709 4666 
L 2188 738 
L 3669 4666 
L 4325 4666 
L 2547 0 
L 1831 0 
z
" transform="scale(0.015625)"/>
        <path id="DejaVuSans-69" d="M 603 3500 
L 1178 3500 
L 1178 0 
L 603 0 
L 603 3500 
z
M 603 4863 
L 1178 4863 
L 1178 4134 
L 603 4134 
L 603 4863 
z
" transform="scale(0.015625)"/>
        <path id="DejaVuSans-72" d="M 2631 2963 
Q 2534 3019 2420 3045 
Q 2306 3072 2169 3072 
Q 1681 3072 1420 2755 
Q 1159 2438 1159 1844 
L 1159 0 
L 581 0 
L 581 3500 
L 1159 3500 
L 1159 2956 
Q 1341 3275 1631 3429 
Q 1922 3584 2338 3584 
Q 2397 3584 2469 3576 
Q 2541 3569 2628 3553 
L 2631 2963 
z
" transform="scale(0.015625)"/>
        <path id="DejaVuSans-6c" d="M 603 4863 
L 1178 4863 
L 1178 0 
L 603 0 
L 603 4863 
z
" transform="scale(0.015625)"/>
       </defs>
       <use xlink:href="#DejaVuSans-48"/>
       <use xlink:href="#DejaVuSans-49" transform="translate(75.195312 0)"/>
       <use xlink:href="#DejaVuSans-56" transform="translate(104.6875 0)"/>
       <use xlink:href="#DejaVuSans-20" transform="translate(173.095703 0)"/>
       <use xlink:href="#DejaVuSans-56" transform="translate(204.882812 0)"/>
       <use xlink:href="#DejaVuSans-69" transform="translate(271.041016 0)"/>
       <use xlink:href="#DejaVuSans-72" transform="translate(298.824219 0)"/>
       <use xlink:href="#DejaVuSans-61" transform="translate(339.9375 0)"/>
       <use xlink:href="#DejaVuSans-6c" transform="translate(401.216797 0)"/>
       <use xlink:href="#DejaVuSans-20" transform="translate(429 0)"/>
       <use xlink:href="#DejaVuSans-4c" transform="translate(460.787109 0)"/>
       <use xlink:href="#DejaVuSans-6f" transform="translate(514.75 0)"/>
       <use xlink:href="#DejaVuSans-61" transform="translate(575.931641 0)"/>
       <use xlink:href="#DejaVuSans-64" transform="translate(637.210938 0)"/>
      </g>
     </g>
    </g>
    <g id="ytick_22">
     <g id="line2d_28">
      <path d="M 121.880781 149.099733 
L 754.17821 149.099733 
" clip-path="url(#p9512658684)" style="fill: none; stroke: #cccccc; stroke-width: 0.8; stroke-linecap: round"/>
     </g>
     <g id="text_29">
      <!-- ORAL TEMPERATURE -->
      <g style="fill: #262626" transform="translate(42.975469 151.759186) scale(0.07 -0.07)">
       <use xlink:href="#DejaVuSans-4f"/>
       <use xlink:href="#DejaVuSans-52" transform="translate(78.710938 0)"/>
       <use xlink:href="#DejaVuSans-41" transform="translate(144.193359 0)"/>
       <use xlink:href="#DejaVuSans-4c" transform="translate(212.601562 0)"/>
       <use xlink:href="#DejaVuSans-20" transform="translate(268.314453 0)"/>
       <use xlink:href="#DejaVuSans-54" transform="translate(300.101562 0)"/>
       <use xlink:href="#DejaVuSans-45" transform="translate(361.185547 0)"/>
       <use xlink:href="#DejaVuSans-4d" transform="translate(424.369141 0)"/>
       <use xlink:href="#DejaVuSans-50" transform="translate(510.648438 0)"/>
       <use xlink:href="#DejaVuSans-45" transform="translate(570.951172 0)"/>
       <use xlink:href="#DejaVuSans-52" transform="translate(634.134766 0)"/>
       <use xlink:href="#DejaVuSans-41" transform="translate(699.617188 0)"/>
       <use xlink:href="#DejaVuSans-54" transform="translate(760.275391 0)"/>
       <use xlink:href="#DejaVuSans-55" transform="translate(821.359375 0)"/>
       <use xlink:href="#DejaVuSans-52" transform="translate(894.552734 0)"/>
       <use xlink:href="#DejaVuSans-45" transform="translate(964.035156 0)"/>
      </g>
     </g>
    </g>
    <g id="ytick_23">
     <g id="line2d_29">
      <path d="M 121.880781 131.737453 
L 754.17821 131.737453 
" clip-path="url(#p9512658684)" style="fill: none; stroke: #cccccc; stroke-width: 0.8; stroke-linecap: round"/>
     </g>
     <g id="text_30">
      <!-- HEART RATE -->
      <g style="fill: #262626" transform="translate(72.02 134.396906) scale(0.07 -0.07)">
       <use xlink:href="#DejaVuSans-48"/>
       <use xlink:href="#DejaVuSans-45" transform="translate(75.195312 0)"/>
       <use xlink:href="#DejaVuSans-41" transform="translate(138.378906 0)"/>
       <use xlink:href="#DejaVuSans-52" transform="translate(206.787109 0)"/>
       <use xlink:href="#DejaVuSans-54" transform="translate(269.019531 0)"/>
       <use xlink:href="#DejaVuSans-20" transform="translate(330.103516 0)"/>
       <use xlink:href="#DejaVuSans-52" transform="translate(361.890625 0)"/>
       <use xlink:href="#DejaVuSans-41" transform="translate(427.373047 0)"/>
       <use xlink:href="#DejaVuSans-54" transform="translate(488.03125 0)"/>
       <use xlink:href="#DejaVuSans-45" transform="translate(549.115234 0)"/>
      </g>
     </g>
    </g>
    <g id="ytick_24">
     <g id="line2d_30">
      <path d="M 121.880781 114.375174 
L 754.17821 114.375174 
" clip-path="url(#p9512658684)" style="fill: none; stroke: #cccccc; stroke-width: 0.8; stroke-linecap: round"/>
     </g>
     <g id="text_31">
      <!-- SYSTOLIC BLOOD PRESSURE -->
      <g style="fill: #262626" transform="translate(14.963437 117.034627) scale(0.07 -0.07)">
       <use xlink:href="#DejaVuSans-53"/>
       <use xlink:href="#DejaVuSans-59" transform="translate(63.476562 0)"/>
       <use xlink:href="#DejaVuSans-53" transform="translate(124.560547 0)"/>
       <use xlink:href="#DejaVuSans-54" transform="translate(188.037109 0)"/>
       <use xlink:href="#DejaVuSans-4f" transform="translate(249.121094 0)"/>
       <use xlink:href="#DejaVuSans-4c" transform="translate(327.832031 0)"/>
       <use xlink:href="#DejaVuSans-49" transform="translate(383.544922 0)"/>
       <use xlink:href="#DejaVuSans-43" transform="translate(413.037109 0)"/>
       <use xlink:href="#DejaVuSans-20" transform="translate(482.861328 0)"/>
       <use xlink:href="#DejaVuSans-42" transform="translate(514.648438 0)"/>
       <use xlink:href="#DejaVuSans-4c" transform="translate(583.251953 0)"/>
       <use xlink:href="#DejaVuSans-4f" transform="translate(635.339844 0)"/>
       <use xlink:href="#DejaVuSans-4f" transform="translate(714.050781 0)"/>
       <use xlink:href="#DejaVuSans-44" transform="translate(792.761719 0)"/>
       <use xlink:href="#DejaVuSans-20" transform="translate(869.763672 0)"/>
       <use xlink:href="#DejaVuSans-50" transform="translate(901.550781 0)"/>
       <use xlink:href="#DejaVuSans-52" transform="translate(961.853516 0)"/>
       <use xlink:href="#DejaVuSans-45" transform="translate(1031.335938 0)"/>
       <use xlink:href="#DejaVuSans-53" transform="translate(1094.519531 0)"/>
       <use xlink:href="#DejaVuSans-53" transform="translate(1157.996094 0)"/>
       <use xlink:href="#DejaVuSans-55" transform="translate(1221.472656 0)"/>
       <use xlink:href="#DejaVuSans-52" transform="translate(1294.666016 0)"/>
       <use xlink:href="#DejaVuSans-45" transform="translate(1364.148438 0)"/>
      </g>
     </g>
    </g>
    <g id="ytick_25">
     <g id="line2d_31">
      <path d="M 121.880781 97.012894 
L 754.17821 97.012894 
" clip-path="url(#p9512658684)" style="fill: none; stroke: #cccccc; stroke-width: 0.8; stroke-linecap: round"/>
     </g>
     <g id="text_32">
      <!-- DIASTOLIC BLOOD PRESSURE -->
      <g style="fill: #262626" transform="translate(11.439375 99.672347) scale(0.07 -0.07)">
       <use xlink:href="#DejaVuSans-44"/>
       <use xlink:href="#DejaVuSans-49" transform="translate(77.001953 0)"/>
       <use xlink:href="#DejaVuSans-41" transform="translate(106.494141 0)"/>
       <use xlink:href="#DejaVuSans-53" transform="translate(174.902344 0)"/>
       <use xlink:href="#DejaVuSans-54" transform="translate(238.378906 0)"/>
       <use xlink:href="#DejaVuSans-4f" transform="translate(299.462891 0)"/>
       <use xlink:href="#DejaVuSans-4c" transform="translate(378.173828 0)"/>
       <use xlink:href="#DejaVuSans-49" transform="translate(433.886719 0)"/>
       <use xlink:href="#DejaVuSans-43" transform="translate(463.378906 0)"/>
       <use xlink:href="#DejaVuSans-20" transform="translate(533.203125 0)"/>
       <use xlink:href="#DejaVuSans-42" transform="translate(564.990234 0)"/>
       <use xlink:href="#DejaVuSans-4c" transform="translate(633.59375 0)"/>
       <use xlink:href="#DejaVuSans-4f" transform="translate(685.681641 0)"/>
       <use xlink:href="#DejaVuSans-4f" transform="translate(764.392578 0)"/>
       <use xlink:href="#DejaVuSans-44" transform="translate(843.103516 0)"/>
       <use xlink:href="#DejaVuSans-20" transform="translate(920.105469 0)"/>
       <use xlink:href="#DejaVuSans-50" transform="translate(951.892578 0)"/>
       <use xlink:href="#DejaVuSans-52" transform="translate(1012.195312 0)"/>
       <use xlink:href="#DejaVuSans-45" transform="translate(1081.677734 0)"/>
       <use xlink:href="#DejaVuSans-53" transform="translate(1144.861328 0)"/>
       <use xlink:href="#DejaVuSans-53" transform="translate(1208.337891 0)"/>
       <use xlink:href="#DejaVuSans-55" transform="translate(1271.814453 0)"/>
       <use xlink:href="#DejaVuSans-52" transform="translate(1345.007812 0)"/>
       <use xlink:href="#DejaVuSans-45" transform="translate(1414.490234 0)"/>
      </g>
     </g>
    </g>
    <g id="ytick_26">
     <g id="line2d_32">
      <path d="M 121.880781 79.650615 
L 754.17821 79.650615 
" clip-path="url(#p9512658684)" style="fill: none; stroke: #cccccc; stroke-width: 0.8; stroke-linecap: round"/>
     </g>
     <g id="text_33">
      <!-- respiration rate -->
      <g style="fill: #262626" transform="translate(60.799219 82.310068) scale(0.07 -0.07)">
       <defs>
        <path id="DejaVuSans-73" d="M 2834 3397 
L 2834 2853 
Q 2591 2978 2328 3040 
Q 2066 3103 1784 3103 
Q 1356 3103 1142 2972 
Q 928 2841 928 2578 
Q 928 2378 1081 2264 
Q 1234 2150 1697 2047 
L 1894 2003 
Q 2506 1872 2764 1633 
Q 3022 1394 3022 966 
Q 3022 478 2636 193 
Q 2250 -91 1575 -91 
Q 1294 -91 989 -36 
Q 684 19 347 128 
L 347 722 
Q 666 556 975 473 
Q 1284 391 1588 391 
Q 1994 391 2212 530 
Q 2431 669 2431 922 
Q 2431 1156 2273 1281 
Q 2116 1406 1581 1522 
L 1381 1569 
Q 847 1681 609 1914 
Q 372 2147 372 2553 
Q 372 3047 722 3315 
Q 1072 3584 1716 3584 
Q 2034 3584 2315 3537 
Q 2597 3491 2834 3397 
z
" transform="scale(0.015625)"/>
        <path id="DejaVuSans-70" d="M 1159 525 
L 1159 -1331 
L 581 -1331 
L 581 3500 
L 1159 3500 
L 1159 2969 
Q 1341 3281 1617 3432 
Q 1894 3584 2278 3584 
Q 2916 3584 3314 3078 
Q 3713 2572 3713 1747 
Q 3713 922 3314 415 
Q 2916 -91 2278 -91 
Q 1894 -91 1617 61 
Q 1341 213 1159 525 
z
M 3116 1747 
Q 3116 2381 2855 2742 
Q 2594 3103 2138 3103 
Q 1681 3103 1420 2742 
Q 1159 2381 1159 1747 
Q 1159 1113 1420 752 
Q 1681 391 2138 391 
Q 2594 391 2855 752 
Q 3116 1113 3116 1747 
z
" transform="scale(0.015625)"/>
       </defs>
       <use xlink:href="#DejaVuSans-72"/>
       <use xlink:href="#DejaVuSans-65" transform="translate(38.863281 0)"/>
       <use xlink:href="#DejaVuSans-73" transform="translate(100.386719 0)"/>
       <use xlink:href="#DejaVuSans-70" transform="translate(152.486328 0)"/>
       <use xlink:href="#DejaVuSans-69" transform="translate(215.962891 0)"/>
       <use xlink:href="#DejaVuSans-72" transform="translate(243.746094 0)"/>
       <use xlink:href="#DejaVuSans-61" transform="translate(284.859375 0)"/>
       <use xlink:href="#DejaVuSans-74" transform="translate(346.138672 0)"/>
       <use xlink:href="#DejaVuSans-69" transform="translate(385.347656 0)"/>
       <use xlink:href="#DejaVuSans-6f" transform="translate(413.130859 0)"/>
       <use xlink:href="#DejaVuSans-6e" transform="translate(474.3125 0)"/>
       <use xlink:href="#DejaVuSans-20" transform="translate(537.691406 0)"/>
       <use xlink:href="#DejaVuSans-72" transform="translate(569.478516 0)"/>
       <use xlink:href="#DejaVuSans-61" transform="translate(610.591797 0)"/>
       <use xlink:href="#DejaVuSans-74" transform="translate(671.871094 0)"/>
       <use xlink:href="#DejaVuSans-65" transform="translate(711.080078 0)"/>
      </g>
     </g>
    </g>
    <g id="ytick_27">
     <g id="line2d_33">
      <path d="M 121.880781 62.288335 
L 754.17821 62.288335 
" clip-path="url(#p9512658684)" style="fill: none; stroke: #cccccc; stroke-width: 0.8; stroke-linecap: round"/>
     </g>
     <g id="text_34">
      <!-- weight -->
      <g style="fill: #262626" transform="translate(91.279844 64.947788) scale(0.07 -0.07)">
       <defs>
        <path id="DejaVuSans-77" d="M 269 3500 
L 844 3500 
L 1563 769 
L 2278 3500 
L 2956 3500 
L 3675 769 
L 4391 3500 
L 4966 3500 
L 4050 0 
L 3372 0 
L 2619 2869 
L 1863 0 
L 1184 0 
L 269 3500 
z
" transform="scale(0.015625)"/>
        <path id="DejaVuSans-67" d="M 2906 1791 
Q 2906 2416 2648 2759 
Q 2391 3103 1925 3103 
Q 1463 3103 1205 2759 
Q 947 2416 947 1791 
Q 947 1169 1205 825 
Q 1463 481 1925 481 
Q 2391 481 2648 825 
Q 2906 1169 2906 1791 
z
M 3481 434 
Q 3481 -459 3084 -895 
Q 2688 -1331 1869 -1331 
Q 1566 -1331 1297 -1286 
Q 1028 -1241 775 -1147 
L 775 -588 
Q 1028 -725 1275 -790 
Q 1522 -856 1778 -856 
Q 2344 -856 2625 -561 
Q 2906 -266 2906 331 
L 2906 616 
Q 2728 306 2450 153 
Q 2172 0 1784 0 
Q 1141 0 747 490 
Q 353 981 353 1791 
Q 353 2603 747 3093 
Q 1141 3584 1784 3584 
Q 2172 3584 2450 3431 
Q 2728 3278 2906 2969 
L 2906 3500 
L 3481 3500 
L 3481 434 
z
" transform="scale(0.015625)"/>
        <path id="DejaVuSans-68" d="M 3513 2113 
L 3513 0 
L 2938 0 
L 2938 2094 
Q 2938 2591 2744 2837 
Q 2550 3084 2163 3084 
Q 1697 3084 1428 2787 
Q 1159 2491 1159 1978 
L 1159 0 
L 581 0 
L 581 4863 
L 1159 4863 
L 1159 2956 
Q 1366 3272 1645 3428 
Q 1925 3584 2291 3584 
Q 2894 3584 3203 3211 
Q 3513 2838 3513 2113 
z
" transform="scale(0.015625)"/>
       </defs>
       <use xlink:href="#DejaVuSans-77"/>
       <use xlink:href="#DejaVuSans-65" transform="translate(81.787109 0)"/>
       <use xlink:href="#DejaVuSans-69" transform="translate(143.310547 0)"/>
       <use xlink:href="#DejaVuSans-67" transform="translate(171.09375 0)"/>
       <use xlink:href="#DejaVuSans-68" transform="translate(234.570312 0)"/>
       <use xlink:href="#DejaVuSans-74" transform="translate(297.949219 0)"/>
      </g>
     </g>
    </g>
   </g>
   <g id="patch_3">
    <path d="M 121.880781 520.652514 
L 724.068808 520.652514 
L 724.068808 506.762691 
L 121.880781 506.762691 
z
" clip-path="url(#p9512658684)" style="fill: #91cf60; stroke: #000000; stroke-width: 0.5; stroke-linejoin: miter"/>
   </g>
   <g id="patch_4">
    <path d="M 121.880781 503.290235 
L 663.850006 503.290235 
L 663.850006 489.400411 
L 121.880781 489.400411 
z
" clip-path="url(#p9512658684)" style="fill: #91cf60; stroke: #000000; stroke-width: 0.5; stroke-linejoin: miter"/>
   </g>
   <g id="patch_5">
    <path d="M 121.880781 485.927955 
L 653.813539 485.927955 
L 653.813539 472.038132 
L 121.880781 472.038132 
z
" clip-path="url(#p9512658684)" style="fill: #91cf60; stroke: #000000; stroke-width: 0.5; stroke-linejoin: miter"/>
   </g>
   <g id="patch_6">
    <path d="M 121.880781 468.565676 
L 653.813539 468.565676 
L 653.813539 454.675852 
L 121.880781 454.675852 
z
" clip-path="url(#p9512658684)" style="fill: #91cf60; stroke: #000000; stroke-width: 0.5; stroke-linejoin: miter"/>
   </g>
   <g id="patch_7">
    <path d="M 121.880781 451.203396 
L 553.448867 451.203396 
L 553.448867 437.313573 
L 121.880781 437.313573 
z
" clip-path="url(#p9512658684)" style="fill: #91cf60; stroke: #000000; stroke-width: 0.5; stroke-linejoin: miter"/>
   </g>
   <g id="patch_8">
    <path d="M 121.880781 433.841117 
L 543.4124 433.841117 
L 543.4124 419.951293 
L 121.880781 419.951293 
z
" clip-path="url(#p9512658684)" style="fill: #91cf60; stroke: #000000; stroke-width: 0.5; stroke-linejoin: miter"/>
   </g>
   <g id="patch_9">
    <path d="M 121.880781 416.478837 
L 533.375933 416.478837 
L 533.375933 402.589014 
L 121.880781 402.589014 
z
" clip-path="url(#p9512658684)" style="fill: #91cf60; stroke: #000000; stroke-width: 0.5; stroke-linejoin: miter"/>
   </g>
   <g id="patch_10">
    <path d="M 121.880781 399.116558 
L 533.375933 399.116558 
L 533.375933 385.226734 
L 121.880781 385.226734 
z
" clip-path="url(#p9512658684)" style="fill: #91cf60; stroke: #000000; stroke-width: 0.5; stroke-linejoin: miter"/>
   </g>
   <g id="patch_11">
    <path d="M 121.880781 381.754278 
L 533.375933 381.754278 
L 533.375933 367.864455 
L 121.880781 367.864455 
z
" clip-path="url(#p9512658684)" style="fill: #91cf60; stroke: #000000; stroke-width: 0.5; stroke-linejoin: miter"/>
   </g>
   <g id="patch_12">
    <path d="M 121.880781 364.391999 
L 533.375933 364.391999 
L 533.375933 350.502175 
L 121.880781 350.502175 
z
" clip-path="url(#p9512658684)" style="fill: #91cf60; stroke: #000000; stroke-width: 0.5; stroke-linejoin: miter"/>
   </g>
   <g id="patch_13">
    <path d="M 121.880781 347.029719 
L 533.375933 347.029719 
L 533.375933 333.139895 
L 121.880781 333.139895 
z
" clip-path="url(#p9512658684)" style="fill: #91cf60; stroke: #000000; stroke-width: 0.5; stroke-linejoin: miter"/>
   </g>
   <g id="patch_14">
    <path d="M 121.880781 329.66744 
L 533.375933 329.66744 
L 533.375933 315.777616 
L 121.880781 315.777616 
z
" clip-path="url(#p9512658684)" style="fill: #91cf60; stroke: #000000; stroke-width: 0.5; stroke-linejoin: miter"/>
   </g>
   <g id="patch_15">
    <path d="M 121.880781 312.30516 
L 342.683058 312.30516 
L 342.683058 298.415336 
L 121.880781 298.415336 
z
" clip-path="url(#p9512658684)" style="fill: #91cf60; stroke: #000000; stroke-width: 0.5; stroke-linejoin: miter"/>
   </g>
   <g id="patch_16">
    <path d="M 121.880781 294.942881 
L 182.099584 294.942881 
L 182.099584 281.053057 
L 121.880781 281.053057 
z
" clip-path="url(#p9512658684)" style="fill: #91cf60; stroke: #000000; stroke-width: 0.5; stroke-linejoin: miter"/>
   </g>
   <g id="patch_17">
    <path d="M 121.880781 277.580601 
L 182.099584 277.580601 
L 182.099584 263.690777 
L 121.880781 263.690777 
z
" clip-path="url(#p9512658684)" style="fill: #91cf60; stroke: #000000; stroke-width: 0.5; stroke-linejoin: miter"/>
   </g>
   <g id="patch_18">
    <path d="M 121.880781 260.218322 
L 182.099584 260.218322 
L 182.099584 246.328498 
L 121.880781 246.328498 
z
" clip-path="url(#p9512658684)" style="fill: #91cf60; stroke: #000000; stroke-width: 0.5; stroke-linejoin: miter"/>
   </g>
   <g id="patch_19">
    <path d="M 121.880781 242.856042 
L 182.099584 242.856042 
L 182.099584 228.966218 
L 121.880781 228.966218 
z
" clip-path="url(#p9512658684)" style="fill: #91cf60; stroke: #000000; stroke-width: 0.5; stroke-linejoin: miter"/>
   </g>
   <g id="patch_20">
    <path d="M 121.880781 225.493763 
L 182.099584 225.493763 
L 182.099584 211.603939 
L 121.880781 211.603939 
z
" clip-path="url(#p9512658684)" style="fill: #91cf60; stroke: #000000; stroke-width: 0.5; stroke-linejoin: miter"/>
   </g>
   <g id="patch_21">
    <path d="M 121.880781 208.131483 
L 172.063117 208.131483 
L 172.063117 194.241659 
L 121.880781 194.241659 
z
" clip-path="url(#p9512658684)" style="fill: #91cf60; stroke: #000000; stroke-width: 0.5; stroke-linejoin: miter"/>
   </g>
   <g id="patch_22">
    <path d="M 121.880781 190.769203 
L 172.063117 190.769203 
L 172.063117 176.87938 
L 121.880781 176.87938 
z
" clip-path="url(#p9512658684)" style="fill: #91cf60; stroke: #000000; stroke-width: 0.5; stroke-linejoin: miter"/>
   </g>
   <g id="patch_23">
    <path d="M 121.880781 173.406924 
L 172.063117 173.406924 
L 172.063117 159.5171 
L 121.880781 159.5171 
z
" clip-path="url(#p9512658684)" style="fill: #91cf60; stroke: #000000; stroke-width: 0.5; stroke-linejoin: miter"/>
   </g>
   <g id="patch_24">
    <path d="M 121.880781 156.044644 
L 162.02665 156.044644 
L 162.02665 142.154821 
L 121.880781 142.154821 
z
" clip-path="url(#p9512658684)" style="fill: #91cf60; stroke: #000000; stroke-width: 0.5; stroke-linejoin: miter"/>
   </g>
   <g id="patch_25">
    <path d="M 121.880781 138.682365 
L 151.990183 138.682365 
L 151.990183 124.792541 
L 121.880781 124.792541 
z
" clip-path="url(#p9512658684)" style="fill: #91cf60; stroke: #000000; stroke-width: 0.5; stroke-linejoin: miter"/>
   </g>
   <g id="patch_26">
    <path d="M 121.880781 121.320085 
L 141.953715 121.320085 
L 141.953715 107.430262 
L 121.880781 107.430262 
z
" clip-path="url(#p9512658684)" style="fill: #91cf60; stroke: #000000; stroke-width: 0.5; stroke-linejoin: miter"/>
   </g>
   <g id="patch_27">
    <path d="M 121.880781 103.957806 
L 141.953715 103.957806 
L 141.953715 90.067982 
L 121.880781 90.067982 
z
" clip-path="url(#p9512658684)" style="fill: #91cf60; stroke: #000000; stroke-width: 0.5; stroke-linejoin: miter"/>
   </g>
   <g id="patch_28">
    <path d="M 121.880781 86.595526 
L 141.953715 86.595526 
L 141.953715 72.705703 
L 121.880781 72.705703 
z
" clip-path="url(#p9512658684)" style="fill: #91cf60; stroke: #000000; stroke-width: 0.5; stroke-linejoin: miter"/>
   </g>
   <g id="patch_29">
    <path d="M 121.880781 69.233247 
L 141.953715 69.233247 
L 141.953715 55.343423 
L 121.880781 55.343423 
z
" clip-path="url(#p9512658684)" style="fill: #91cf60; stroke: #000000; stroke-width: 0.5; stroke-linejoin: miter"/>
   </g>
   <g id="patch_30">
    <path d="M 121.880781 543.917969 
L 121.880781 32.077969 
" style="fill: none; stroke: #cccccc; stroke-width: 0.8; stroke-linejoin: miter; stroke-linecap: square"/>
   </g>
   <g id="patch_31">
    <path d="M 754.17821 543.917969 
L 754.17821 32.077969 
" style="fill: none; stroke: #cccccc; stroke-width: 0.8; stroke-linejoin: miter; stroke-linecap: square"/>
   </g>
   <g id="patch_32">
    <path d="M 121.880781 543.917969 
L 754.17821 543.917969 
" style="fill: none; stroke: #cccccc; stroke-width: 0.8; stroke-linejoin: miter; stroke-linecap: square"/>
   </g>
   <g id="patch_33">
    <path d="M 121.880781 32.077969 
L 754.17821 32.077969 
" style="fill: none; stroke: #cccccc; stroke-width: 0.8; stroke-linejoin: miter; stroke-linecap: square"/>
   </g>
   <g id="text_35">
    <!-- 5.6% -->
    <g style="fill: #262626" transform="translate(831.659736 515.639165) scale(0.07 -0.07)">
     <defs>
      <path id="DejaVuSans-2e" d="M 684 794 
L 1344 794 
L 1344 0 
L 684 0 
L 684 794 
z
" transform="scale(0.015625)"/>
      <path id="DejaVuSans-36" d="M 2113 2584 
Q 1688 2584 1439 2293 
Q 1191 2003 1191 1497 
Q 1191 994 1439 701 
Q 1688 409 2113 409 
Q 2538 409 2786 701 
Q 3034 994 3034 1497 
Q 3034 2003 2786 2293 
Q 2538 2584 2113 2584 
z
M 3366 4563 
L 3366 3988 
Q 3128 4100 2886 4159 
Q 2644 4219 2406 4219 
Q 1781 4219 1451 3797 
Q 1122 3375 1075 2522 
Q 1259 2794 1537 2939 
Q 1816 3084 2150 3084 
Q 2853 3084 3261 2657 
Q 3669 2231 3669 1497 
Q 3669 778 3244 343 
Q 2819 -91 2113 -91 
Q 1303 -91 875 529 
Q 447 1150 447 2328 
Q 447 3434 972 4092 
Q 1497 4750 2381 4750 
Q 2619 4750 2861 4703 
Q 3103 4656 3366 4563 
z
" transform="scale(0.015625)"/>
      <path id="DejaVuSans-25" d="M 4653 2053 
Q 4381 2053 4226 1822 
Q 4072 1591 4072 1178 
Q 4072 772 4226 539 
Q 4381 306 4653 306 
Q 4919 306 5073 539 
Q 5228 772 5228 1178 
Q 5228 1588 5073 1820 
Q 4919 2053 4653 2053 
z
M 4653 2450 
Q 5147 2450 5437 2106 
Q 5728 1763 5728 1178 
Q 5728 594 5436 251 
Q 5144 -91 4653 -91 
Q 4153 -91 3862 251 
Q 3572 594 3572 1178 
Q 3572 1766 3864 2108 
Q 4156 2450 4653 2450 
z
M 1428 4353 
Q 1159 4353 1004 4120 
Q 850 3888 850 3481 
Q 850 3069 1003 2837 
Q 1156 2606 1428 2606 
Q 1700 2606 1854 2837 
Q 2009 3069 2009 3481 
Q 2009 3884 1853 4118 
Q 1697 4353 1428 4353 
z
M 4250 4750 
L 4750 4750 
L 1831 -91 
L 1331 -91 
L 4250 4750 
z
M 1428 4750 
Q 1922 4750 2215 4408 
Q 2509 4066 2509 3481 
Q 2509 2891 2217 2550 
Q 1925 2209 1428 2209 
Q 931 2209 642 2551 
Q 353 2894 353 3481 
Q 353 4063 643 4406 
Q 934 4750 1428 4750 
z
" transform="scale(0.015625)"/>
     </defs>
     <use xlink:href="#DejaVuSans-35"/>
     <use xlink:href="#DejaVuSans-2e" transform="translate(63.623047 0)"/>
     <use xlink:href="#DejaVuSans-36" transform="translate(95.410156 0)"/>
     <use xlink:href="#DejaVuSans-25" transform="translate(159.033203 0)"/>
    </g>
   </g>
   <g id="text_36">
    <!-- 5.0% -->
    <g style="fill: #262626" transform="translate(771.440933 498.276885) scale(0.07 -0.07)">
     <use xlink:href="#DejaVuSans-35"/>
     <use xlink:href="#DejaVuSans-2e" transform="translate(63.623047 0)"/>
     <use xlink:href="#DejaVuSans-30" transform="translate(95.410156 0)"/>
     <use xlink:href="#DejaVuSans-25" transform="translate(159.033203 0)"/>
    </g>
   </g>
   <g id="text_37">
    <!-- 4.9% -->
    <g style="fill: #262626" transform="translate(761.404466 480.914606) scale(0.07 -0.07)">
     <defs>
      <path id="DejaVuSans-39" d="M 703 97 
L 703 672 
Q 941 559 1184 500 
Q 1428 441 1663 441 
Q 2288 441 2617 861 
Q 2947 1281 2994 2138 
Q 2813 1869 2534 1725 
Q 2256 1581 1919 1581 
Q 1219 1581 811 2004 
Q 403 2428 403 3163 
Q 403 3881 828 4315 
Q 1253 4750 1959 4750 
Q 2769 4750 3195 4129 
Q 3622 3509 3622 2328 
Q 3622 1225 3098 567 
Q 2575 -91 1691 -91 
Q 1453 -91 1209 -44 
Q 966 3 703 97 
z
M 1959 2075 
Q 2384 2075 2632 2365 
Q 2881 2656 2881 3163 
Q 2881 3666 2632 3958 
Q 2384 4250 1959 4250 
Q 1534 4250 1286 3958 
Q 1038 3666 1038 3163 
Q 1038 2656 1286 2365 
Q 1534 2075 1959 2075 
z
" transform="scale(0.015625)"/>
     </defs>
     <use xlink:href="#DejaVuSans-34"/>
     <use xlink:href="#DejaVuSans-2e" transform="translate(63.623047 0)"/>
     <use xlink:href="#DejaVuSans-39" transform="translate(95.410156 0)"/>
     <use xlink:href="#DejaVuSans-25" transform="translate(159.033203 0)"/>
    </g>
   </g>
   <g id="text_38">
    <!-- 4.9% -->
    <g style="fill: #262626" transform="translate(761.404466 463.552326) scale(0.07 -0.07)">
     <use xlink:href="#DejaVuSans-34"/>
     <use xlink:href="#DejaVuSans-2e" transform="translate(63.623047 0)"/>
     <use xlink:href="#DejaVuSans-39" transform="translate(95.410156 0)"/>
     <use xlink:href="#DejaVuSans-25" transform="translate(159.033203 0)"/>
    </g>
   </g>
   <g id="text_39">
    <!-- 4.0% -->
    <g style="fill: #262626" transform="translate(661.039795 446.190047) scale(0.07 -0.07)">
     <use xlink:href="#DejaVuSans-34"/>
     <use xlink:href="#DejaVuSans-2e" transform="translate(63.623047 0)"/>
     <use xlink:href="#DejaVuSans-30" transform="translate(95.410156 0)"/>
     <use xlink:href="#DejaVuSans-25" transform="translate(159.033203 0)"/>
    </g>
   </g>
   <g id="text_40">
    <!-- 3.9% -->
    <g style="fill: #262626" transform="translate(651.003328 428.827767) scale(0.07 -0.07)">
     <use xlink:href="#DejaVuSans-33"/>
     <use xlink:href="#DejaVuSans-2e" transform="translate(63.623047 0)"/>
     <use xlink:href="#DejaVuSans-39" transform="translate(95.410156 0)"/>
     <use xlink:href="#DejaVuSans-25" transform="translate(159.033203 0)"/>
    </g>
   </g>
   <g id="text_41">
    <!-- 3.8% -->
    <g style="fill: #262626" transform="translate(640.966861 411.465488) scale(0.07 -0.07)">
     <defs>
      <path id="DejaVuSans-38" d="M 2034 2216 
Q 1584 2216 1326 1975 
Q 1069 1734 1069 1313 
Q 1069 891 1326 650 
Q 1584 409 2034 409 
Q 2484 409 2743 651 
Q 3003 894 3003 1313 
Q 3003 1734 2745 1975 
Q 2488 2216 2034 2216 
z
M 1403 2484 
Q 997 2584 770 2862 
Q 544 3141 544 3541 
Q 544 4100 942 4425 
Q 1341 4750 2034 4750 
Q 2731 4750 3128 4425 
Q 3525 4100 3525 3541 
Q 3525 3141 3298 2862 
Q 3072 2584 2669 2484 
Q 3125 2378 3379 2068 
Q 3634 1759 3634 1313 
Q 3634 634 3220 271 
Q 2806 -91 2034 -91 
Q 1263 -91 848 271 
Q 434 634 434 1313 
Q 434 1759 690 2068 
Q 947 2378 1403 2484 
z
M 1172 3481 
Q 1172 3119 1398 2916 
Q 1625 2713 2034 2713 
Q 2441 2713 2670 2916 
Q 2900 3119 2900 3481 
Q 2900 3844 2670 4047 
Q 2441 4250 2034 4250 
Q 1625 4250 1398 4047 
Q 1172 3844 1172 3481 
z
" transform="scale(0.015625)"/>
     </defs>
     <use xlink:href="#DejaVuSans-33"/>
     <use xlink:href="#DejaVuSans-2e" transform="translate(63.623047 0)"/>
     <use xlink:href="#DejaVuSans-38" transform="translate(95.410156 0)"/>
     <use xlink:href="#DejaVuSans-25" transform="translate(159.033203 0)"/>
    </g>
   </g>
   <g id="text_42">
    <!-- 3.8% -->
    <g style="fill: #262626" transform="translate(640.966861 394.103208) scale(0.07 -0.07)">
     <use xlink:href="#DejaVuSans-33"/>
     <use xlink:href="#DejaVuSans-2e" transform="translate(63.623047 0)"/>
     <use xlink:href="#DejaVuSans-38" transform="translate(95.410156 0)"/>
     <use xlink:href="#DejaVuSans-25" transform="translate(159.033203 0)"/>
    </g>
   </g>
   <g id="text_43">
    <!-- 3.8% -->
    <g style="fill: #262626" transform="translate(640.966861 376.740929) scale(0.07 -0.07)">
     <use xlink:href="#DejaVuSans-33"/>
     <use xlink:href="#DejaVuSans-2e" transform="translate(63.623047 0)"/>
     <use xlink:href="#DejaVuSans-38" transform="translate(95.410156 0)"/>
     <use xlink:href="#DejaVuSans-25" transform="translate(159.033203 0)"/>
    </g>
   </g>
   <g id="text_44">
    <!-- 3.8% -->
    <g style="fill: #262626" transform="translate(640.966861 359.378649) scale(0.07 -0.07)">
     <use xlink:href="#DejaVuSans-33"/>
     <use xlink:href="#DejaVuSans-2e" transform="translate(63.623047 0)"/>
     <use xlink:href="#DejaVuSans-38" transform="translate(95.410156 0)"/>
     <use xlink:href="#DejaVuSans-25" transform="translate(159.033203 0)"/>
    </g>
   </g>
   <g id="text_45">
    <!-- 3.8% -->
    <g style="fill: #262626" transform="translate(640.966861 342.01637) scale(0.07 -0.07)">
     <use xlink:href="#DejaVuSans-33"/>
     <use xlink:href="#DejaVuSans-2e" transform="translate(63.623047 0)"/>
     <use xlink:href="#DejaVuSans-38" transform="translate(95.410156 0)"/>
     <use xlink:href="#DejaVuSans-25" transform="translate(159.033203 0)"/>
    </g>
   </g>
   <g id="text_46">
    <!-- 3.8% -->
    <g style="fill: #262626" transform="translate(640.966861 324.65409) scale(0.07 -0.07)">
     <use xlink:href="#DejaVuSans-33"/>
     <use xlink:href="#DejaVuSans-2e" transform="translate(63.623047 0)"/>
     <use xlink:href="#DejaVuSans-38" transform="translate(95.410156 0)"/>
     <use xlink:href="#DejaVuSans-25" transform="translate(159.033203 0)"/>
    </g>
   </g>
   <g id="text_47">
    <!-- 2.1% -->
    <g style="fill: #262626" transform="translate(450.273985 307.291811) scale(0.07 -0.07)">
     <use xlink:href="#DejaVuSans-32"/>
     <use xlink:href="#DejaVuSans-2e" transform="translate(63.623047 0)"/>
     <use xlink:href="#DejaVuSans-31" transform="translate(95.410156 0)"/>
     <use xlink:href="#DejaVuSans-25" transform="translate(159.033203 0)"/>
    </g>
   </g>
   <g id="text_48">
    <!-- 0.6% -->
    <g style="fill: #262626" transform="translate(289.690511 289.929531) scale(0.07 -0.07)">
     <use xlink:href="#DejaVuSans-30"/>
     <use xlink:href="#DejaVuSans-2e" transform="translate(63.623047 0)"/>
     <use xlink:href="#DejaVuSans-36" transform="translate(95.410156 0)"/>
     <use xlink:href="#DejaVuSans-25" transform="translate(159.033203 0)"/>
    </g>
   </g>
   <g id="text_49">
    <!-- 0.6% -->
    <g style="fill: #262626" transform="translate(289.690511 272.567252) scale(0.07 -0.07)">
     <use xlink:href="#DejaVuSans-30"/>
     <use xlink:href="#DejaVuSans-2e" transform="translate(63.623047 0)"/>
     <use xlink:href="#DejaVuSans-36" transform="translate(95.410156 0)"/>
     <use xlink:href="#DejaVuSans-25" transform="translate(159.033203 0)"/>
    </g>
   </g>
   <g id="text_50">
    <!-- 0.6% -->
    <g style="fill: #262626" transform="translate(289.690511 255.204972) scale(0.07 -0.07)">
     <use xlink:href="#DejaVuSans-30"/>
     <use xlink:href="#DejaVuSans-2e" transform="translate(63.623047 0)"/>
     <use xlink:href="#DejaVuSans-36" transform="translate(95.410156 0)"/>
     <use xlink:href="#DejaVuSans-25" transform="translate(159.033203 0)"/>
    </g>
   </g>
   <g id="text_51">
    <!-- 0.6% -->
    <g style="fill: #262626" transform="translate(289.690511 237.842693) scale(0.07 -0.07)">
     <use xlink:href="#DejaVuSans-30"/>
     <use xlink:href="#DejaVuSans-2e" transform="translate(63.623047 0)"/>
     <use xlink:href="#DejaVuSans-36" transform="translate(95.410156 0)"/>
     <use xlink:href="#DejaVuSans-25" transform="translate(159.033203 0)"/>
    </g>
   </g>
   <g id="text_52">
    <!-- 0.6% -->
    <g style="fill: #262626" transform="translate(289.690511 220.480413) scale(0.07 -0.07)">
     <use xlink:href="#DejaVuSans-30"/>
     <use xlink:href="#DejaVuSans-2e" transform="translate(63.623047 0)"/>
     <use xlink:href="#DejaVuSans-36" transform="translate(95.410156 0)"/>
     <use xlink:href="#DejaVuSans-25" transform="translate(159.033203 0)"/>
    </g>
   </g>
   <g id="text_53">
    <!-- 0.5% -->
    <g style="fill: #262626" transform="translate(279.654044 203.118134) scale(0.07 -0.07)">
     <use xlink:href="#DejaVuSans-30"/>
     <use xlink:href="#DejaVuSans-2e" transform="translate(63.623047 0)"/>
     <use xlink:href="#DejaVuSans-35" transform="translate(95.410156 0)"/>
     <use xlink:href="#DejaVuSans-25" transform="translate(159.033203 0)"/>
    </g>
   </g>
   <g id="text_54">
    <!-- 0.5% -->
    <g style="fill: #262626" transform="translate(279.654044 185.755854) scale(0.07 -0.07)">
     <use xlink:href="#DejaVuSans-30"/>
     <use xlink:href="#DejaVuSans-2e" transform="translate(63.623047 0)"/>
     <use xlink:href="#DejaVuSans-35" transform="translate(95.410156 0)"/>
     <use xlink:href="#DejaVuSans-25" transform="translate(159.033203 0)"/>
    </g>
   </g>
   <g id="text_55">
    <!-- 0.5% -->
    <g style="fill: #262626" transform="translate(279.654044 168.393575) scale(0.07 -0.07)">
     <use xlink:href="#DejaVuSans-30"/>
     <use xlink:href="#DejaVuSans-2e" transform="translate(63.623047 0)"/>
     <use xlink:href="#DejaVuSans-35" transform="translate(95.410156 0)"/>
     <use xlink:href="#DejaVuSans-25" transform="translate(159.033203 0)"/>
    </g>
   </g>
   <g id="text_56">
    <!-- 0.4% -->
    <g style="fill: #262626" transform="translate(269.617577 151.031295) scale(0.07 -0.07)">
     <use xlink:href="#DejaVuSans-30"/>
     <use xlink:href="#DejaVuSans-2e" transform="translate(63.623047 0)"/>
     <use xlink:href="#DejaVuSans-34" transform="translate(95.410156 0)"/>
     <use xlink:href="#DejaVuSans-25" transform="translate(159.033203 0)"/>
    </g>
   </g>
   <g id="text_57">
    <!-- 0.3% -->
    <g style="fill: #262626" transform="translate(259.58111 133.669016) scale(0.07 -0.07)">
     <use xlink:href="#DejaVuSans-30"/>
     <use xlink:href="#DejaVuSans-2e" transform="translate(63.623047 0)"/>
     <use xlink:href="#DejaVuSans-33" transform="translate(95.410156 0)"/>
     <use xlink:href="#DejaVuSans-25" transform="translate(159.033203 0)"/>
    </g>
   </g>
   <g id="text_58">
    <!-- 0.2% -->
    <g style="fill: #262626" transform="translate(249.544643 116.306736) scale(0.07 -0.07)">
     <use xlink:href="#DejaVuSans-30"/>
     <use xlink:href="#DejaVuSans-2e" transform="translate(63.623047 0)"/>
     <use xlink:href="#DejaVuSans-32" transform="translate(95.410156 0)"/>
     <use xlink:href="#DejaVuSans-25" transform="translate(159.033203 0)"/>
    </g>
   </g>
   <g id="text_59">
    <!-- 0.2% -->
    <g style="fill: #262626" transform="translate(249.544643 98.944457) scale(0.07 -0.07)">
     <use xlink:href="#DejaVuSans-30"/>
     <use xlink:href="#DejaVuSans-2e" transform="translate(63.623047 0)"/>
     <use xlink:href="#DejaVuSans-32" transform="translate(95.410156 0)"/>
     <use xlink:href="#DejaVuSans-25" transform="translate(159.033203 0)"/>
    </g>
   </g>
   <g id="text_60">
    <!-- 0.2% -->
    <g style="fill: #262626" transform="translate(249.544643 81.582177) scale(0.07 -0.07)">
     <use xlink:href="#DejaVuSans-30"/>
     <use xlink:href="#DejaVuSans-2e" transform="translate(63.623047 0)"/>
     <use xlink:href="#DejaVuSans-32" transform="translate(95.410156 0)"/>
     <use xlink:href="#DejaVuSans-25" transform="translate(159.033203 0)"/>
    </g>
   </g>
   <g id="text_61">
    <!-- 0.2% -->
    <g style="fill: #262626" transform="translate(249.544643 64.219898) scale(0.07 -0.07)">
     <use xlink:href="#DejaVuSans-30"/>
     <use xlink:href="#DejaVuSans-2e" transform="translate(63.623047 0)"/>
     <use xlink:href="#DejaVuSans-32" transform="translate(95.410156 0)"/>
     <use xlink:href="#DejaVuSans-25" transform="translate(159.033203 0)"/>
    </g>
   </g>
   <g id="text_62">
    <!-- JHB_WRHI_001 - Missing Data by Variable -->
    <g style="fill: #262626" transform="translate(286.829339 17.077969) scale(0.13 -0.13)">
     <defs>
      <path id="DejaVuSans-Bold-4a" d="M 588 4666 
L 1791 4666 
L 1791 453 
Q 1791 -419 1317 -850 
Q 844 -1281 -116 -1281 
L -359 -1281 
L -359 -372 
L -172 -372 
Q 203 -372 395 -162 
Q 588 47 588 453 
L 588 4666 
z
" transform="scale(0.015625)"/>
      <path id="DejaVuSans-Bold-48" d="M 588 4666 
L 1791 4666 
L 1791 2888 
L 3566 2888 
L 3566 4666 
L 4769 4666 
L 4769 0 
L 3566 0 
L 3566 1978 
L 1791 1978 
L 1791 0 
L 588 0 
L 588 4666 
z
" transform="scale(0.015625)"/>
      <path id="DejaVuSans-Bold-42" d="M 2456 2859 
Q 2741 2859 2887 2984 
Q 3034 3109 3034 3353 
Q 3034 3594 2887 3720 
Q 2741 3847 2456 3847 
L 1791 3847 
L 1791 2859 
L 2456 2859 
z
M 2497 819 
Q 2859 819 3042 972 
Q 3225 1125 3225 1434 
Q 3225 1738 3044 1889 
Q 2863 2041 2497 2041 
L 1791 2041 
L 1791 819 
L 2497 819 
z
M 3616 2497 
Q 4003 2384 4215 2081 
Q 4428 1778 4428 1338 
Q 4428 663 3972 331 
Q 3516 0 2584 0 
L 588 0 
L 588 4666 
L 2394 4666 
Q 3366 4666 3802 4372 
Q 4238 4078 4238 3431 
Q 4238 3091 4078 2852 
Q 3919 2613 3616 2497 
z
" transform="scale(0.015625)"/>
      <path id="DejaVuSans-Bold-5f" d="M 3200 -916 
L 3200 -1509 
L 0 -1509 
L 0 -916 
L 3200 -916 
z
" transform="scale(0.015625)"/>
      <path id="DejaVuSans-Bold-57" d="M 191 4666 
L 1344 4666 
L 2150 1275 
L 2950 4666 
L 4109 4666 
L 4909 1275 
L 5716 4666 
L 6859 4666 
L 5759 0 
L 4372 0 
L 3525 3547 
L 2688 0 
L 1300 0 
L 191 4666 
z
" transform="scale(0.015625)"/>
      <path id="DejaVuSans-Bold-52" d="M 2297 2597 
Q 2675 2597 2839 2737 
Q 3003 2878 3003 3200 
Q 3003 3519 2839 3656 
Q 2675 3794 2297 3794 
L 1791 3794 
L 1791 2597 
L 2297 2597 
z
M 1791 1766 
L 1791 0 
L 588 0 
L 588 4666 
L 2425 4666 
Q 3347 4666 3776 4356 
Q 4206 4047 4206 3378 
Q 4206 2916 3982 2619 
Q 3759 2322 3309 2181 
Q 3556 2125 3751 1926 
Q 3947 1728 4147 1325 
L 4800 0 
L 3519 0 
L 2950 1159 
Q 2778 1509 2601 1637 
Q 2425 1766 2131 1766 
L 1791 1766 
z
" transform="scale(0.015625)"/>
      <path id="DejaVuSans-Bold-49" d="M 588 4666 
L 1791 4666 
L 1791 0 
L 588 0 
L 588 4666 
z
" transform="scale(0.015625)"/>
      <path id="DejaVuSans-Bold-30" d="M 2944 2338 
Q 2944 3213 2780 3570 
Q 2616 3928 2228 3928 
Q 1841 3928 1675 3570 
Q 1509 3213 1509 2338 
Q 1509 1453 1675 1090 
Q 1841 728 2228 728 
Q 2613 728 2778 1090 
Q 2944 1453 2944 2338 
z
M 4147 2328 
Q 4147 1169 3647 539 
Q 3147 -91 2228 -91 
Q 1306 -91 806 539 
Q 306 1169 306 2328 
Q 306 3491 806 4120 
Q 1306 4750 2228 4750 
Q 3147 4750 3647 4120 
Q 4147 3491 4147 2328 
z
" transform="scale(0.015625)"/>
      <path id="DejaVuSans-Bold-31" d="M 750 831 
L 1813 831 
L 1813 3847 
L 722 3622 
L 722 4441 
L 1806 4666 
L 2950 4666 
L 2950 831 
L 4013 831 
L 4013 0 
L 750 0 
L 750 831 
z
" transform="scale(0.015625)"/>
      <path id="DejaVuSans-Bold-2d" d="M 347 2297 
L 2309 2297 
L 2309 1388 
L 347 1388 
L 347 2297 
z
" transform="scale(0.015625)"/>
      <path id="DejaVuSans-Bold-62" d="M 2400 722 
Q 2759 722 2948 984 
Q 3138 1247 3138 1747 
Q 3138 2247 2948 2509 
Q 2759 2772 2400 2772 
Q 2041 2772 1848 2508 
Q 1656 2244 1656 1747 
Q 1656 1250 1848 986 
Q 2041 722 2400 722 
z
M 1656 2988 
Q 1888 3294 2169 3439 
Q 2450 3584 2816 3584 
Q 3463 3584 3878 3070 
Q 4294 2556 4294 1747 
Q 4294 938 3878 423 
Q 3463 -91 2816 -91 
Q 2450 -91 2169 54 
Q 1888 200 1656 506 
L 1656 0 
L 538 0 
L 538 4863 
L 1656 4863 
L 1656 2988 
z
" transform="scale(0.015625)"/>
      <path id="DejaVuSans-Bold-79" d="M 78 3500 
L 1197 3500 
L 2138 1125 
L 2938 3500 
L 4056 3500 
L 2584 -331 
Q 2363 -916 2067 -1148 
Q 1772 -1381 1288 -1381 
L 641 -1381 
L 641 -647 
L 991 -647 
Q 1275 -647 1404 -556 
Q 1534 -466 1606 -231 
L 1638 -134 
L 78 3500 
z
" transform="scale(0.015625)"/>
      <path id="DejaVuSans-Bold-56" d="M 31 4666 
L 1241 4666 
L 2478 1222 
L 3713 4666 
L 4922 4666 
L 3194 0 
L 1759 0 
L 31 4666 
z
" transform="scale(0.015625)"/>
      <path id="DejaVuSans-Bold-72" d="M 3138 2547 
Q 2991 2616 2845 2648 
Q 2700 2681 2553 2681 
Q 2122 2681 1889 2404 
Q 1656 2128 1656 1613 
L 1656 0 
L 538 0 
L 538 3500 
L 1656 3500 
L 1656 2925 
Q 1872 3269 2151 3426 
Q 2431 3584 2822 3584 
Q 2878 3584 2943 3579 
Q 3009 3575 3134 3559 
L 3138 2547 
z
" transform="scale(0.015625)"/>
      <path id="DejaVuSans-Bold-6c" d="M 538 4863 
L 1656 4863 
L 1656 0 
L 538 0 
L 538 4863 
z
" transform="scale(0.015625)"/>
      <path id="DejaVuSans-Bold-65" d="M 4031 1759 
L 4031 1441 
L 1416 1441 
Q 1456 1047 1700 850 
Q 1944 653 2381 653 
Q 2734 653 3104 758 
Q 3475 863 3866 1075 
L 3866 213 
Q 3469 63 3072 -14 
Q 2675 -91 2278 -91 
Q 1328 -91 801 392 
Q 275 875 275 1747 
Q 275 2603 792 3093 
Q 1309 3584 2216 3584 
Q 3041 3584 3536 3087 
Q 4031 2591 4031 1759 
z
M 2881 2131 
Q 2881 2450 2695 2645 
Q 2509 2841 2209 2841 
Q 1884 2841 1681 2658 
Q 1478 2475 1428 2131 
L 2881 2131 
z
" transform="scale(0.015625)"/>
     </defs>
     <use xlink:href="#DejaVuSans-Bold-4a"/>
     <use xlink:href="#DejaVuSans-Bold-48" transform="translate(37.207031 0)"/>
     <use xlink:href="#DejaVuSans-Bold-42" transform="translate(120.898438 0)"/>
     <use xlink:href="#DejaVuSans-Bold-5f" transform="translate(197.119141 0)"/>
     <use xlink:href="#DejaVuSans-Bold-57" transform="translate(247.119141 0)"/>
     <use xlink:href="#DejaVuSans-Bold-52" transform="translate(357.421875 0)"/>
     <use xlink:href="#DejaVuSans-Bold-48" transform="translate(434.423828 0)"/>
     <use xlink:href="#DejaVuSans-Bold-49" transform="translate(518.115234 0)"/>
     <use xlink:href="#DejaVuSans-Bold-5f" transform="translate(555.322266 0)"/>
     <use xlink:href="#DejaVuSans-Bold-30" transform="translate(605.322266 0)"/>
     <use xlink:href="#DejaVuSans-Bold-30" transform="translate(674.902344 0)"/>
     <use xlink:href="#DejaVuSans-Bold-31" transform="translate(744.482422 0)"/>
     <use xlink:href="#DejaVuSans-Bold-20" transform="translate(814.0625 0)"/>
     <use xlink:href="#DejaVuSans-Bold-2d" transform="translate(848.876953 0)"/>
     <use xlink:href="#DejaVuSans-Bold-20" transform="translate(890.380859 0)"/>
     <use xlink:href="#DejaVuSans-Bold-4d" transform="translate(925.195312 0)"/>
     <use xlink:href="#DejaVuSans-Bold-69" transform="translate(1024.707031 0)"/>
     <use xlink:href="#DejaVuSans-Bold-73" transform="translate(1058.984375 0)"/>
     <use xlink:href="#DejaVuSans-Bold-73" transform="translate(1118.505859 0)"/>
     <use xlink:href="#DejaVuSans-Bold-69" transform="translate(1178.027344 0)"/>
     <use xlink:href="#DejaVuSans-Bold-6e" transform="translate(1212.304688 0)"/>
     <use xlink:href="#DejaVuSans-Bold-67" transform="translate(1283.496094 0)"/>
     <use xlink:href="#DejaVuSans-Bold-20" transform="translate(1355.078125 0)"/>
     <use xlink:href="#DejaVuSans-Bold-44" transform="translate(1389.892578 0)"/>
     <use xlink:href="#DejaVuSans-Bold-61" transform="translate(1472.900391 0)"/>
     <use xlink:href="#DejaVuSans-Bold-74" transform="translate(1540.380859 0)"/>
     <use xlink:href="#DejaVuSans-Bold-61" transform="translate(1588.183594 0)"/>
     <use xlink:href="#DejaVuSans-Bold-20" transform="translate(1655.664062 0)"/>
     <use xlink:href="#DejaVuSans-Bold-62" transform="translate(1690.478516 0)"/>
     <use xlink:href="#DejaVuSans-Bold-79" transform="translate(1762.060547 0)"/>
     <use xlink:href="#DejaVuSans-Bold-20" transform="translate(1827.246094 0)"/>
     <use xlink:href="#DejaVuSans-Bold-56" transform="translate(1862.060547 0)"/>
     <use xlink:href="#DejaVuSans-Bold-61" transform="translate(1933.953125 0)"/>
     <use xlink:href="#DejaVuSans-Bold-72" transform="translate(2001.433594 0)"/>
     <use xlink:href="#DejaVuSans-Bold-69" transform="translate(2050.75 0)"/>
     <use xlink:href="#DejaVuSans-Bold-61" transform="translate(2085.027344 0)"/>
     <use xlink:href="#DejaVuSans-Bold-62" transform="translate(2152.507812 0)"/>
     <use xlink:href="#DejaVuSans-Bold-6c" transform="translate(2224.089844 0)"/>
     <use xlink:href="#DejaVuSans-Bold-65" transform="translate(2258.367188 0)"/>
    </g>
   </g>
   <g id="legend_1">
    <g id="patch_34">
     <path d="M 645.29696 539.917969 
L 748.57821 539.917969 
Q 750.17821 539.917969 750.17821 538.317969 
L 750.17821 503.890469 
Q 750.17821 502.290469 748.57821 502.290469 
L 645.29696 502.290469 
Q 643.69696 502.290469 643.69696 503.890469 
L 643.69696 538.317969 
Q 643.69696 539.917969 645.29696 539.917969 
z
" style="fill: #ffffff; opacity: 0.8; stroke: #cccccc; stroke-linejoin: miter"/>
    </g>
    <g id="patch_35">
     <path d="M 646.89696 511.569219 
L 662.89696 511.569219 
L 662.89696 505.969219 
L 646.89696 505.969219 
z
" style="fill: #d73027; stroke: #ffffff; stroke-linejoin: miter"/>
    </g>
    <g id="text_63">
     <!-- Severe (&gt;50%) -->
     <g style="fill: #262626" transform="translate(669.29696 511.569219) scale(0.08 -0.08)">
      <defs>
       <path id="DejaVuSans-76" d="M 191 3500 
L 800 3500 
L 1894 563 
L 2988 3500 
L 3597 3500 
L 2284 0 
L 1503 0 
L 191 3500 
z
" transform="scale(0.015625)"/>
       <path id="DejaVuSans-28" d="M 1984 4856 
Q 1566 4138 1362 3434 
Q 1159 2731 1159 2009 
Q 1159 1288 1364 580 
Q 1569 -128 1984 -844 
L 1484 -844 
Q 1016 -109 783 600 
Q 550 1309 550 2009 
Q 550 2706 781 3412 
Q 1013 4119 1484 4856 
L 1984 4856 
z
" transform="scale(0.015625)"/>
       <path id="DejaVuSans-3e" d="M 678 3150 
L 678 3719 
L 4684 2266 
L 4684 1747 
L 678 294 
L 678 863 
L 3897 2003 
L 678 3150 
z
" transform="scale(0.015625)"/>
       <path id="DejaVuSans-29" d="M 513 4856 
L 1013 4856 
Q 1481 4119 1714 3412 
Q 1947 2706 1947 2009 
Q 1947 1309 1714 600 
Q 1481 -109 1013 -844 
L 513 -844 
Q 928 -128 1133 580 
Q 1338 1288 1338 2009 
Q 1338 2731 1133 3434 
Q 928 4138 513 4856 
z
" transform="scale(0.015625)"/>
      </defs>
      <use xlink:href="#DejaVuSans-53"/>
      <use xlink:href="#DejaVuSans-65" transform="translate(63.476562 0)"/>
      <use xlink:href="#DejaVuSans-76" transform="translate(125 0)"/>
      <use xlink:href="#DejaVuSans-65" transform="translate(184.179688 0)"/>
      <use xlink:href="#DejaVuSans-72" transform="translate(245.703125 0)"/>
      <use xlink:href="#DejaVuSans-65" transform="translate(284.566406 0)"/>
      <use xlink:href="#DejaVuSans-20" transform="translate(346.089844 0)"/>
      <use xlink:href="#DejaVuSans-28" transform="translate(377.876953 0)"/>
      <use xlink:href="#DejaVuSans-3e" transform="translate(416.890625 0)"/>
      <use xlink:href="#DejaVuSans-35" transform="translate(500.679688 0)"/>
      <use xlink:href="#DejaVuSans-30" transform="translate(564.302734 0)"/>
      <use xlink:href="#DejaVuSans-25" transform="translate(627.925781 0)"/>
      <use xlink:href="#DejaVuSans-29" transform="translate(722.945312 0)"/>
     </g>
    </g>
    <g id="patch_36">
     <path d="M 646.89696 523.311719 
L 662.89696 523.311719 
L 662.89696 517.711719 
L 646.89696 517.711719 
z
" style="fill: #fee08b; stroke: #ffffff; stroke-linejoin: miter"/>
    </g>
    <g id="text_64">
     <!-- Moderate (10-50%) -->
     <g style="fill: #262626" transform="translate(669.29696 523.311719) scale(0.08 -0.08)">
      <defs>
       <path id="DejaVuSans-2d" d="M 313 2009 
L 1997 2009 
L 1997 1497 
L 313 1497 
L 313 2009 
z
" transform="scale(0.015625)"/>
      </defs>
      <use xlink:href="#DejaVuSans-4d"/>
      <use xlink:href="#DejaVuSans-6f" transform="translate(86.279297 0)"/>
      <use xlink:href="#DejaVuSans-64" transform="translate(147.460938 0)"/>
      <use xlink:href="#DejaVuSans-65" transform="translate(210.9375 0)"/>
      <use xlink:href="#DejaVuSans-72" transform="translate(272.460938 0)"/>
      <use xlink:href="#DejaVuSans-61" transform="translate(313.574219 0)"/>
      <use xlink:href="#DejaVuSans-74" transform="translate(374.853516 0)"/>
      <use xlink:href="#DejaVuSans-65" transform="translate(414.0625 0)"/>
      <use xlink:href="#DejaVuSans-20" transform="translate(475.585938 0)"/>
      <use xlink:href="#DejaVuSans-28" transform="translate(507.373047 0)"/>
      <use xlink:href="#DejaVuSans-31" transform="translate(546.386719 0)"/>
      <use xlink:href="#DejaVuSans-30" transform="translate(610.009766 0)"/>
      <use xlink:href="#DejaVuSans-2d" transform="translate(673.632812 0)"/>
      <use xlink:href="#DejaVuSans-35" transform="translate(709.716797 0)"/>
      <use xlink:href="#DejaVuSans-30" transform="translate(773.339844 0)"/>
      <use xlink:href="#DejaVuSans-25" transform="translate(836.962891 0)"/>
      <use xlink:href="#DejaVuSans-29" transform="translate(931.982422 0)"/>
     </g>
    </g>
    <g id="patch_37">
     <path d="M 646.89696 535.054219 
L 662.89696 535.054219 
L 662.89696 529.454219 
L 646.89696 529.454219 
z
" style="fill: #91cf60; stroke: #ffffff; stroke-linejoin: miter"/>
    </g>
    <g id="text_65">
     <!-- Minor (&lt;10%) -->
     <g style="fill: #262626" transform="translate(669.29696 535.054219) scale(0.08 -0.08)">
      <defs>
       <path id="DejaVuSans-3c" d="M 4684 3150 
L 1459 2003 
L 4684 863 
L 4684 294 
L 678 1747 
L 678 2266 
L 4684 3719 
L 4684 3150 
z
" transform="scale(0.015625)"/>
      </defs>
      <use xlink:href="#DejaVuSans-4d"/>
      <use xlink:href="#DejaVuSans-69" transform="translate(86.279297 0)"/>
      <use xlink:href="#DejaVuSans-6e" transform="translate(114.0625 0)"/>
      <use xlink:href="#DejaVuSans-6f" transform="translate(177.441406 0)"/>
      <use xlink:href="#DejaVuSans-72" transform="translate(238.623047 0)"/>
      <use xlink:href="#DejaVuSans-20" transform="translate(279.736328 0)"/>
      <use xlink:href="#DejaVuSans-28" transform="translate(311.523438 0)"/>
      <use xlink:href="#DejaVuSans-3c" transform="translate(350.537109 0)"/>
      <use xlink:href="#DejaVuSans-31" transform="translate(434.326172 0)"/>
      <use xlink:href="#DejaVuSans-30" transform="translate(497.949219 0)"/>
      <use xlink:href="#DejaVuSans-25" transform="translate(561.572266 0)"/>
      <use xlink:href="#DejaVuSans-29" transform="translate(656.591797 0)"/>
     </g>
    </g>
   </g>
  </g>
 </g>
 <defs>
  <clipPath id="p9512658684">
   <rect x="121.880781" y="32.077969" width="632.297429" height="511.84"/>
  </clipPath>
 </defs>
</svg>
