<?xml version="1.0" encoding="utf-8" standalone="no"?>
<!DOCTYPE svg PUBLIC "-//W3C//DTD SVG 1.1//EN"
  "http://www.w3.org/Graphics/SVG/1.1/DTD/svg11.dtd">
<svg xmlns:xlink="http://www.w3.org/1999/xlink" width="1077.705pt" height="1152pt" viewBox="0 0 1077.705 1152" xmlns="http://www.w3.org/2000/svg" version="1.1">
 <metadata>
  <rdf:RDF xmlns:dc="http://purl.org/dc/elements/1.1/" xmlns:cc="http://creativecommons.org/ns#" xmlns:rdf="http://www.w3.org/1999/02/22-rdf-syntax-ns#">
   <cc:Work>
    <dc:type rdf:resource="http://purl.org/dc/dcmitype/StillImage"/>
    <dc:date>2025-11-18T12:38:16.721103</dc:date>
    <dc:format>image/svg+xml</dc:format>
    <dc:creator>
     <cc:Agent>
      <dc:title>Matplotlib v3.10.0, https://matplotlib.org/</dc:title>
     </cc:Agent>
    </dc:creator>
   </cc:Work>
  </rdf:RDF>
 </metadata>
 <defs>
  <style type="text/css">*{stroke-linejoin: round; stroke-linecap: butt}</style>
 </defs>
 <g id="figure_1">
  <g id="patch_1">
   <path d="M 0 1152 
L 1077.705 1152 
L 1077.705 0 
L 0 0 
z
" style="fill: #ffffff"/>
  </g>
  <g id="axes_1">
   <g id="patch_2">
    <path d="M 48.845 315.45 
L 353.99246 315.45 
L 353.99246 61.84 
L 48.845 61.84 
z
" style="fill: #ffffff"/>
   </g>
   <g id="matplotlib.axis_1">
    <g id="xtick_1">
     <g id="line2d_1">
      <path d="M 88.722225 315.45 
L 88.722225 61.84 
" clip-path="url(#pfadb05a19d)" style="fill: none; stroke: #cccccc; stroke-width: 0.8; stroke-linecap: round"/>
     </g>
     <g id="text_1">
      <!-- −50 -->
      <g style="fill: #262626" transform="translate(80.28035 328.52875) scale(0.08 -0.08)">
       <defs>
        <path id="DejaVuSans-2212" d="M 678 2272 
L 4684 2272 
L 4684 1741 
L 678 1741 
L 678 2272 
z
" transform="scale(0.015625)"/>
        <path id="DejaVuSans-35" d="M 691 4666 
L 3169 4666 
L 3169 4134 
L 1269 4134 
L 1269 2991 
Q 1406 3038 1543 3061 
Q 1681 3084 1819 3084 
Q 2600 3084 3056 2656 
Q 3513 2228 3513 1497 
Q 3513 744 3044 326 
Q 2575 -91 1722 -91 
Q 1428 -91 1123 -41 
Q 819 9 494 109 
L 494 744 
Q 775 591 1075 516 
Q 1375 441 1709 441 
Q 2250 441 2565 725 
Q 2881 1009 2881 1497 
Q 2881 1984 2565 2268 
Q 2250 2553 1709 2553 
Q 1456 2553 1204 2497 
Q 953 2441 691 2322 
L 691 4666 
z
" transform="scale(0.015625)"/>
        <path id="DejaVuSans-30" d="M 2034 4250 
Q 1547 4250 1301 3770 
Q 1056 3291 1056 2328 
Q 1056 1369 1301 889 
Q 1547 409 2034 409 
Q 2525 409 2770 889 
Q 3016 1369 3016 2328 
Q 3016 3291 2770 3770 
Q 2525 4250 2034 4250 
z
M 2034 4750 
Q 2819 4750 3233 4129 
Q 3647 3509 3647 2328 
Q 3647 1150 3233 529 
Q 2819 -91 2034 -91 
Q 1250 -91 836 529 
Q 422 1150 422 2328 
Q 422 3509 836 4129 
Q 1250 4750 2034 4750 
z
" transform="scale(0.015625)"/>
       </defs>
       <use xlink:href="#DejaVuSans-2212"/>
       <use xlink:href="#DejaVuSans-35" transform="translate(83.789062 0)"/>
       <use xlink:href="#DejaVuSans-30" transform="translate(147.412109 0)"/>
      </g>
     </g>
    </g>
    <g id="xtick_2">
     <g id="line2d_2">
      <path d="M 132.067035 315.45 
L 132.067035 61.84 
" clip-path="url(#pfadb05a19d)" style="fill: none; stroke: #cccccc; stroke-width: 0.8; stroke-linecap: round"/>
     </g>
     <g id="text_2">
      <!-- 0 -->
      <g style="fill: #262626" transform="translate(129.522035 328.52875) scale(0.08 -0.08)">
       <use xlink:href="#DejaVuSans-30"/>
      </g>
     </g>
    </g>
    <g id="xtick_3">
     <g id="line2d_3">
      <path d="M 175.411844 315.45 
L 175.411844 61.84 
" clip-path="url(#pfadb05a19d)" style="fill: none; stroke: #cccccc; stroke-width: 0.8; stroke-linecap: round"/>
     </g>
     <g id="text_3">
      <!-- 50 -->
      <g style="fill: #262626" transform="translate(170.321844 328.52875) scale(0.08 -0.08)">
       <use xlink:href="#DejaVuSans-35"/>
       <use xlink:href="#DejaVuSans-30" transform="translate(63.623047 0)"/>
      </g>
     </g>
    </g>
    <g id="xtick_4">
     <g id="line2d_4">
      <path d="M 218.756654 315.45 
L 218.756654 61.84 
" clip-path="url(#pfadb05a19d)" style="fill: none; stroke: #cccccc; stroke-width: 0.8; stroke-linecap: round"/>
     </g>
     <g id="text_4">
      <!-- 100 -->
      <g style="fill: #262626" transform="translate(211.121654 328.52875) scale(0.08 -0.08)">
       <defs>
        <path id="DejaVuSans-31" d="M 794 531 
L 1825 531 
L 1825 4091 
L 703 3866 
L 703 4441 
L 1819 4666 
L 2450 4666 
L 2450 531 
L 3481 531 
L 3481 0 
L 794 0 
L 794 531 
z
" transform="scale(0.015625)"/>
       </defs>
       <use xlink:href="#DejaVuSans-31"/>
       <use xlink:href="#DejaVuSans-30" transform="translate(63.623047 0)"/>
       <use xlink:href="#DejaVuSans-30" transform="translate(127.246094 0)"/>
      </g>
     </g>
    </g>
    <g id="xtick_5">
     <g id="line2d_5">
      <path d="M 262.101463 315.45 
L 262.101463 61.84 
" clip-path="url(#pfadb05a19d)" style="fill: none; stroke: #cccccc; stroke-width: 0.8; stroke-linecap: round"/>
     </g>
     <g id="text_5">
      <!-- 150 -->
      <g style="fill: #262626" transform="translate(254.466463 328.52875) scale(0.08 -0.08)">
       <use xlink:href="#DejaVuSans-31"/>
       <use xlink:href="#DejaVuSans-35" transform="translate(63.623047 0)"/>
       <use xlink:href="#DejaVuSans-30" transform="translate(127.246094 0)"/>
      </g>
     </g>
    </g>
    <g id="xtick_6">
     <g id="line2d_6">
      <path d="M 305.446273 315.45 
L 305.446273 61.84 
" clip-path="url(#pfadb05a19d)" style="fill: none; stroke: #cccccc; stroke-width: 0.8; stroke-linecap: round"/>
     </g>
     <g id="text_6">
      <!-- 200 -->
      <g style="fill: #262626" transform="translate(297.811273 328.52875) scale(0.08 -0.08)">
       <defs>
        <path id="DejaVuSans-32" d="M 1228 531 
L 3431 531 
L 3431 0 
L 469 0 
L 469 531 
Q 828 903 1448 1529 
Q 2069 2156 2228 2338 
Q 2531 2678 2651 2914 
Q 2772 3150 2772 3378 
Q 2772 3750 2511 3984 
Q 2250 4219 1831 4219 
Q 1534 4219 1204 4116 
Q 875 4013 500 3803 
L 500 4441 
Q 881 4594 1212 4672 
Q 1544 4750 1819 4750 
Q 2544 4750 2975 4387 
Q 3406 4025 3406 3419 
Q 3406 3131 3298 2873 
Q 3191 2616 2906 2266 
Q 2828 2175 2409 1742 
Q 1991 1309 1228 531 
z
" transform="scale(0.015625)"/>
       </defs>
       <use xlink:href="#DejaVuSans-32"/>
       <use xlink:href="#DejaVuSans-30" transform="translate(63.623047 0)"/>
       <use xlink:href="#DejaVuSans-30" transform="translate(127.246094 0)"/>
      </g>
     </g>
    </g>
    <g id="xtick_7">
     <g id="line2d_7">
      <path d="M 348.791083 315.45 
L 348.791083 61.84 
" clip-path="url(#pfadb05a19d)" style="fill: none; stroke: #cccccc; stroke-width: 0.8; stroke-linecap: round"/>
     </g>
     <g id="text_7">
      <!-- 250 -->
      <g style="fill: #262626" transform="translate(341.156083 328.52875) scale(0.08 -0.08)">
       <use xlink:href="#DejaVuSans-32"/>
       <use xlink:href="#DejaVuSans-35" transform="translate(63.623047 0)"/>
       <use xlink:href="#DejaVuSans-30" transform="translate(127.246094 0)"/>
      </g>
     </g>
    </g>
   </g>
   <g id="matplotlib.axis_2">
    <g id="ytick_1">
     <g id="line2d_8">
      <path d="M 48.845 315.45 
L 353.99246 315.45 
" clip-path="url(#pfadb05a19d)" style="fill: none; stroke: #cccccc; stroke-opacity: 0.3; stroke-width: 0.8; stroke-linecap: round"/>
     </g>
     <g id="text_8">
      <!-- 0.000 -->
      <g style="fill: #262626" transform="translate(18.9425 318.489375) scale(0.08 -0.08)">
       <defs>
        <path id="DejaVuSans-2e" d="M 684 794 
L 1344 794 
L 1344 0 
L 684 0 
L 684 794 
z
" transform="scale(0.015625)"/>
       </defs>
       <use xlink:href="#DejaVuSans-30"/>
       <use xlink:href="#DejaVuSans-2e" transform="translate(63.623047 0)"/>
       <use xlink:href="#DejaVuSans-30" transform="translate(95.410156 0)"/>
       <use xlink:href="#DejaVuSans-30" transform="translate(159.033203 0)"/>
       <use xlink:href="#DejaVuSans-30" transform="translate(222.65625 0)"/>
      </g>
     </g>
    </g>
    <g id="ytick_2">
     <g id="line2d_9">
      <path d="M 48.845 272.805422 
L 353.99246 272.805422 
" clip-path="url(#pfadb05a19d)" style="fill: none; stroke: #cccccc; stroke-opacity: 0.3; stroke-width: 0.8; stroke-linecap: round"/>
     </g>
     <g id="text_9">
      <!-- 0.005 -->
      <g style="fill: #262626" transform="translate(18.9425 275.844797) scale(0.08 -0.08)">
       <use xlink:href="#DejaVuSans-30"/>
       <use xlink:href="#DejaVuSans-2e" transform="translate(63.623047 0)"/>
       <use xlink:href="#DejaVuSans-30" transform="translate(95.410156 0)"/>
       <use xlink:href="#DejaVuSans-30" transform="translate(159.033203 0)"/>
       <use xlink:href="#DejaVuSans-35" transform="translate(222.65625 0)"/>
      </g>
     </g>
    </g>
    <g id="ytick_3">
     <g id="line2d_10">
      <path d="M 48.845 230.160844 
L 353.99246 230.160844 
" clip-path="url(#pfadb05a19d)" style="fill: none; stroke: #cccccc; stroke-opacity: 0.3; stroke-width: 0.8; stroke-linecap: round"/>
     </g>
     <g id="text_10">
      <!-- 0.010 -->
      <g style="fill: #262626" transform="translate(18.9425 233.200219) scale(0.08 -0.08)">
       <use xlink:href="#DejaVuSans-30"/>
       <use xlink:href="#DejaVuSans-2e" transform="translate(63.623047 0)"/>
       <use xlink:href="#DejaVuSans-30" transform="translate(95.410156 0)"/>
       <use xlink:href="#DejaVuSans-31" transform="translate(159.033203 0)"/>
       <use xlink:href="#DejaVuSans-30" transform="translate(222.65625 0)"/>
      </g>
     </g>
    </g>
    <g id="ytick_4">
     <g id="line2d_11">
      <path d="M 48.845 187.516266 
L 353.99246 187.516266 
" clip-path="url(#pfadb05a19d)" style="fill: none; stroke: #cccccc; stroke-opacity: 0.3; stroke-width: 0.8; stroke-linecap: round"/>
     </g>
     <g id="text_11">
      <!-- 0.015 -->
      <g style="fill: #262626" transform="translate(18.9425 190.555641) scale(0.08 -0.08)">
       <use xlink:href="#DejaVuSans-30"/>
       <use xlink:href="#DejaVuSans-2e" transform="translate(63.623047 0)"/>
       <use xlink:href="#DejaVuSans-30" transform="translate(95.410156 0)"/>
       <use xlink:href="#DejaVuSans-31" transform="translate(159.033203 0)"/>
       <use xlink:href="#DejaVuSans-35" transform="translate(222.65625 0)"/>
      </g>
     </g>
    </g>
    <g id="ytick_5">
     <g id="line2d_12">
      <path d="M 48.845 144.871688 
L 353.99246 144.871688 
" clip-path="url(#pfadb05a19d)" style="fill: none; stroke: #cccccc; stroke-opacity: 0.3; stroke-width: 0.8; stroke-linecap: round"/>
     </g>
     <g id="text_12">
      <!-- 0.020 -->
      <g style="fill: #262626" transform="translate(18.9425 147.911063) scale(0.08 -0.08)">
       <use xlink:href="#DejaVuSans-30"/>
       <use xlink:href="#DejaVuSans-2e" transform="translate(63.623047 0)"/>
       <use xlink:href="#DejaVuSans-30" transform="translate(95.410156 0)"/>
       <use xlink:href="#DejaVuSans-32" transform="translate(159.033203 0)"/>
       <use xlink:href="#DejaVuSans-30" transform="translate(222.65625 0)"/>
      </g>
     </g>
    </g>
    <g id="ytick_6">
     <g id="line2d_13">
      <path d="M 48.845 102.22711 
L 353.99246 102.22711 
" clip-path="url(#pfadb05a19d)" style="fill: none; stroke: #cccccc; stroke-opacity: 0.3; stroke-width: 0.8; stroke-linecap: round"/>
     </g>
     <g id="text_13">
      <!-- 0.025 -->
      <g style="fill: #262626" transform="translate(18.9425 105.266485) scale(0.08 -0.08)">
       <use xlink:href="#DejaVuSans-30"/>
       <use xlink:href="#DejaVuSans-2e" transform="translate(63.623047 0)"/>
       <use xlink:href="#DejaVuSans-30" transform="translate(95.410156 0)"/>
       <use xlink:href="#DejaVuSans-32" transform="translate(159.033203 0)"/>
       <use xlink:href="#DejaVuSans-35" transform="translate(222.65625 0)"/>
      </g>
     </g>
    </g>
    <g id="text_14">
     <!-- Density / Frequency -->
     <g style="fill: #262626" transform="translate(13.27875 228.405625) rotate(-90) scale(0.08 -0.08)">
      <defs>
       <path id="DejaVuSans-44" d="M 1259 4147 
L 1259 519 
L 2022 519 
Q 2988 519 3436 956 
Q 3884 1394 3884 2338 
Q 3884 3275 3436 3711 
Q 2988 4147 2022 4147 
L 1259 4147 
z
M 628 4666 
L 1925 4666 
Q 3281 4666 3915 4102 
Q 4550 3538 4550 2338 
Q 4550 1131 3912 565 
Q 3275 0 1925 0 
L 628 0 
L 628 4666 
z
" transform="scale(0.015625)"/>
       <path id="DejaVuSans-65" d="M 3597 1894 
L 3597 1613 
L 953 1613 
Q 991 1019 1311 708 
Q 1631 397 2203 397 
Q 2534 397 2845 478 
Q 3156 559 3463 722 
L 3463 178 
Q 3153 47 2828 -22 
Q 2503 -91 2169 -91 
Q 1331 -91 842 396 
Q 353 884 353 1716 
Q 353 2575 817 3079 
Q 1281 3584 2069 3584 
Q 2775 3584 3186 3129 
Q 3597 2675 3597 1894 
z
M 3022 2063 
Q 3016 2534 2758 2815 
Q 2500 3097 2075 3097 
Q 1594 3097 1305 2825 
Q 1016 2553 972 2059 
L 3022 2063 
z
" transform="scale(0.015625)"/>
       <path id="DejaVuSans-6e" d="M 3513 2113 
L 3513 0 
L 2938 0 
L 2938 2094 
Q 2938 2591 2744 2837 
Q 2550 3084 2163 3084 
Q 1697 3084 1428 2787 
Q 1159 2491 1159 1978 
L 1159 0 
L 581 0 
L 581 3500 
L 1159 3500 
L 1159 2956 
Q 1366 3272 1645 3428 
Q 1925 3584 2291 3584 
Q 2894 3584 3203 3211 
Q 3513 2838 3513 2113 
z
" transform="scale(0.015625)"/>
       <path id="DejaVuSans-73" d="M 2834 3397 
L 2834 2853 
Q 2591 2978 2328 3040 
Q 2066 3103 1784 3103 
Q 1356 3103 1142 2972 
Q 928 2841 928 2578 
Q 928 2378 1081 2264 
Q 1234 2150 1697 2047 
L 1894 2003 
Q 2506 1872 2764 1633 
Q 3022 1394 3022 966 
Q 3022 478 2636 193 
Q 2250 -91 1575 -91 
Q 1294 -91 989 -36 
Q 684 19 347 128 
L 347 722 
Q 666 556 975 473 
Q 1284 391 1588 391 
Q 1994 391 2212 530 
Q 2431 669 2431 922 
Q 2431 1156 2273 1281 
Q 2116 1406 1581 1522 
L 1381 1569 
Q 847 1681 609 1914 
Q 372 2147 372 2553 
Q 372 3047 722 3315 
Q 1072 3584 1716 3584 
Q 2034 3584 2315 3537 
Q 2597 3491 2834 3397 
z
" transform="scale(0.015625)"/>
       <path id="DejaVuSans-69" d="M 603 3500 
L 1178 3500 
L 1178 0 
L 603 0 
L 603 3500 
z
M 603 4863 
L 1178 4863 
L 1178 4134 
L 603 4134 
L 603 4863 
z
" transform="scale(0.015625)"/>
       <path id="DejaVuSans-74" d="M 1172 4494 
L 1172 3500 
L 2356 3500 
L 2356 3053 
L 1172 3053 
L 1172 1153 
Q 1172 725 1289 603 
Q 1406 481 1766 481 
L 2356 481 
L 2356 0 
L 1766 0 
Q 1100 0 847 248 
Q 594 497 594 1153 
L 594 3053 
L 172 3053 
L 172 3500 
L 594 3500 
L 594 4494 
L 1172 4494 
z
" transform="scale(0.015625)"/>
       <path id="DejaVuSans-79" d="M 2059 -325 
Q 1816 -950 1584 -1140 
Q 1353 -1331 966 -1331 
L 506 -1331 
L 506 -850 
L 844 -850 
Q 1081 -850 1212 -737 
Q 1344 -625 1503 -206 
L 1606 56 
L 191 3500 
L 800 3500 
L 1894 763 
L 2988 3500 
L 3597 3500 
L 2059 -325 
z
" transform="scale(0.015625)"/>
       <path id="DejaVuSans-20" transform="scale(0.015625)"/>
       <path id="DejaVuSans-2f" d="M 1625 4666 
L 2156 4666 
L 531 -594 
L 0 -594 
L 1625 4666 
z
" transform="scale(0.015625)"/>
       <path id="DejaVuSans-46" d="M 628 4666 
L 3309 4666 
L 3309 4134 
L 1259 4134 
L 1259 2759 
L 3109 2759 
L 3109 2228 
L 1259 2228 
L 1259 0 
L 628 0 
L 628 4666 
z
" transform="scale(0.015625)"/>
       <path id="DejaVuSans-72" d="M 2631 2963 
Q 2534 3019 2420 3045 
Q 2306 3072 2169 3072 
Q 1681 3072 1420 2755 
Q 1159 2438 1159 1844 
L 1159 0 
L 581 0 
L 581 3500 
L 1159 3500 
L 1159 2956 
Q 1341 3275 1631 3429 
Q 1922 3584 2338 3584 
Q 2397 3584 2469 3576 
Q 2541 3569 2628 3553 
L 2631 2963 
z
" transform="scale(0.015625)"/>
       <path id="DejaVuSans-71" d="M 947 1747 
Q 947 1113 1208 752 
Q 1469 391 1925 391 
Q 2381 391 2643 752 
Q 2906 1113 2906 1747 
Q 2906 2381 2643 2742 
Q 2381 3103 1925 3103 
Q 1469 3103 1208 2742 
Q 947 2381 947 1747 
z
M 2906 525 
Q 2725 213 2448 61 
Q 2172 -91 1784 -91 
Q 1150 -91 751 415 
Q 353 922 353 1747 
Q 353 2572 751 3078 
Q 1150 3584 1784 3584 
Q 2172 3584 2448 3432 
Q 2725 3281 2906 2969 
L 2906 3500 
L 3481 3500 
L 3481 -1331 
L 2906 -1331 
L 2906 525 
z
" transform="scale(0.015625)"/>
       <path id="DejaVuSans-75" d="M 544 1381 
L 544 3500 
L 1119 3500 
L 1119 1403 
Q 1119 906 1312 657 
Q 1506 409 1894 409 
Q 2359 409 2629 706 
Q 2900 1003 2900 1516 
L 2900 3500 
L 3475 3500 
L 3475 0 
L 2900 0 
L 2900 538 
Q 2691 219 2414 64 
Q 2138 -91 1772 -91 
Q 1169 -91 856 284 
Q 544 659 544 1381 
z
M 1991 3584 
L 1991 3584 
z
" transform="scale(0.015625)"/>
       <path id="DejaVuSans-63" d="M 3122 3366 
L 3122 2828 
Q 2878 2963 2633 3030 
Q 2388 3097 2138 3097 
Q 1578 3097 1268 2742 
Q 959 2388 959 1747 
Q 959 1106 1268 751 
Q 1578 397 2138 397 
Q 2388 397 2633 464 
Q 2878 531 3122 666 
L 3122 134 
Q 2881 22 2623 -34 
Q 2366 -91 2075 -91 
Q 1284 -91 818 406 
Q 353 903 353 1747 
Q 353 2603 823 3093 
Q 1294 3584 2113 3584 
Q 2378 3584 2631 3529 
Q 2884 3475 3122 3366 
z
" transform="scale(0.015625)"/>
      </defs>
      <use xlink:href="#DejaVuSans-44"/>
      <use xlink:href="#DejaVuSans-65" transform="translate(77.001953 0)"/>
      <use xlink:href="#DejaVuSans-6e" transform="translate(138.525391 0)"/>
      <use xlink:href="#DejaVuSans-73" transform="translate(201.904297 0)"/>
      <use xlink:href="#DejaVuSans-69" transform="translate(254.003906 0)"/>
      <use xlink:href="#DejaVuSans-74" transform="translate(281.787109 0)"/>
      <use xlink:href="#DejaVuSans-79" transform="translate(320.996094 0)"/>
      <use xlink:href="#DejaVuSans-20" transform="translate(380.175781 0)"/>
      <use xlink:href="#DejaVuSans-2f" transform="translate(411.962891 0)"/>
      <use xlink:href="#DejaVuSans-20" transform="translate(445.654297 0)"/>
      <use xlink:href="#DejaVuSans-46" transform="translate(477.441406 0)"/>
      <use xlink:href="#DejaVuSans-72" transform="translate(527.710938 0)"/>
      <use xlink:href="#DejaVuSans-65" transform="translate(566.574219 0)"/>
      <use xlink:href="#DejaVuSans-71" transform="translate(628.097656 0)"/>
      <use xlink:href="#DejaVuSans-75" transform="translate(691.574219 0)"/>
      <use xlink:href="#DejaVuSans-65" transform="translate(754.953125 0)"/>
      <use xlink:href="#DejaVuSans-6e" transform="translate(816.476562 0)"/>
      <use xlink:href="#DejaVuSans-63" transform="translate(879.855469 0)"/>
      <use xlink:href="#DejaVuSans-79" transform="translate(934.835938 0)"/>
     </g>
    </g>
   </g>
   <g id="patch_3">
    <path d="M 132.067035 315.45 
L 136.690481 315.45 
L 136.690481 301.242157 
L 132.067035 301.242157 
z
" clip-path="url(#pfadb05a19d)" style="fill: #4682b4; opacity: 0.6; stroke: #000000; stroke-linejoin: miter"/>
   </g>
   <g id="patch_4">
    <path d="M 136.690481 315.45 
L 141.313927 315.45 
L 141.313927 315.45 
L 136.690481 315.45 
z
" clip-path="url(#pfadb05a19d)" style="fill: #4682b4; opacity: 0.6; stroke: #000000; stroke-linejoin: miter"/>
   </g>
   <g id="patch_5">
    <path d="M 141.313927 315.45 
L 145.937374 315.45 
L 145.937374 315.45 
L 141.313927 315.45 
z
" clip-path="url(#pfadb05a19d)" style="fill: #4682b4; opacity: 0.6; stroke: #000000; stroke-linejoin: miter"/>
   </g>
   <g id="patch_6">
    <path d="M 145.937374 315.45 
L 150.56082 315.45 
L 150.56082 315.45 
L 145.937374 315.45 
z
" clip-path="url(#pfadb05a19d)" style="fill: #4682b4; opacity: 0.6; stroke: #000000; stroke-linejoin: miter"/>
   </g>
   <g id="patch_7">
    <path d="M 150.56082 315.45 
L 155.184266 315.45 
L 155.184266 315.45 
L 150.56082 315.45 
z
" clip-path="url(#pfadb05a19d)" style="fill: #4682b4; opacity: 0.6; stroke: #000000; stroke-linejoin: miter"/>
   </g>
   <g id="patch_8">
    <path d="M 155.184266 315.45 
L 159.807713 315.45 
L 159.807713 315.45 
L 155.184266 315.45 
z
" clip-path="url(#pfadb05a19d)" style="fill: #4682b4; opacity: 0.6; stroke: #000000; stroke-linejoin: miter"/>
   </g>
   <g id="patch_9">
    <path d="M 159.807713 315.45 
L 164.431159 315.45 
L 164.431159 315.45 
L 159.807713 315.45 
z
" clip-path="url(#pfadb05a19d)" style="fill: #4682b4; opacity: 0.6; stroke: #000000; stroke-linejoin: miter"/>
   </g>
   <g id="patch_10">
    <path d="M 164.431159 315.45 
L 169.054605 315.45 
L 169.054605 315.45 
L 164.431159 315.45 
z
" clip-path="url(#pfadb05a19d)" style="fill: #4682b4; opacity: 0.6; stroke: #000000; stroke-linejoin: miter"/>
   </g>
   <g id="patch_11">
    <path d="M 169.054605 315.45 
L 173.678052 315.45 
L 173.678052 315.45 
L 169.054605 315.45 
z
" clip-path="url(#pfadb05a19d)" style="fill: #4682b4; opacity: 0.6; stroke: #000000; stroke-linejoin: miter"/>
   </g>
   <g id="patch_12">
    <path d="M 173.678052 315.45 
L 178.301498 315.45 
L 178.301498 315.45 
L 173.678052 315.45 
z
" clip-path="url(#pfadb05a19d)" style="fill: #4682b4; opacity: 0.6; stroke: #000000; stroke-linejoin: miter"/>
   </g>
   <g id="patch_13">
    <path d="M 178.301498 315.45 
L 182.924944 315.45 
L 182.924944 315.45 
L 178.301498 315.45 
z
" clip-path="url(#pfadb05a19d)" style="fill: #4682b4; opacity: 0.6; stroke: #000000; stroke-linejoin: miter"/>
   </g>
   <g id="patch_14">
    <path d="M 182.924944 315.45 
L 187.548391 315.45 
L 187.548391 309.135403 
L 182.924944 309.135403 
z
" clip-path="url(#pfadb05a19d)" style="fill: #4682b4; opacity: 0.6; stroke: #000000; stroke-linejoin: miter"/>
   </g>
   <g id="patch_15">
    <path d="M 187.548391 315.45 
L 192.171837 315.45 
L 192.171837 290.191612 
L 187.548391 290.191612 
z
" clip-path="url(#pfadb05a19d)" style="fill: #4682b4; opacity: 0.6; stroke: #000000; stroke-linejoin: miter"/>
   </g>
   <g id="patch_16">
    <path d="M 192.171837 315.45 
L 196.795284 315.45 
L 196.795284 244.410784 
L 192.171837 244.410784 
z
" clip-path="url(#pfadb05a19d)" style="fill: #4682b4; opacity: 0.6; stroke: #000000; stroke-linejoin: miter"/>
   </g>
   <g id="patch_17">
    <path d="M 196.795284 315.45 
L 201.41873 315.45 
L 201.41873 181.264815 
L 196.795284 181.264815 
z
" clip-path="url(#pfadb05a19d)" style="fill: #4682b4; opacity: 0.6; stroke: #000000; stroke-linejoin: miter"/>
   </g>
   <g id="patch_18">
    <path d="M 201.41873 315.45 
L 206.042176 315.45 
L 206.042176 143.377233 
L 201.41873 143.377233 
z
" clip-path="url(#pfadb05a19d)" style="fill: #4682b4; opacity: 0.6; stroke: #000000; stroke-linejoin: miter"/>
   </g>
   <g id="patch_19">
    <path d="M 206.042176 315.45 
L 210.665623 315.45 
L 210.665623 137.062636 
L 206.042176 137.062636 
z
" clip-path="url(#pfadb05a19d)" style="fill: #4682b4; opacity: 0.6; stroke: #000000; stroke-linejoin: miter"/>
   </g>
   <g id="patch_20">
    <path d="M 210.665623 315.45 
L 215.289069 315.45 
L 215.289069 78.652614 
L 210.665623 78.652614 
z
" clip-path="url(#pfadb05a19d)" style="fill: #4682b4; opacity: 0.6; stroke: #000000; stroke-linejoin: miter"/>
   </g>
   <g id="patch_21">
    <path d="M 215.289069 315.45 
L 219.912515 315.45 
L 219.912515 73.916667 
L 215.289069 73.916667 
z
" clip-path="url(#pfadb05a19d)" style="fill: #4682b4; opacity: 0.6; stroke: #000000; stroke-linejoin: miter"/>
   </g>
   <g id="patch_22">
    <path d="M 219.912515 315.45 
L 224.535962 315.45 
L 224.535962 129.16939 
L 219.912515 129.16939 
z
" clip-path="url(#pfadb05a19d)" style="fill: #4682b4; opacity: 0.6; stroke: #000000; stroke-linejoin: miter"/>
   </g>
   <g id="patch_23">
    <path d="M 224.535962 315.45 
L 229.159408 315.45 
L 229.159408 190.73671 
L 224.535962 190.73671 
z
" clip-path="url(#pfadb05a19d)" style="fill: #4682b4; opacity: 0.6; stroke: #000000; stroke-linejoin: miter"/>
   </g>
   <g id="patch_24">
    <path d="M 229.159408 315.45 
L 233.782854 315.45 
L 233.782854 220.731046 
L 229.159408 220.731046 
z
" clip-path="url(#pfadb05a19d)" style="fill: #4682b4; opacity: 0.6; stroke: #000000; stroke-linejoin: miter"/>
   </g>
   <g id="patch_25">
    <path d="M 233.782854 315.45 
L 238.406301 315.45 
L 238.406301 264.933224 
L 233.782854 264.933224 
z
" clip-path="url(#pfadb05a19d)" style="fill: #4682b4; opacity: 0.6; stroke: #000000; stroke-linejoin: miter"/>
   </g>
   <g id="patch_26">
    <path d="M 238.406301 315.45 
L 243.029747 315.45 
L 243.029747 287.034314 
L 238.406301 287.034314 
z
" clip-path="url(#pfadb05a19d)" style="fill: #4682b4; opacity: 0.6; stroke: #000000; stroke-linejoin: miter"/>
   </g>
   <g id="patch_27">
    <path d="M 243.029747 315.45 
L 247.653194 315.45 
L 247.653194 298.084858 
L 243.029747 298.084858 
z
" clip-path="url(#pfadb05a19d)" style="fill: #4682b4; opacity: 0.6; stroke: #000000; stroke-linejoin: miter"/>
   </g>
   <g id="patch_28">
    <path d="M 247.653194 315.45 
L 252.27664 315.45 
L 252.27664 309.135403 
L 247.653194 309.135403 
z
" clip-path="url(#pfadb05a19d)" style="fill: #4682b4; opacity: 0.6; stroke: #000000; stroke-linejoin: miter"/>
   </g>
   <g id="patch_29">
    <path d="M 252.27664 315.45 
L 256.900086 315.45 
L 256.900086 310.714052 
L 252.27664 310.714052 
z
" clip-path="url(#pfadb05a19d)" style="fill: #4682b4; opacity: 0.6; stroke: #000000; stroke-linejoin: miter"/>
   </g>
   <g id="patch_30">
    <path d="M 256.900086 315.45 
L 261.523533 315.45 
L 261.523533 312.292702 
L 256.900086 312.292702 
z
" clip-path="url(#pfadb05a19d)" style="fill: #4682b4; opacity: 0.6; stroke: #000000; stroke-linejoin: miter"/>
   </g>
   <g id="patch_31">
    <path d="M 261.523533 315.45 
L 266.146979 315.45 
L 266.146979 313.871351 
L 261.523533 313.871351 
z
" clip-path="url(#pfadb05a19d)" style="fill: #4682b4; opacity: 0.6; stroke: #000000; stroke-linejoin: miter"/>
   </g>
   <g id="patch_32">
    <path d="M 266.146979 315.45 
L 270.770425 315.45 
L 270.770425 313.871351 
L 266.146979 313.871351 
z
" clip-path="url(#pfadb05a19d)" style="fill: #4682b4; opacity: 0.6; stroke: #000000; stroke-linejoin: miter"/>
   </g>
   <g id="line2d_14">
    <path d="M 62.715339 315.45 
L 121.306761 315.3419 
L 122.972868 315.093556 
L 124.083606 314.743485 
L 125.194344 314.168849 
L 126.305082 313.324662 
L 127.693504 311.919308 
L 130.192664 309.249189 
L 131.025718 308.68145 
L 131.858771 308.422489 
L 132.41414 308.442007 
L 133.247193 308.756331 
L 134.080247 309.36874 
L 135.190985 310.499911 
L 137.690145 313.199967 
L 138.800883 314.078511 
L 139.911621 314.685205 
L 141.022359 315.059837 
L 142.410781 315.301571 
L 144.632257 315.426322 
L 151.574368 315.449992 
L 175.455232 315.351178 
L 177.399024 315.107521 
L 178.787446 314.719354 
L 179.898184 314.200127 
L 181.008922 313.422359 
L 182.11966 312.300976 
L 182.952713 311.167283 
L 183.785766 309.713349 
L 184.61882 307.859937 
L 185.451873 305.514337 
L 186.284927 302.577832 
L 187.11798 298.958382 
L 188.228718 292.954687 
L 189.339456 285.558039 
L 190.727878 274.49244 
L 192.393985 259.105782 
L 194.615461 236.3648 
L 199.613781 184.237418 
L 201.002203 172.194437 
L 202.390626 161.983033 
L 204.056732 151.565059 
L 206.555893 136.199737 
L 207.944315 126.162191 
L 210.165791 108.054083 
L 211.831897 95.324872 
L 212.942635 88.743936 
L 213.775689 85.290226 
L 214.331058 83.801443 
L 214.886427 83.005833 
L 215.164111 82.874939 
L 215.441795 82.924217 
L 215.71948 83.154541 
L 216.274849 84.159064 
L 216.830218 85.885113 
L 217.385587 88.321989 
L 218.21864 93.268066 
L 219.051694 99.670912 
L 220.162431 110.190796 
L 221.550854 125.686743 
L 225.438436 170.537648 
L 227.104543 186.583771 
L 232.658232 235.964982 
L 234.324339 249.309205 
L 235.712762 258.82761 
L 237.101184 266.991561 
L 238.767291 275.495664 
L 240.433397 282.897906 
L 241.82182 288.11383 
L 242.932558 291.551335 
L 244.043296 294.352616 
L 245.431718 297.185971 
L 249.3193 304.131816 
L 250.985407 306.90951 
L 252.096145 308.420508 
L 253.206883 309.573497 
L 254.317621 310.393262 
L 255.706043 311.086673 
L 258.205203 311.978509 
L 264.036577 313.867666 
L 265.980368 314.24442 
L 268.201844 314.440165 
L 272.92248 314.759999 
L 278.476169 315.357955 
L 282.363752 315.443862 
L 307.633038 315.45 
L 340.122121 315.45 
L 340.122121 315.45 
" clip-path="url(#pfadb05a19d)" style="fill: none; stroke: #ff0000; stroke-width: 2; stroke-linecap: round"/>
   </g>
   <g id="patch_33">
    <path d="M 48.845 315.45 
L 48.845 61.84 
" style="fill: none; stroke: #cccccc; stroke-width: 0.8; stroke-linejoin: miter; stroke-linecap: square"/>
   </g>
   <g id="patch_34">
    <path d="M 353.99246 315.45 
L 353.99246 61.84 
" style="fill: none; stroke: #cccccc; stroke-width: 0.8; stroke-linejoin: miter; stroke-linecap: square"/>
   </g>
   <g id="patch_35">
    <path d="M 48.845 315.45 
L 353.99246 315.45 
" style="fill: none; stroke: #cccccc; stroke-width: 0.8; stroke-linejoin: miter; stroke-linecap: square"/>
   </g>
   <g id="patch_36">
    <path d="M 48.845 61.84 
L 353.99246 61.84 
" style="fill: none; stroke: #cccccc; stroke-width: 0.8; stroke-linejoin: miter; stroke-linecap: square"/>
   </g>
   <g id="text_15">
    <g id="patch_37">
     <path d="M 281.548104 109.676863 
L 347.889511 109.676863 
Q 349.989511 109.676863 349.989511 107.576863 
L 349.989511 69.4483 
Q 349.989511 67.3483 347.889511 67.3483 
L 281.548104 67.3483 
Q 279.448104 67.3483 279.448104 69.4483 
L 279.448104 107.576863 
Q 279.448104 109.676863 281.548104 109.676863 
z
" style="fill: #f5deb3; opacity: 0.5; stroke: #ffffff; stroke-linejoin: miter"/>
    </g>
    <!-- N = 1013 -->
    <g style="fill: #262626" transform="translate(314.522479 74.767206) scale(0.07 -0.07)">
     <defs>
      <path id="DejaVuSans-4e" d="M 628 4666 
L 1478 4666 
L 3547 763 
L 3547 4666 
L 4159 4666 
L 4159 0 
L 3309 0 
L 1241 3903 
L 1241 0 
L 628 0 
L 628 4666 
z
" transform="scale(0.015625)"/>
      <path id="DejaVuSans-3d" d="M 678 2906 
L 4684 2906 
L 4684 2381 
L 678 2381 
L 678 2906 
z
M 678 1631 
L 4684 1631 
L 4684 1100 
L 678 1100 
L 678 1631 
z
" transform="scale(0.015625)"/>
      <path id="DejaVuSans-33" d="M 2597 2516 
Q 3050 2419 3304 2112 
Q 3559 1806 3559 1356 
Q 3559 666 3084 287 
Q 2609 -91 1734 -91 
Q 1441 -91 1130 -33 
Q 819 25 488 141 
L 488 750 
Q 750 597 1062 519 
Q 1375 441 1716 441 
Q 2309 441 2620 675 
Q 2931 909 2931 1356 
Q 2931 1769 2642 2001 
Q 2353 2234 1838 2234 
L 1294 2234 
L 1294 2753 
L 1863 2753 
Q 2328 2753 2575 2939 
Q 2822 3125 2822 3475 
Q 2822 3834 2567 4026 
Q 2313 4219 1838 4219 
Q 1578 4219 1281 4162 
Q 984 4106 628 3988 
L 628 4550 
Q 988 4650 1302 4700 
Q 1616 4750 1894 4750 
Q 2613 4750 3031 4423 
Q 3450 4097 3450 3541 
Q 3450 3153 3228 2886 
Q 3006 2619 2597 2516 
z
" transform="scale(0.015625)"/>
     </defs>
     <use xlink:href="#DejaVuSans-4e"/>
     <use xlink:href="#DejaVuSans-20" transform="translate(74.804688 0)"/>
     <use xlink:href="#DejaVuSans-3d" transform="translate(106.591797 0)"/>
     <use xlink:href="#DejaVuSans-20" transform="translate(190.380859 0)"/>
     <use xlink:href="#DejaVuSans-31" transform="translate(222.167969 0)"/>
     <use xlink:href="#DejaVuSans-30" transform="translate(285.791016 0)"/>
     <use xlink:href="#DejaVuSans-31" transform="translate(349.414062 0)"/>
     <use xlink:href="#DejaVuSans-33" transform="translate(413.037109 0)"/>
    </g>
    <!-- Mean = 94.79 -->
    <g style="fill: #262626" transform="translate(298.461854 82.605675) scale(0.07 -0.07)">
     <defs>
      <path id="DejaVuSans-4d" d="M 628 4666 
L 1569 4666 
L 2759 1491 
L 3956 4666 
L 4897 4666 
L 4897 0 
L 4281 0 
L 4281 4097 
L 3078 897 
L 2444 897 
L 1241 4097 
L 1241 0 
L 628 0 
L 628 4666 
z
" transform="scale(0.015625)"/>
      <path id="DejaVuSans-61" d="M 2194 1759 
Q 1497 1759 1228 1600 
Q 959 1441 959 1056 
Q 959 750 1161 570 
Q 1363 391 1709 391 
Q 2188 391 2477 730 
Q 2766 1069 2766 1631 
L 2766 1759 
L 2194 1759 
z
M 3341 1997 
L 3341 0 
L 2766 0 
L 2766 531 
Q 2569 213 2275 61 
Q 1981 -91 1556 -91 
Q 1019 -91 701 211 
Q 384 513 384 1019 
Q 384 1609 779 1909 
Q 1175 2209 1959 2209 
L 2766 2209 
L 2766 2266 
Q 2766 2663 2505 2880 
Q 2244 3097 1772 3097 
Q 1472 3097 1187 3025 
Q 903 2953 641 2809 
L 641 3341 
Q 956 3463 1253 3523 
Q 1550 3584 1831 3584 
Q 2591 3584 2966 3190 
Q 3341 2797 3341 1997 
z
" transform="scale(0.015625)"/>
      <path id="DejaVuSans-39" d="M 703 97 
L 703 672 
Q 941 559 1184 500 
Q 1428 441 1663 441 
Q 2288 441 2617 861 
Q 2947 1281 2994 2138 
Q 2813 1869 2534 1725 
Q 2256 1581 1919 1581 
Q 1219 1581 811 2004 
Q 403 2428 403 3163 
Q 403 3881 828 4315 
Q 1253 4750 1959 4750 
Q 2769 4750 3195 4129 
Q 3622 3509 3622 2328 
Q 3622 1225 3098 567 
Q 2575 -91 1691 -91 
Q 1453 -91 1209 -44 
Q 966 3 703 97 
z
M 1959 2075 
Q 2384 2075 2632 2365 
Q 2881 2656 2881 3163 
Q 2881 3666 2632 3958 
Q 2384 4250 1959 4250 
Q 1534 4250 1286 3958 
Q 1038 3666 1038 3163 
Q 1038 2656 1286 2365 
Q 1534 2075 1959 2075 
z
" transform="scale(0.015625)"/>
      <path id="DejaVuSans-34" d="M 2419 4116 
L 825 1625 
L 2419 1625 
L 2419 4116 
z
M 2253 4666 
L 3047 4666 
L 3047 1625 
L 3713 1625 
L 3713 1100 
L 3047 1100 
L 3047 0 
L 2419 0 
L 2419 1100 
L 313 1100 
L 313 1709 
L 2253 4666 
z
" transform="scale(0.015625)"/>
      <path id="DejaVuSans-37" d="M 525 4666 
L 3525 4666 
L 3525 4397 
L 1831 0 
L 1172 0 
L 2766 4134 
L 525 4134 
L 525 4666 
z
" transform="scale(0.015625)"/>
     </defs>
     <use xlink:href="#DejaVuSans-4d"/>
     <use xlink:href="#DejaVuSans-65" transform="translate(86.279297 0)"/>
     <use xlink:href="#DejaVuSans-61" transform="translate(147.802734 0)"/>
     <use xlink:href="#DejaVuSans-6e" transform="translate(209.082031 0)"/>
     <use xlink:href="#DejaVuSans-20" transform="translate(272.460938 0)"/>
     <use xlink:href="#DejaVuSans-3d" transform="translate(304.248047 0)"/>
     <use xlink:href="#DejaVuSans-20" transform="translate(388.037109 0)"/>
     <use xlink:href="#DejaVuSans-39" transform="translate(419.824219 0)"/>
     <use xlink:href="#DejaVuSans-34" transform="translate(483.447266 0)"/>
     <use xlink:href="#DejaVuSans-2e" transform="translate(547.070312 0)"/>
     <use xlink:href="#DejaVuSans-37" transform="translate(578.857422 0)"/>
     <use xlink:href="#DejaVuSans-39" transform="translate(642.480469 0)"/>
    </g>
    <!-- Median = 95.00 -->
    <g style="fill: #262626" transform="translate(292.073261 90.444144) scale(0.07 -0.07)">
     <defs>
      <path id="DejaVuSans-64" d="M 2906 2969 
L 2906 4863 
L 3481 4863 
L 3481 0 
L 2906 0 
L 2906 525 
Q 2725 213 2448 61 
Q 2172 -91 1784 -91 
Q 1150 -91 751 415 
Q 353 922 353 1747 
Q 353 2572 751 3078 
Q 1150 3584 1784 3584 
Q 2172 3584 2448 3432 
Q 2725 3281 2906 2969 
z
M 947 1747 
Q 947 1113 1208 752 
Q 1469 391 1925 391 
Q 2381 391 2643 752 
Q 2906 1113 2906 1747 
Q 2906 2381 2643 2742 
Q 2381 3103 1925 3103 
Q 1469 3103 1208 2742 
Q 947 2381 947 1747 
z
" transform="scale(0.015625)"/>
     </defs>
     <use xlink:href="#DejaVuSans-4d"/>
     <use xlink:href="#DejaVuSans-65" transform="translate(86.279297 0)"/>
     <use xlink:href="#DejaVuSans-64" transform="translate(147.802734 0)"/>
     <use xlink:href="#DejaVuSans-69" transform="translate(211.279297 0)"/>
     <use xlink:href="#DejaVuSans-61" transform="translate(239.0625 0)"/>
     <use xlink:href="#DejaVuSans-6e" transform="translate(300.341797 0)"/>
     <use xlink:href="#DejaVuSans-20" transform="translate(363.720703 0)"/>
     <use xlink:href="#DejaVuSans-3d" transform="translate(395.507812 0)"/>
     <use xlink:href="#DejaVuSans-20" transform="translate(479.296875 0)"/>
     <use xlink:href="#DejaVuSans-39" transform="translate(511.083984 0)"/>
     <use xlink:href="#DejaVuSans-35" transform="translate(574.707031 0)"/>
     <use xlink:href="#DejaVuSans-2e" transform="translate(638.330078 0)"/>
     <use xlink:href="#DejaVuSans-30" transform="translate(670.117188 0)"/>
     <use xlink:href="#DejaVuSans-30" transform="translate(733.740234 0)"/>
    </g>
    <!-- SD = 17.14 -->
    <g style="fill: #262626" transform="translate(307.700761 98.282613) scale(0.07 -0.07)">
     <defs>
      <path id="DejaVuSans-53" d="M 3425 4513 
L 3425 3897 
Q 3066 4069 2747 4153 
Q 2428 4238 2131 4238 
Q 1616 4238 1336 4038 
Q 1056 3838 1056 3469 
Q 1056 3159 1242 3001 
Q 1428 2844 1947 2747 
L 2328 2669 
Q 3034 2534 3370 2195 
Q 3706 1856 3706 1288 
Q 3706 609 3251 259 
Q 2797 -91 1919 -91 
Q 1588 -91 1214 -16 
Q 841 59 441 206 
L 441 856 
Q 825 641 1194 531 
Q 1563 422 1919 422 
Q 2459 422 2753 634 
Q 3047 847 3047 1241 
Q 3047 1584 2836 1778 
Q 2625 1972 2144 2069 
L 1759 2144 
Q 1053 2284 737 2584 
Q 422 2884 422 3419 
Q 422 4038 858 4394 
Q 1294 4750 2059 4750 
Q 2388 4750 2728 4690 
Q 3069 4631 3425 4513 
z
" transform="scale(0.015625)"/>
     </defs>
     <use xlink:href="#DejaVuSans-53"/>
     <use xlink:href="#DejaVuSans-44" transform="translate(63.476562 0)"/>
     <use xlink:href="#DejaVuSans-20" transform="translate(140.478516 0)"/>
     <use xlink:href="#DejaVuSans-3d" transform="translate(172.265625 0)"/>
     <use xlink:href="#DejaVuSans-20" transform="translate(256.054688 0)"/>
     <use xlink:href="#DejaVuSans-31" transform="translate(287.841797 0)"/>
     <use xlink:href="#DejaVuSans-37" transform="translate(351.464844 0)"/>
     <use xlink:href="#DejaVuSans-2e" transform="translate(415.087891 0)"/>
     <use xlink:href="#DejaVuSans-31" transform="translate(446.875 0)"/>
     <use xlink:href="#DejaVuSans-34" transform="translate(510.498047 0)"/>
    </g>
    <!-- Missing = 0 (0.0%) -->
    <g style="fill: #262626" transform="translate(281.548104 106.121081) scale(0.07 -0.07)">
     <defs>
      <path id="DejaVuSans-67" d="M 2906 1791 
Q 2906 2416 2648 2759 
Q 2391 3103 1925 3103 
Q 1463 3103 1205 2759 
Q 947 2416 947 1791 
Q 947 1169 1205 825 
Q 1463 481 1925 481 
Q 2391 481 2648 825 
Q 2906 1169 2906 1791 
z
M 3481 434 
Q 3481 -459 3084 -895 
Q 2688 -1331 1869 -1331 
Q 1566 -1331 1297 -1286 
Q 1028 -1241 775 -1147 
L 775 -588 
Q 1028 -725 1275 -790 
Q 1522 -856 1778 -856 
Q 2344 -856 2625 -561 
Q 2906 -266 2906 331 
L 2906 616 
Q 2728 306 2450 153 
Q 2172 0 1784 0 
Q 1141 0 747 490 
Q 353 981 353 1791 
Q 353 2603 747 3093 
Q 1141 3584 1784 3584 
Q 2172 3584 2450 3431 
Q 2728 3278 2906 2969 
L 2906 3500 
L 3481 3500 
L 3481 434 
z
" transform="scale(0.015625)"/>
      <path id="DejaVuSans-28" d="M 1984 4856 
Q 1566 4138 1362 3434 
Q 1159 2731 1159 2009 
Q 1159 1288 1364 580 
Q 1569 -128 1984 -844 
L 1484 -844 
Q 1016 -109 783 600 
Q 550 1309 550 2009 
Q 550 2706 781 3412 
Q 1013 4119 1484 4856 
L 1984 4856 
z
" transform="scale(0.015625)"/>
      <path id="DejaVuSans-25" d="M 4653 2053 
Q 4381 2053 4226 1822 
Q 4072 1591 4072 1178 
Q 4072 772 4226 539 
Q 4381 306 4653 306 
Q 4919 306 5073 539 
Q 5228 772 5228 1178 
Q 5228 1588 5073 1820 
Q 4919 2053 4653 2053 
z
M 4653 2450 
Q 5147 2450 5437 2106 
Q 5728 1763 5728 1178 
Q 5728 594 5436 251 
Q 5144 -91 4653 -91 
Q 4153 -91 3862 251 
Q 3572 594 3572 1178 
Q 3572 1766 3864 2108 
Q 4156 2450 4653 2450 
z
M 1428 4353 
Q 1159 4353 1004 4120 
Q 850 3888 850 3481 
Q 850 3069 1003 2837 
Q 1156 2606 1428 2606 
Q 1700 2606 1854 2837 
Q 2009 3069 2009 3481 
Q 2009 3884 1853 4118 
Q 1697 4353 1428 4353 
z
M 4250 4750 
L 4750 4750 
L 1831 -91 
L 1331 -91 
L 4250 4750 
z
M 1428 4750 
Q 1922 4750 2215 4408 
Q 2509 4066 2509 3481 
Q 2509 2891 2217 2550 
Q 1925 2209 1428 2209 
Q 931 2209 642 2551 
Q 353 2894 353 3481 
Q 353 4063 643 4406 
Q 934 4750 1428 4750 
z
" transform="scale(0.015625)"/>
      <path id="DejaVuSans-29" d="M 513 4856 
L 1013 4856 
Q 1481 4119 1714 3412 
Q 1947 2706 1947 2009 
Q 1947 1309 1714 600 
Q 1481 -109 1013 -844 
L 513 -844 
Q 928 -128 1133 580 
Q 1338 1288 1338 2009 
Q 1338 2731 1133 3434 
Q 928 4138 513 4856 
z
" transform="scale(0.015625)"/>
     </defs>
     <use xlink:href="#DejaVuSans-4d"/>
     <use xlink:href="#DejaVuSans-69" transform="translate(86.279297 0)"/>
     <use xlink:href="#DejaVuSans-73" transform="translate(114.0625 0)"/>
     <use xlink:href="#DejaVuSans-73" transform="translate(166.162109 0)"/>
     <use xlink:href="#DejaVuSans-69" transform="translate(218.261719 0)"/>
     <use xlink:href="#DejaVuSans-6e" transform="translate(246.044922 0)"/>
     <use xlink:href="#DejaVuSans-67" transform="translate(309.423828 0)"/>
     <use xlink:href="#DejaVuSans-20" transform="translate(372.900391 0)"/>
     <use xlink:href="#DejaVuSans-3d" transform="translate(404.6875 0)"/>
     <use xlink:href="#DejaVuSans-20" transform="translate(488.476562 0)"/>
     <use xlink:href="#DejaVuSans-30" transform="translate(520.263672 0)"/>
     <use xlink:href="#DejaVuSans-20" transform="translate(583.886719 0)"/>
     <use xlink:href="#DejaVuSans-28" transform="translate(615.673828 0)"/>
     <use xlink:href="#DejaVuSans-30" transform="translate(654.6875 0)"/>
     <use xlink:href="#DejaVuSans-2e" transform="translate(718.310547 0)"/>
     <use xlink:href="#DejaVuSans-30" transform="translate(750.097656 0)"/>
     <use xlink:href="#DejaVuSans-25" transform="translate(813.720703 0)"/>
     <use xlink:href="#DejaVuSans-29" transform="translate(908.740234 0)"/>
    </g>
   </g>
   <g id="text_16">
    <!-- waist circumference -->
    <g style="fill: #262626" transform="translate(150.092011 51.84) scale(0.09 -0.09)">
     <defs>
      <path id="DejaVuSans-Bold-77" d="M 225 3500 
L 1313 3500 
L 1900 1088 
L 2491 3500 
L 3425 3500 
L 4013 1113 
L 4603 3500 
L 5691 3500 
L 4769 0 
L 3547 0 
L 2956 2406 
L 2369 0 
L 1147 0 
L 225 3500 
z
" transform="scale(0.015625)"/>
      <path id="DejaVuSans-Bold-61" d="M 2106 1575 
Q 1756 1575 1579 1456 
Q 1403 1338 1403 1106 
Q 1403 894 1545 773 
Q 1688 653 1941 653 
Q 2256 653 2472 879 
Q 2688 1106 2688 1447 
L 2688 1575 
L 2106 1575 
z
M 3816 1997 
L 3816 0 
L 2688 0 
L 2688 519 
Q 2463 200 2181 54 
Q 1900 -91 1497 -91 
Q 953 -91 614 226 
Q 275 544 275 1050 
Q 275 1666 698 1953 
Q 1122 2241 2028 2241 
L 2688 2241 
L 2688 2328 
Q 2688 2594 2478 2717 
Q 2269 2841 1825 2841 
Q 1466 2841 1156 2769 
Q 847 2697 581 2553 
L 581 3406 
Q 941 3494 1303 3539 
Q 1666 3584 2028 3584 
Q 2975 3584 3395 3211 
Q 3816 2838 3816 1997 
z
" transform="scale(0.015625)"/>
      <path id="DejaVuSans-Bold-69" d="M 538 3500 
L 1656 3500 
L 1656 0 
L 538 0 
L 538 3500 
z
M 538 4863 
L 1656 4863 
L 1656 3950 
L 538 3950 
L 538 4863 
z
" transform="scale(0.015625)"/>
      <path id="DejaVuSans-Bold-73" d="M 3272 3391 
L 3272 2541 
Q 2913 2691 2578 2766 
Q 2244 2841 1947 2841 
Q 1628 2841 1473 2761 
Q 1319 2681 1319 2516 
Q 1319 2381 1436 2309 
Q 1553 2238 1856 2203 
L 2053 2175 
Q 2913 2066 3209 1816 
Q 3506 1566 3506 1031 
Q 3506 472 3093 190 
Q 2681 -91 1863 -91 
Q 1516 -91 1145 -36 
Q 775 19 384 128 
L 384 978 
Q 719 816 1070 734 
Q 1422 653 1784 653 
Q 2113 653 2278 743 
Q 2444 834 2444 1013 
Q 2444 1163 2330 1236 
Q 2216 1309 1875 1350 
L 1678 1375 
Q 931 1469 631 1722 
Q 331 1975 331 2491 
Q 331 3047 712 3315 
Q 1094 3584 1881 3584 
Q 2191 3584 2531 3537 
Q 2872 3491 3272 3391 
z
" transform="scale(0.015625)"/>
      <path id="DejaVuSans-Bold-74" d="M 1759 4494 
L 1759 3500 
L 2913 3500 
L 2913 2700 
L 1759 2700 
L 1759 1216 
Q 1759 972 1856 886 
Q 1953 800 2241 800 
L 2816 800 
L 2816 0 
L 1856 0 
Q 1194 0 917 276 
Q 641 553 641 1216 
L 641 2700 
L 84 2700 
L 84 3500 
L 641 3500 
L 641 4494 
L 1759 4494 
z
" transform="scale(0.015625)"/>
      <path id="DejaVuSans-Bold-20" transform="scale(0.015625)"/>
      <path id="DejaVuSans-Bold-63" d="M 3366 3391 
L 3366 2478 
Q 3138 2634 2908 2709 
Q 2678 2784 2431 2784 
Q 1963 2784 1702 2511 
Q 1441 2238 1441 1747 
Q 1441 1256 1702 982 
Q 1963 709 2431 709 
Q 2694 709 2930 787 
Q 3166 866 3366 1019 
L 3366 103 
Q 3103 6 2833 -42 
Q 2563 -91 2291 -91 
Q 1344 -91 809 395 
Q 275 881 275 1747 
Q 275 2613 809 3098 
Q 1344 3584 2291 3584 
Q 2566 3584 2833 3536 
Q 3100 3488 3366 3391 
z
" transform="scale(0.015625)"/>
      <path id="DejaVuSans-Bold-72" d="M 3138 2547 
Q 2991 2616 2845 2648 
Q 2700 2681 2553 2681 
Q 2122 2681 1889 2404 
Q 1656 2128 1656 1613 
L 1656 0 
L 538 0 
L 538 3500 
L 1656 3500 
L 1656 2925 
Q 1872 3269 2151 3426 
Q 2431 3584 2822 3584 
Q 2878 3584 2943 3579 
Q 3009 3575 3134 3559 
L 3138 2547 
z
" transform="scale(0.015625)"/>
      <path id="DejaVuSans-Bold-75" d="M 500 1363 
L 500 3500 
L 1625 3500 
L 1625 3150 
Q 1625 2866 1622 2436 
Q 1619 2006 1619 1863 
Q 1619 1441 1641 1255 
Q 1663 1069 1716 984 
Q 1784 875 1895 815 
Q 2006 756 2150 756 
Q 2500 756 2700 1025 
Q 2900 1294 2900 1772 
L 2900 3500 
L 4019 3500 
L 4019 0 
L 2900 0 
L 2900 506 
Q 2647 200 2364 54 
Q 2081 -91 1741 -91 
Q 1134 -91 817 281 
Q 500 653 500 1363 
z
" transform="scale(0.015625)"/>
      <path id="DejaVuSans-Bold-6d" d="M 3781 2919 
Q 3994 3244 4286 3414 
Q 4578 3584 4928 3584 
Q 5531 3584 5847 3212 
Q 6163 2841 6163 2131 
L 6163 0 
L 5038 0 
L 5038 1825 
Q 5041 1866 5042 1909 
Q 5044 1953 5044 2034 
Q 5044 2406 4934 2573 
Q 4825 2741 4581 2741 
Q 4263 2741 4089 2478 
Q 3916 2216 3909 1719 
L 3909 0 
L 2784 0 
L 2784 1825 
Q 2784 2406 2684 2573 
Q 2584 2741 2328 2741 
Q 2006 2741 1831 2477 
Q 1656 2213 1656 1722 
L 1656 0 
L 531 0 
L 531 3500 
L 1656 3500 
L 1656 2988 
Q 1863 3284 2130 3434 
Q 2397 3584 2719 3584 
Q 3081 3584 3359 3409 
Q 3638 3234 3781 2919 
z
" transform="scale(0.015625)"/>
      <path id="DejaVuSans-Bold-66" d="M 2841 4863 
L 2841 4128 
L 2222 4128 
Q 1984 4128 1890 4042 
Q 1797 3956 1797 3744 
L 1797 3500 
L 2753 3500 
L 2753 2700 
L 1797 2700 
L 1797 0 
L 678 0 
L 678 2700 
L 122 2700 
L 122 3500 
L 678 3500 
L 678 3744 
Q 678 4316 997 4589 
Q 1316 4863 1984 4863 
L 2841 4863 
z
" transform="scale(0.015625)"/>
      <path id="DejaVuSans-Bold-65" d="M 4031 1759 
L 4031 1441 
L 1416 1441 
Q 1456 1047 1700 850 
Q 1944 653 2381 653 
Q 2734 653 3104 758 
Q 3475 863 3866 1075 
L 3866 213 
Q 3469 63 3072 -14 
Q 2675 -91 2278 -91 
Q 1328 -91 801 392 
Q 275 875 275 1747 
Q 275 2603 792 3093 
Q 1309 3584 2216 3584 
Q 3041 3584 3536 3087 
Q 4031 2591 4031 1759 
z
M 2881 2131 
Q 2881 2450 2695 2645 
Q 2509 2841 2209 2841 
Q 1884 2841 1681 2658 
Q 1478 2475 1428 2131 
L 2881 2131 
z
" transform="scale(0.015625)"/>
      <path id="DejaVuSans-Bold-6e" d="M 4056 2131 
L 4056 0 
L 2931 0 
L 2931 347 
L 2931 1631 
Q 2931 2084 2911 2256 
Q 2891 2428 2841 2509 
Q 2775 2619 2662 2680 
Q 2550 2741 2406 2741 
Q 2056 2741 1856 2470 
Q 1656 2200 1656 1722 
L 1656 0 
L 538 0 
L 538 3500 
L 1656 3500 
L 1656 2988 
Q 1909 3294 2193 3439 
Q 2478 3584 2822 3584 
Q 3428 3584 3742 3212 
Q 4056 2841 4056 2131 
z
" transform="scale(0.015625)"/>
     </defs>
     <use xlink:href="#DejaVuSans-Bold-77"/>
     <use xlink:href="#DejaVuSans-Bold-61" transform="translate(92.382812 0)"/>
     <use xlink:href="#DejaVuSans-Bold-69" transform="translate(159.863281 0)"/>
     <use xlink:href="#DejaVuSans-Bold-73" transform="translate(194.140625 0)"/>
     <use xlink:href="#DejaVuSans-Bold-74" transform="translate(253.662109 0)"/>
     <use xlink:href="#DejaVuSans-Bold-20" transform="translate(301.464844 0)"/>
     <use xlink:href="#DejaVuSans-Bold-63" transform="translate(336.279297 0)"/>
     <use xlink:href="#DejaVuSans-Bold-69" transform="translate(395.556641 0)"/>
     <use xlink:href="#DejaVuSans-Bold-72" transform="translate(429.833984 0)"/>
     <use xlink:href="#DejaVuSans-Bold-63" transform="translate(479.150391 0)"/>
     <use xlink:href="#DejaVuSans-Bold-75" transform="translate(538.427734 0)"/>
     <use xlink:href="#DejaVuSans-Bold-6d" transform="translate(609.619141 0)"/>
     <use xlink:href="#DejaVuSans-Bold-66" transform="translate(713.818359 0)"/>
     <use xlink:href="#DejaVuSans-Bold-65" transform="translate(757.324219 0)"/>
     <use xlink:href="#DejaVuSans-Bold-72" transform="translate(825.146484 0)"/>
     <use xlink:href="#DejaVuSans-Bold-65" transform="translate(874.462891 0)"/>
     <use xlink:href="#DejaVuSans-Bold-6e" transform="translate(942.285156 0)"/>
     <use xlink:href="#DejaVuSans-Bold-63" transform="translate(1013.476562 0)"/>
     <use xlink:href="#DejaVuSans-Bold-65" transform="translate(1072.753906 0)"/>
    </g>
   </g>
  </g>
  <g id="axes_2">
   <g id="patch_38">
    <path d="M 407.10127 315.45 
L 712.24873 315.45 
L 712.24873 61.84 
L 407.10127 61.84 
z
" style="fill: #ffffff"/>
   </g>
   <g id="matplotlib.axis_3">
    <g id="xtick_8">
     <g id="line2d_15">
      <path d="M 410.549111 315.45 
L 410.549111 61.84 
" clip-path="url(#p2fe1f02857)" style="fill: none; stroke: #cccccc; stroke-width: 0.8; stroke-linecap: round"/>
     </g>
     <g id="text_17">
      <!-- −100 -->
      <g style="fill: #262626" transform="translate(399.562236 328.52875) scale(0.08 -0.08)">
       <use xlink:href="#DejaVuSans-2212"/>
       <use xlink:href="#DejaVuSans-31" transform="translate(83.789062 0)"/>
       <use xlink:href="#DejaVuSans-30" transform="translate(147.412109 0)"/>
       <use xlink:href="#DejaVuSans-30" transform="translate(211.035156 0)"/>
      </g>
     </g>
    </g>
    <g id="xtick_9">
     <g id="line2d_16">
      <path d="M 450.436208 315.45 
L 450.436208 61.84 
" clip-path="url(#p2fe1f02857)" style="fill: none; stroke: #cccccc; stroke-width: 0.8; stroke-linecap: round"/>
     </g>
     <g id="text_18">
      <!-- −50 -->
      <g style="fill: #262626" transform="translate(441.994333 328.52875) scale(0.08 -0.08)">
       <use xlink:href="#DejaVuSans-2212"/>
       <use xlink:href="#DejaVuSans-35" transform="translate(83.789062 0)"/>
       <use xlink:href="#DejaVuSans-30" transform="translate(147.412109 0)"/>
      </g>
     </g>
    </g>
    <g id="xtick_10">
     <g id="line2d_17">
      <path d="M 490.323305 315.45 
L 490.323305 61.84 
" clip-path="url(#p2fe1f02857)" style="fill: none; stroke: #cccccc; stroke-width: 0.8; stroke-linecap: round"/>
     </g>
     <g id="text_19">
      <!-- 0 -->
      <g style="fill: #262626" transform="translate(487.778305 328.52875) scale(0.08 -0.08)">
       <use xlink:href="#DejaVuSans-30"/>
      </g>
     </g>
    </g>
    <g id="xtick_11">
     <g id="line2d_18">
      <path d="M 530.210401 315.45 
L 530.210401 61.84 
" clip-path="url(#p2fe1f02857)" style="fill: none; stroke: #cccccc; stroke-width: 0.8; stroke-linecap: round"/>
     </g>
     <g id="text_20">
      <!-- 50 -->
      <g style="fill: #262626" transform="translate(525.120401 328.52875) scale(0.08 -0.08)">
       <use xlink:href="#DejaVuSans-35"/>
       <use xlink:href="#DejaVuSans-30" transform="translate(63.623047 0)"/>
      </g>
     </g>
    </g>
    <g id="xtick_12">
     <g id="line2d_19">
      <path d="M 570.097498 315.45 
L 570.097498 61.84 
" clip-path="url(#p2fe1f02857)" style="fill: none; stroke: #cccccc; stroke-width: 0.8; stroke-linecap: round"/>
     </g>
     <g id="text_21">
      <!-- 100 -->
      <g style="fill: #262626" transform="translate(562.462498 328.52875) scale(0.08 -0.08)">
       <use xlink:href="#DejaVuSans-31"/>
       <use xlink:href="#DejaVuSans-30" transform="translate(63.623047 0)"/>
       <use xlink:href="#DejaVuSans-30" transform="translate(127.246094 0)"/>
      </g>
     </g>
    </g>
    <g id="xtick_13">
     <g id="line2d_20">
      <path d="M 609.984595 315.45 
L 609.984595 61.84 
" clip-path="url(#p2fe1f02857)" style="fill: none; stroke: #cccccc; stroke-width: 0.8; stroke-linecap: round"/>
     </g>
     <g id="text_22">
      <!-- 150 -->
      <g style="fill: #262626" transform="translate(602.349595 328.52875) scale(0.08 -0.08)">
       <use xlink:href="#DejaVuSans-31"/>
       <use xlink:href="#DejaVuSans-35" transform="translate(63.623047 0)"/>
       <use xlink:href="#DejaVuSans-30" transform="translate(127.246094 0)"/>
      </g>
     </g>
    </g>
    <g id="xtick_14">
     <g id="line2d_21">
      <path d="M 649.871692 315.45 
L 649.871692 61.84 
" clip-path="url(#p2fe1f02857)" style="fill: none; stroke: #cccccc; stroke-width: 0.8; stroke-linecap: round"/>
     </g>
     <g id="text_23">
      <!-- 200 -->
      <g style="fill: #262626" transform="translate(642.236692 328.52875) scale(0.08 -0.08)">
       <use xlink:href="#DejaVuSans-32"/>
       <use xlink:href="#DejaVuSans-30" transform="translate(63.623047 0)"/>
       <use xlink:href="#DejaVuSans-30" transform="translate(127.246094 0)"/>
      </g>
     </g>
    </g>
    <g id="xtick_15">
     <g id="line2d_22">
      <path d="M 689.758789 315.45 
L 689.758789 61.84 
" clip-path="url(#p2fe1f02857)" style="fill: none; stroke: #cccccc; stroke-width: 0.8; stroke-linecap: round"/>
     </g>
     <g id="text_24">
      <!-- 250 -->
      <g style="fill: #262626" transform="translate(682.123789 328.52875) scale(0.08 -0.08)">
       <use xlink:href="#DejaVuSans-32"/>
       <use xlink:href="#DejaVuSans-35" transform="translate(63.623047 0)"/>
       <use xlink:href="#DejaVuSans-30" transform="translate(127.246094 0)"/>
      </g>
     </g>
    </g>
   </g>
   <g id="matplotlib.axis_4">
    <g id="ytick_7">
     <g id="line2d_23">
      <path d="M 407.10127 315.45 
L 712.24873 315.45 
" clip-path="url(#p2fe1f02857)" style="fill: none; stroke: #cccccc; stroke-opacity: 0.3; stroke-width: 0.8; stroke-linecap: round"/>
     </g>
     <g id="text_25">
      <!-- 0.000 -->
      <g style="fill: #262626" transform="translate(377.19877 318.489375) scale(0.08 -0.08)">
       <use xlink:href="#DejaVuSans-30"/>
       <use xlink:href="#DejaVuSans-2e" transform="translate(63.623047 0)"/>
       <use xlink:href="#DejaVuSans-30" transform="translate(95.410156 0)"/>
       <use xlink:href="#DejaVuSans-30" transform="translate(159.033203 0)"/>
       <use xlink:href="#DejaVuSans-30" transform="translate(222.65625 0)"/>
      </g>
     </g>
    </g>
    <g id="ytick_8">
     <g id="line2d_24">
      <path d="M 407.10127 266.258204 
L 712.24873 266.258204 
" clip-path="url(#p2fe1f02857)" style="fill: none; stroke: #cccccc; stroke-opacity: 0.3; stroke-width: 0.8; stroke-linecap: round"/>
     </g>
     <g id="text_26">
      <!-- 0.005 -->
      <g style="fill: #262626" transform="translate(377.19877 269.297579) scale(0.08 -0.08)">
       <use xlink:href="#DejaVuSans-30"/>
       <use xlink:href="#DejaVuSans-2e" transform="translate(63.623047 0)"/>
       <use xlink:href="#DejaVuSans-30" transform="translate(95.410156 0)"/>
       <use xlink:href="#DejaVuSans-30" transform="translate(159.033203 0)"/>
       <use xlink:href="#DejaVuSans-35" transform="translate(222.65625 0)"/>
      </g>
     </g>
    </g>
    <g id="ytick_9">
     <g id="line2d_25">
      <path d="M 407.10127 217.066409 
L 712.24873 217.066409 
" clip-path="url(#p2fe1f02857)" style="fill: none; stroke: #cccccc; stroke-opacity: 0.3; stroke-width: 0.8; stroke-linecap: round"/>
     </g>
     <g id="text_27">
      <!-- 0.010 -->
      <g style="fill: #262626" transform="translate(377.19877 220.105784) scale(0.08 -0.08)">
       <use xlink:href="#DejaVuSans-30"/>
       <use xlink:href="#DejaVuSans-2e" transform="translate(63.623047 0)"/>
       <use xlink:href="#DejaVuSans-30" transform="translate(95.410156 0)"/>
       <use xlink:href="#DejaVuSans-31" transform="translate(159.033203 0)"/>
       <use xlink:href="#DejaVuSans-30" transform="translate(222.65625 0)"/>
      </g>
     </g>
    </g>
    <g id="ytick_10">
     <g id="line2d_26">
      <path d="M 407.10127 167.874613 
L 712.24873 167.874613 
" clip-path="url(#p2fe1f02857)" style="fill: none; stroke: #cccccc; stroke-opacity: 0.3; stroke-width: 0.8; stroke-linecap: round"/>
     </g>
     <g id="text_28">
      <!-- 0.015 -->
      <g style="fill: #262626" transform="translate(377.19877 170.913988) scale(0.08 -0.08)">
       <use xlink:href="#DejaVuSans-30"/>
       <use xlink:href="#DejaVuSans-2e" transform="translate(63.623047 0)"/>
       <use xlink:href="#DejaVuSans-30" transform="translate(95.410156 0)"/>
       <use xlink:href="#DejaVuSans-31" transform="translate(159.033203 0)"/>
       <use xlink:href="#DejaVuSans-35" transform="translate(222.65625 0)"/>
      </g>
     </g>
    </g>
    <g id="ytick_11">
     <g id="line2d_27">
      <path d="M 407.10127 118.682818 
L 712.24873 118.682818 
" clip-path="url(#p2fe1f02857)" style="fill: none; stroke: #cccccc; stroke-opacity: 0.3; stroke-width: 0.8; stroke-linecap: round"/>
     </g>
     <g id="text_29">
      <!-- 0.020 -->
      <g style="fill: #262626" transform="translate(377.19877 121.722193) scale(0.08 -0.08)">
       <use xlink:href="#DejaVuSans-30"/>
       <use xlink:href="#DejaVuSans-2e" transform="translate(63.623047 0)"/>
       <use xlink:href="#DejaVuSans-30" transform="translate(95.410156 0)"/>
       <use xlink:href="#DejaVuSans-32" transform="translate(159.033203 0)"/>
       <use xlink:href="#DejaVuSans-30" transform="translate(222.65625 0)"/>
      </g>
     </g>
    </g>
    <g id="ytick_12">
     <g id="line2d_28">
      <path d="M 407.10127 69.491022 
L 712.24873 69.491022 
" clip-path="url(#p2fe1f02857)" style="fill: none; stroke: #cccccc; stroke-opacity: 0.3; stroke-width: 0.8; stroke-linecap: round"/>
     </g>
     <g id="text_30">
      <!-- 0.025 -->
      <g style="fill: #262626" transform="translate(377.19877 72.530397) scale(0.08 -0.08)">
       <use xlink:href="#DejaVuSans-30"/>
       <use xlink:href="#DejaVuSans-2e" transform="translate(63.623047 0)"/>
       <use xlink:href="#DejaVuSans-30" transform="translate(95.410156 0)"/>
       <use xlink:href="#DejaVuSans-32" transform="translate(159.033203 0)"/>
       <use xlink:href="#DejaVuSans-35" transform="translate(222.65625 0)"/>
      </g>
     </g>
    </g>
    <g id="text_31">
     <!-- Density / Frequency -->
     <g style="fill: #262626" transform="translate(371.53502 228.405625) rotate(-90) scale(0.08 -0.08)">
      <use xlink:href="#DejaVuSans-44"/>
      <use xlink:href="#DejaVuSans-65" transform="translate(77.001953 0)"/>
      <use xlink:href="#DejaVuSans-6e" transform="translate(138.525391 0)"/>
      <use xlink:href="#DejaVuSans-73" transform="translate(201.904297 0)"/>
      <use xlink:href="#DejaVuSans-69" transform="translate(254.003906 0)"/>
      <use xlink:href="#DejaVuSans-74" transform="translate(281.787109 0)"/>
      <use xlink:href="#DejaVuSans-79" transform="translate(320.996094 0)"/>
      <use xlink:href="#DejaVuSans-20" transform="translate(380.175781 0)"/>
      <use xlink:href="#DejaVuSans-2f" transform="translate(411.962891 0)"/>
      <use xlink:href="#DejaVuSans-20" transform="translate(445.654297 0)"/>
      <use xlink:href="#DejaVuSans-46" transform="translate(477.441406 0)"/>
      <use xlink:href="#DejaVuSans-72" transform="translate(527.710938 0)"/>
      <use xlink:href="#DejaVuSans-65" transform="translate(566.574219 0)"/>
      <use xlink:href="#DejaVuSans-71" transform="translate(628.097656 0)"/>
      <use xlink:href="#DejaVuSans-75" transform="translate(691.574219 0)"/>
      <use xlink:href="#DejaVuSans-65" transform="translate(754.953125 0)"/>
      <use xlink:href="#DejaVuSans-6e" transform="translate(816.476562 0)"/>
      <use xlink:href="#DejaVuSans-63" transform="translate(879.855469 0)"/>
      <use xlink:href="#DejaVuSans-79" transform="translate(934.835938 0)"/>
     </g>
    </g>
   </g>
   <g id="patch_39">
    <path d="M 490.323305 315.45 
L 494.946751 315.45 
L 494.946751 301.842488 
L 490.323305 301.842488 
z
" clip-path="url(#p2fe1f02857)" style="fill: #4682b4; opacity: 0.6; stroke: #000000; stroke-linejoin: miter"/>
   </g>
   <g id="patch_40">
    <path d="M 494.946751 315.45 
L 499.570197 315.45 
L 499.570197 313.749061 
L 494.946751 313.749061 
z
" clip-path="url(#p2fe1f02857)" style="fill: #4682b4; opacity: 0.6; stroke: #000000; stroke-linejoin: miter"/>
   </g>
   <g id="patch_41">
    <path d="M 499.570197 315.45 
L 504.193644 315.45 
L 504.193644 315.45 
L 499.570197 315.45 
z
" clip-path="url(#p2fe1f02857)" style="fill: #4682b4; opacity: 0.6; stroke: #000000; stroke-linejoin: miter"/>
   </g>
   <g id="patch_42">
    <path d="M 504.193644 315.45 
L 508.81709 315.45 
L 508.81709 315.45 
L 504.193644 315.45 
z
" clip-path="url(#p2fe1f02857)" style="fill: #4682b4; opacity: 0.6; stroke: #000000; stroke-linejoin: miter"/>
   </g>
   <g id="patch_43">
    <path d="M 508.81709 315.45 
L 513.440536 315.45 
L 513.440536 315.45 
L 508.81709 315.45 
z
" clip-path="url(#p2fe1f02857)" style="fill: #4682b4; opacity: 0.6; stroke: #000000; stroke-linejoin: miter"/>
   </g>
   <g id="patch_44">
    <path d="M 513.440536 315.45 
L 518.063983 315.45 
L 518.063983 315.45 
L 513.440536 315.45 
z
" clip-path="url(#p2fe1f02857)" style="fill: #4682b4; opacity: 0.6; stroke: #000000; stroke-linejoin: miter"/>
   </g>
   <g id="patch_45">
    <path d="M 518.063983 315.45 
L 522.687429 315.45 
L 522.687429 315.45 
L 518.063983 315.45 
z
" clip-path="url(#p2fe1f02857)" style="fill: #4682b4; opacity: 0.6; stroke: #000000; stroke-linejoin: miter"/>
   </g>
   <g id="patch_46">
    <path d="M 522.687429 315.45 
L 527.310875 315.45 
L 527.310875 313.749061 
L 522.687429 313.749061 
z
" clip-path="url(#p2fe1f02857)" style="fill: #4682b4; opacity: 0.6; stroke: #000000; stroke-linejoin: miter"/>
   </g>
   <g id="patch_47">
    <path d="M 527.310875 315.45 
L 531.934322 315.45 
L 531.934322 315.45 
L 527.310875 315.45 
z
" clip-path="url(#p2fe1f02857)" style="fill: #4682b4; opacity: 0.6; stroke: #000000; stroke-linejoin: miter"/>
   </g>
   <g id="patch_48">
    <path d="M 531.934322 315.45 
L 536.557768 315.45 
L 536.557768 315.45 
L 531.934322 315.45 
z
" clip-path="url(#p2fe1f02857)" style="fill: #4682b4; opacity: 0.6; stroke: #000000; stroke-linejoin: miter"/>
   </g>
   <g id="patch_49">
    <path d="M 536.557768 315.45 
L 541.181215 315.45 
L 541.181215 315.45 
L 536.557768 315.45 
z
" clip-path="url(#p2fe1f02857)" style="fill: #4682b4; opacity: 0.6; stroke: #000000; stroke-linejoin: miter"/>
   </g>
   <g id="patch_50">
    <path d="M 541.181215 315.45 
L 545.804661 315.45 
L 545.804661 313.749061 
L 541.181215 313.749061 
z
" clip-path="url(#p2fe1f02857)" style="fill: #4682b4; opacity: 0.6; stroke: #000000; stroke-linejoin: miter"/>
   </g>
   <g id="patch_51">
    <path d="M 545.804661 315.45 
L 550.428107 315.45 
L 550.428107 313.749061 
L 545.804661 313.749061 
z
" clip-path="url(#p2fe1f02857)" style="fill: #4682b4; opacity: 0.6; stroke: #000000; stroke-linejoin: miter"/>
   </g>
   <g id="patch_52">
    <path d="M 550.428107 315.45 
L 555.051554 315.45 
L 555.051554 295.038732 
L 550.428107 295.038732 
z
" clip-path="url(#p2fe1f02857)" style="fill: #4682b4; opacity: 0.6; stroke: #000000; stroke-linejoin: miter"/>
   </g>
   <g id="patch_53">
    <path d="M 555.051554 315.45 
L 559.675 315.45 
L 559.675 206.589906 
L 555.051554 206.589906 
z
" clip-path="url(#p2fe1f02857)" style="fill: #4682b4; opacity: 0.6; stroke: #000000; stroke-linejoin: miter"/>
   </g>
   <g id="patch_54">
    <path d="M 559.675 315.45 
L 564.298446 315.45 
L 564.298446 150.45892 
L 559.675 150.45892 
z
" clip-path="url(#p2fe1f02857)" style="fill: #4682b4; opacity: 0.6; stroke: #000000; stroke-linejoin: miter"/>
   </g>
   <g id="patch_55">
    <path d="M 564.298446 315.45 
L 568.921893 315.45 
L 568.921893 87.524178 
L 564.298446 87.524178 
z
" clip-path="url(#p2fe1f02857)" style="fill: #4682b4; opacity: 0.6; stroke: #000000; stroke-linejoin: miter"/>
   </g>
   <g id="patch_56">
    <path d="M 568.921893 315.45 
L 573.545339 315.45 
L 573.545339 87.524178 
L 568.921893 87.524178 
z
" clip-path="url(#p2fe1f02857)" style="fill: #4682b4; opacity: 0.6; stroke: #000000; stroke-linejoin: miter"/>
   </g>
   <g id="patch_57">
    <path d="M 573.545339 315.45 
L 578.168785 315.45 
L 578.168785 82.421362 
L 573.545339 82.421362 
z
" clip-path="url(#p2fe1f02857)" style="fill: #4682b4; opacity: 0.6; stroke: #000000; stroke-linejoin: miter"/>
   </g>
   <g id="patch_58">
    <path d="M 578.168785 315.45 
L 582.792232 315.45 
L 582.792232 73.916667 
L 578.168785 73.916667 
z
" clip-path="url(#p2fe1f02857)" style="fill: #4682b4; opacity: 0.6; stroke: #000000; stroke-linejoin: miter"/>
   </g>
   <g id="patch_59">
    <path d="M 582.792232 315.45 
L 587.415678 315.45 
L 587.415678 136.851408 
L 582.792232 136.851408 
z
" clip-path="url(#p2fe1f02857)" style="fill: #4682b4; opacity: 0.6; stroke: #000000; stroke-linejoin: miter"/>
   </g>
   <g id="patch_60">
    <path d="M 587.415678 315.45 
L 592.039125 315.45 
L 592.039125 209.991784 
L 587.415678 209.991784 
z
" clip-path="url(#p2fe1f02857)" style="fill: #4682b4; opacity: 0.6; stroke: #000000; stroke-linejoin: miter"/>
   </g>
   <g id="patch_61">
    <path d="M 592.039125 315.45 
L 596.662571 315.45 
L 596.662571 255.917136 
L 592.039125 255.917136 
z
" clip-path="url(#p2fe1f02857)" style="fill: #4682b4; opacity: 0.6; stroke: #000000; stroke-linejoin: miter"/>
   </g>
   <g id="patch_62">
    <path d="M 596.662571 315.45 
L 601.286017 315.45 
L 601.286017 252.515258 
L 596.662571 252.515258 
z
" clip-path="url(#p2fe1f02857)" style="fill: #4682b4; opacity: 0.6; stroke: #000000; stroke-linejoin: miter"/>
   </g>
   <g id="patch_63">
    <path d="M 601.286017 315.45 
L 605.909464 315.45 
L 605.909464 288.234977 
L 601.286017 288.234977 
z
" clip-path="url(#p2fe1f02857)" style="fill: #4682b4; opacity: 0.6; stroke: #000000; stroke-linejoin: miter"/>
   </g>
   <g id="patch_64">
    <path d="M 605.909464 315.45 
L 610.53291 315.45 
L 610.53291 305.244366 
L 605.909464 305.244366 
z
" clip-path="url(#p2fe1f02857)" style="fill: #4682b4; opacity: 0.6; stroke: #000000; stroke-linejoin: miter"/>
   </g>
   <g id="patch_65">
    <path d="M 610.53291 315.45 
L 615.156356 315.45 
L 615.156356 313.749061 
L 610.53291 313.749061 
z
" clip-path="url(#p2fe1f02857)" style="fill: #4682b4; opacity: 0.6; stroke: #000000; stroke-linejoin: miter"/>
   </g>
   <g id="patch_66">
    <path d="M 615.156356 315.45 
L 619.779803 315.45 
L 619.779803 313.749061 
L 615.156356 313.749061 
z
" clip-path="url(#p2fe1f02857)" style="fill: #4682b4; opacity: 0.6; stroke: #000000; stroke-linejoin: miter"/>
   </g>
   <g id="patch_67">
    <path d="M 619.779803 315.45 
L 624.403249 315.45 
L 624.403249 313.749061 
L 619.779803 313.749061 
z
" clip-path="url(#p2fe1f02857)" style="fill: #4682b4; opacity: 0.6; stroke: #000000; stroke-linejoin: miter"/>
   </g>
   <g id="patch_68">
    <path d="M 624.403249 315.45 
L 629.026695 315.45 
L 629.026695 312.048122 
L 624.403249 312.048122 
z
" clip-path="url(#p2fe1f02857)" style="fill: #4682b4; opacity: 0.6; stroke: #000000; stroke-linejoin: miter"/>
   </g>
   <g id="line2d_29">
    <path d="M 420.971609 315.45 
L 479.840716 315.338917 
L 481.506823 315.078485 
L 482.617561 314.709975 
L 483.728298 314.106314 
L 484.839036 313.225926 
L 486.227459 311.783621 
L 488.448934 309.403634 
L 489.281988 308.812658 
L 490.115041 308.524365 
L 490.67041 308.520288 
L 491.503464 308.790259 
L 492.336517 309.342578 
L 493.724939 310.638878 
L 495.668731 312.46993 
L 496.779468 313.249101 
L 498.167891 313.912967 
L 499.833998 314.410378 
L 502.610842 314.961408 
L 505.387687 315.298973 
L 508.442216 315.427909 
L 515.384328 315.427839 
L 518.994226 315.252798 
L 522.326439 314.827157 
L 524.825599 314.596232 
L 526.769391 314.661052 
L 529.82392 315.056612 
L 532.600765 315.328609 
L 535.377609 315.370391 
L 538.154454 315.180329 
L 540.931299 314.749681 
L 543.430459 314.155753 
L 544.541197 313.694064 
L 545.37425 313.14557 
L 546.207303 312.311698 
L 547.040357 311.064042 
L 547.87341 309.254351 
L 548.706464 306.722652 
L 549.539517 303.307272 
L 550.37257 298.856119 
L 551.205624 293.239018 
L 552.316362 283.77872 
L 553.4271 272.000984 
L 554.815522 254.23921 
L 556.481629 229.558963 
L 560.646896 165.860022 
L 562.313002 144.363235 
L 563.701425 129.110299 
L 565.089847 116.377449 
L 566.200585 107.953653 
L 567.311323 100.954906 
L 568.422061 95.180312 
L 569.532799 90.414875 
L 570.643536 86.48929 
L 571.754274 83.31234 
L 572.865012 80.859573 
L 573.698066 79.49981 
L 574.531119 78.562265 
L 575.086488 78.182422 
L 575.641857 78.013437 
L 576.197226 78.076672 
L 576.752595 78.403299 
L 577.307964 79.034944 
L 577.863333 80.022758 
L 578.418701 81.424749 
L 578.97407 83.301517 
L 579.807124 87.131065 
L 580.640177 92.309321 
L 581.473231 98.905728 
L 582.583968 109.825232 
L 583.972391 126.293711 
L 586.193867 156.084758 
L 588.693027 189.01634 
L 590.359134 208.336602 
L 591.747556 222.091394 
L 592.858294 231.341696 
L 593.969032 239.039316 
L 595.079769 245.40806 
L 596.468192 252.140041 
L 600.07809 268.914439 
L 604.521041 290.648244 
L 605.909464 296.248528 
L 607.297886 300.869811 
L 608.408624 303.844679 
L 609.519362 306.239095 
L 610.6301 308.150256 
L 611.740837 309.679899 
L 613.12926 311.177434 
L 614.517682 312.303284 
L 615.906104 313.103239 
L 617.294527 313.598358 
L 618.682949 313.813109 
L 620.071371 313.801355 
L 625.625061 313.465373 
L 627.568852 313.721966 
L 630.623381 314.383346 
L 633.955595 315.067581 
L 636.454755 315.336926 
L 639.786968 315.438721 
L 654.504245 315.45 
L 698.378391 315.45 
L 698.378391 315.45 
" clip-path="url(#p2fe1f02857)" style="fill: none; stroke: #ff0000; stroke-width: 2; stroke-linecap: round"/>
   </g>
   <g id="patch_69">
    <path d="M 407.10127 315.45 
L 407.10127 61.84 
" style="fill: none; stroke: #cccccc; stroke-width: 0.8; stroke-linejoin: miter; stroke-linecap: square"/>
   </g>
   <g id="patch_70">
    <path d="M 712.24873 315.45 
L 712.24873 61.84 
" style="fill: none; stroke: #cccccc; stroke-width: 0.8; stroke-linejoin: miter; stroke-linecap: square"/>
   </g>
   <g id="patch_71">
    <path d="M 407.10127 315.45 
L 712.24873 315.45 
" style="fill: none; stroke: #cccccc; stroke-width: 0.8; stroke-linejoin: miter; stroke-linecap: square"/>
   </g>
   <g id="patch_72">
    <path d="M 407.10127 61.84 
L 712.24873 61.84 
" style="fill: none; stroke: #cccccc; stroke-width: 0.8; stroke-linejoin: miter; stroke-linecap: square"/>
   </g>
   <g id="text_32">
    <g id="patch_73">
     <path d="M 635.350624 109.676863 
L 706.145781 109.676863 
Q 708.245781 109.676863 708.245781 107.576863 
L 708.245781 69.4483 
Q 708.245781 67.3483 706.145781 67.3483 
L 635.350624 67.3483 
Q 633.250624 67.3483 633.250624 69.4483 
L 633.250624 107.576863 
Q 633.250624 109.676863 635.350624 109.676863 
z
" style="fill: #f5deb3; opacity: 0.5; stroke: #ffffff; stroke-linejoin: miter"/>
    </g>
    <!-- N = 998 -->
    <g style="fill: #262626" transform="translate(677.232499 74.767206) scale(0.07 -0.07)">
     <defs>
      <path id="DejaVuSans-38" d="M 2034 2216 
Q 1584 2216 1326 1975 
Q 1069 1734 1069 1313 
Q 1069 891 1326 650 
Q 1584 409 2034 409 
Q 2484 409 2743 651 
Q 3003 894 3003 1313 
Q 3003 1734 2745 1975 
Q 2488 2216 2034 2216 
z
M 1403 2484 
Q 997 2584 770 2862 
Q 544 3141 544 3541 
Q 544 4100 942 4425 
Q 1341 4750 2034 4750 
Q 2731 4750 3128 4425 
Q 3525 4100 3525 3541 
Q 3525 3141 3298 2862 
Q 3072 2584 2669 2484 
Q 3125 2378 3379 2068 
Q 3634 1759 3634 1313 
Q 3634 634 3220 271 
Q 2806 -91 2034 -91 
Q 1263 -91 848 271 
Q 434 634 434 1313 
Q 434 1759 690 2068 
Q 947 2378 1403 2484 
z
M 1172 3481 
Q 1172 3119 1398 2916 
Q 1625 2713 2034 2713 
Q 2441 2713 2670 2916 
Q 2900 3119 2900 3481 
Q 2900 3844 2670 4047 
Q 2441 4250 2034 4250 
Q 1625 4250 1398 4047 
Q 1172 3844 1172 3481 
z
" transform="scale(0.015625)"/>
     </defs>
     <use xlink:href="#DejaVuSans-4e"/>
     <use xlink:href="#DejaVuSans-20" transform="translate(74.804688 0)"/>
     <use xlink:href="#DejaVuSans-3d" transform="translate(106.591797 0)"/>
     <use xlink:href="#DejaVuSans-20" transform="translate(190.380859 0)"/>
     <use xlink:href="#DejaVuSans-39" transform="translate(222.167969 0)"/>
     <use xlink:href="#DejaVuSans-39" transform="translate(285.791016 0)"/>
     <use xlink:href="#DejaVuSans-38" transform="translate(349.414062 0)"/>
    </g>
    <!-- Mean = 106.37 -->
    <g style="fill: #262626" transform="translate(652.264374 82.605675) scale(0.07 -0.07)">
     <defs>
      <path id="DejaVuSans-36" d="M 2113 2584 
Q 1688 2584 1439 2293 
Q 1191 2003 1191 1497 
Q 1191 994 1439 701 
Q 1688 409 2113 409 
Q 2538 409 2786 701 
Q 3034 994 3034 1497 
Q 3034 2003 2786 2293 
Q 2538 2584 2113 2584 
z
M 3366 4563 
L 3366 3988 
Q 3128 4100 2886 4159 
Q 2644 4219 2406 4219 
Q 1781 4219 1451 3797 
Q 1122 3375 1075 2522 
Q 1259 2794 1537 2939 
Q 1816 3084 2150 3084 
Q 2853 3084 3261 2657 
Q 3669 2231 3669 1497 
Q 3669 778 3244 343 
Q 2819 -91 2113 -91 
Q 1303 -91 875 529 
Q 447 1150 447 2328 
Q 447 3434 972 4092 
Q 1497 4750 2381 4750 
Q 2619 4750 2861 4703 
Q 3103 4656 3366 4563 
z
" transform="scale(0.015625)"/>
     </defs>
     <use xlink:href="#DejaVuSans-4d"/>
     <use xlink:href="#DejaVuSans-65" transform="translate(86.279297 0)"/>
     <use xlink:href="#DejaVuSans-61" transform="translate(147.802734 0)"/>
     <use xlink:href="#DejaVuSans-6e" transform="translate(209.082031 0)"/>
     <use xlink:href="#DejaVuSans-20" transform="translate(272.460938 0)"/>
     <use xlink:href="#DejaVuSans-3d" transform="translate(304.248047 0)"/>
     <use xlink:href="#DejaVuSans-20" transform="translate(388.037109 0)"/>
     <use xlink:href="#DejaVuSans-31" transform="translate(419.824219 0)"/>
     <use xlink:href="#DejaVuSans-30" transform="translate(483.447266 0)"/>
     <use xlink:href="#DejaVuSans-36" transform="translate(547.070312 0)"/>
     <use xlink:href="#DejaVuSans-2e" transform="translate(610.693359 0)"/>
     <use xlink:href="#DejaVuSans-33" transform="translate(642.480469 0)"/>
     <use xlink:href="#DejaVuSans-37" transform="translate(706.103516 0)"/>
    </g>
    <!-- Median = 106.17 -->
    <g style="fill: #262626" transform="translate(645.875781 90.444144) scale(0.07 -0.07)">
     <use xlink:href="#DejaVuSans-4d"/>
     <use xlink:href="#DejaVuSans-65" transform="translate(86.279297 0)"/>
     <use xlink:href="#DejaVuSans-64" transform="translate(147.802734 0)"/>
     <use xlink:href="#DejaVuSans-69" transform="translate(211.279297 0)"/>
     <use xlink:href="#DejaVuSans-61" transform="translate(239.0625 0)"/>
     <use xlink:href="#DejaVuSans-6e" transform="translate(300.341797 0)"/>
     <use xlink:href="#DejaVuSans-20" transform="translate(363.720703 0)"/>
     <use xlink:href="#DejaVuSans-3d" transform="translate(395.507812 0)"/>
     <use xlink:href="#DejaVuSans-20" transform="translate(479.296875 0)"/>
     <use xlink:href="#DejaVuSans-31" transform="translate(511.083984 0)"/>
     <use xlink:href="#DejaVuSans-30" transform="translate(574.707031 0)"/>
     <use xlink:href="#DejaVuSans-36" transform="translate(638.330078 0)"/>
     <use xlink:href="#DejaVuSans-2e" transform="translate(701.953125 0)"/>
     <use xlink:href="#DejaVuSans-31" transform="translate(733.740234 0)"/>
     <use xlink:href="#DejaVuSans-37" transform="translate(797.363281 0)"/>
    </g>
    <!-- SD = 18.20 -->
    <g style="fill: #262626" transform="translate(665.957031 98.282613) scale(0.07 -0.07)">
     <use xlink:href="#DejaVuSans-53"/>
     <use xlink:href="#DejaVuSans-44" transform="translate(63.476562 0)"/>
     <use xlink:href="#DejaVuSans-20" transform="translate(140.478516 0)"/>
     <use xlink:href="#DejaVuSans-3d" transform="translate(172.265625 0)"/>
     <use xlink:href="#DejaVuSans-20" transform="translate(256.054688 0)"/>
     <use xlink:href="#DejaVuSans-31" transform="translate(287.841797 0)"/>
     <use xlink:href="#DejaVuSans-38" transform="translate(351.464844 0)"/>
     <use xlink:href="#DejaVuSans-2e" transform="translate(415.087891 0)"/>
     <use xlink:href="#DejaVuSans-32" transform="translate(446.875 0)"/>
     <use xlink:href="#DejaVuSans-30" transform="translate(510.498047 0)"/>
    </g>
    <!-- Missing = 15 (1.5%) -->
    <g style="fill: #262626" transform="translate(635.350624 106.121081) scale(0.07 -0.07)">
     <use xlink:href="#DejaVuSans-4d"/>
     <use xlink:href="#DejaVuSans-69" transform="translate(86.279297 0)"/>
     <use xlink:href="#DejaVuSans-73" transform="translate(114.0625 0)"/>
     <use xlink:href="#DejaVuSans-73" transform="translate(166.162109 0)"/>
     <use xlink:href="#DejaVuSans-69" transform="translate(218.261719 0)"/>
     <use xlink:href="#DejaVuSans-6e" transform="translate(246.044922 0)"/>
     <use xlink:href="#DejaVuSans-67" transform="translate(309.423828 0)"/>
     <use xlink:href="#DejaVuSans-20" transform="translate(372.900391 0)"/>
     <use xlink:href="#DejaVuSans-3d" transform="translate(404.6875 0)"/>
     <use xlink:href="#DejaVuSans-20" transform="translate(488.476562 0)"/>
     <use xlink:href="#DejaVuSans-31" transform="translate(520.263672 0)"/>
     <use xlink:href="#DejaVuSans-35" transform="translate(583.886719 0)"/>
     <use xlink:href="#DejaVuSans-20" transform="translate(647.509766 0)"/>
     <use xlink:href="#DejaVuSans-28" transform="translate(679.296875 0)"/>
     <use xlink:href="#DejaVuSans-31" transform="translate(718.310547 0)"/>
     <use xlink:href="#DejaVuSans-2e" transform="translate(781.933594 0)"/>
     <use xlink:href="#DejaVuSans-35" transform="translate(813.720703 0)"/>
     <use xlink:href="#DejaVuSans-25" transform="translate(877.34375 0)"/>
     <use xlink:href="#DejaVuSans-29" transform="translate(972.363281 0)"/>
    </g>
   </g>
   <g id="text_33">
    <!-- hip circumference -->
    <g style="fill: #262626" transform="translate(513.947266 51.84) scale(0.09 -0.09)">
     <defs>
      <path id="DejaVuSans-Bold-68" d="M 4056 2131 
L 4056 0 
L 2931 0 
L 2931 347 
L 2931 1625 
Q 2931 2084 2911 2256 
Q 2891 2428 2841 2509 
Q 2775 2619 2662 2680 
Q 2550 2741 2406 2741 
Q 2056 2741 1856 2470 
Q 1656 2200 1656 1722 
L 1656 0 
L 538 0 
L 538 4863 
L 1656 4863 
L 1656 2988 
Q 1909 3294 2193 3439 
Q 2478 3584 2822 3584 
Q 3428 3584 3742 3212 
Q 4056 2841 4056 2131 
z
" transform="scale(0.015625)"/>
      <path id="DejaVuSans-Bold-70" d="M 1656 506 
L 1656 -1331 
L 538 -1331 
L 538 3500 
L 1656 3500 
L 1656 2988 
Q 1888 3294 2169 3439 
Q 2450 3584 2816 3584 
Q 3463 3584 3878 3070 
Q 4294 2556 4294 1747 
Q 4294 938 3878 423 
Q 3463 -91 2816 -91 
Q 2450 -91 2169 54 
Q 1888 200 1656 506 
z
M 2400 2772 
Q 2041 2772 1848 2508 
Q 1656 2244 1656 1747 
Q 1656 1250 1848 986 
Q 2041 722 2400 722 
Q 2759 722 2948 984 
Q 3138 1247 3138 1747 
Q 3138 2247 2948 2509 
Q 2759 2772 2400 2772 
z
" transform="scale(0.015625)"/>
     </defs>
     <use xlink:href="#DejaVuSans-Bold-68"/>
     <use xlink:href="#DejaVuSans-Bold-69" transform="translate(71.191406 0)"/>
     <use xlink:href="#DejaVuSans-Bold-70" transform="translate(105.46875 0)"/>
     <use xlink:href="#DejaVuSans-Bold-20" transform="translate(177.050781 0)"/>
     <use xlink:href="#DejaVuSans-Bold-63" transform="translate(211.865234 0)"/>
     <use xlink:href="#DejaVuSans-Bold-69" transform="translate(271.142578 0)"/>
     <use xlink:href="#DejaVuSans-Bold-72" transform="translate(305.419922 0)"/>
     <use xlink:href="#DejaVuSans-Bold-63" transform="translate(354.736328 0)"/>
     <use xlink:href="#DejaVuSans-Bold-75" transform="translate(414.013672 0)"/>
     <use xlink:href="#DejaVuSans-Bold-6d" transform="translate(485.205078 0)"/>
     <use xlink:href="#DejaVuSans-Bold-66" transform="translate(589.404297 0)"/>
     <use xlink:href="#DejaVuSans-Bold-65" transform="translate(632.910156 0)"/>
     <use xlink:href="#DejaVuSans-Bold-72" transform="translate(700.732422 0)"/>
     <use xlink:href="#DejaVuSans-Bold-65" transform="translate(750.048828 0)"/>
     <use xlink:href="#DejaVuSans-Bold-6e" transform="translate(817.871094 0)"/>
     <use xlink:href="#DejaVuSans-Bold-63" transform="translate(889.0625 0)"/>
     <use xlink:href="#DejaVuSans-Bold-65" transform="translate(948.339844 0)"/>
    </g>
   </g>
  </g>
  <g id="axes_3"/>
  <g id="axes_4"/>
  <g id="axes_5"/>
  <g id="axes_6"/>
  <g id="axes_7"/>
  <g id="axes_8"/>
  <g id="axes_9"/>
  <g id="axes_10"/>
  <g id="axes_11"/>
  <g id="axes_12"/>
  <g id="text_34">
   <!-- JHB_DPHRU_053 - All Variables Distribution (Page 2/2) -->
   <g style="fill: #262626" transform="translate(326.23125 17.837813) scale(0.14 -0.14)">
    <defs>
     <path id="DejaVuSans-Bold-4a" d="M 588 4666 
L 1791 4666 
L 1791 453 
Q 1791 -419 1317 -850 
Q 844 -1281 -116 -1281 
L -359 -1281 
L -359 -372 
L -172 -372 
Q 203 -372 395 -162 
Q 588 47 588 453 
L 588 4666 
z
" transform="scale(0.015625)"/>
     <path id="DejaVuSans-Bold-48" d="M 588 4666 
L 1791 4666 
L 1791 2888 
L 3566 2888 
L 3566 4666 
L 4769 4666 
L 4769 0 
L 3566 0 
L 3566 1978 
L 1791 1978 
L 1791 0 
L 588 0 
L 588 4666 
z
" transform="scale(0.015625)"/>
     <path id="DejaVuSans-Bold-42" d="M 2456 2859 
Q 2741 2859 2887 2984 
Q 3034 3109 3034 3353 
Q 3034 3594 2887 3720 
Q 2741 3847 2456 3847 
L 1791 3847 
L 1791 2859 
L 2456 2859 
z
M 2497 819 
Q 2859 819 3042 972 
Q 3225 1125 3225 1434 
Q 3225 1738 3044 1889 
Q 2863 2041 2497 2041 
L 1791 2041 
L 1791 819 
L 2497 819 
z
M 3616 2497 
Q 4003 2384 4215 2081 
Q 4428 1778 4428 1338 
Q 4428 663 3972 331 
Q 3516 0 2584 0 
L 588 0 
L 588 4666 
L 2394 4666 
Q 3366 4666 3802 4372 
Q 4238 4078 4238 3431 
Q 4238 3091 4078 2852 
Q 3919 2613 3616 2497 
z
" transform="scale(0.015625)"/>
     <path id="DejaVuSans-Bold-5f" d="M 3200 -916 
L 3200 -1509 
L 0 -1509 
L 0 -916 
L 3200 -916 
z
" transform="scale(0.015625)"/>
     <path id="DejaVuSans-Bold-44" d="M 1791 3756 
L 1791 909 
L 2222 909 
Q 2959 909 3348 1275 
Q 3738 1641 3738 2338 
Q 3738 3031 3350 3393 
Q 2963 3756 2222 3756 
L 1791 3756 
z
M 588 4666 
L 1856 4666 
Q 2919 4666 3439 4514 
Q 3959 4363 4331 4000 
Q 4659 3684 4818 3271 
Q 4978 2859 4978 2338 
Q 4978 1809 4818 1395 
Q 4659 981 4331 666 
Q 3956 303 3431 151 
Q 2906 0 1856 0 
L 588 0 
L 588 4666 
z
" transform="scale(0.015625)"/>
     <path id="DejaVuSans-Bold-50" d="M 588 4666 
L 2584 4666 
Q 3475 4666 3951 4270 
Q 4428 3875 4428 3144 
Q 4428 2409 3951 2014 
Q 3475 1619 2584 1619 
L 1791 1619 
L 1791 0 
L 588 0 
L 588 4666 
z
M 1791 3794 
L 1791 2491 
L 2456 2491 
Q 2806 2491 2997 2661 
Q 3188 2831 3188 3144 
Q 3188 3456 2997 3625 
Q 2806 3794 2456 3794 
L 1791 3794 
z
" transform="scale(0.015625)"/>
     <path id="DejaVuSans-Bold-52" d="M 2297 2597 
Q 2675 2597 2839 2737 
Q 3003 2878 3003 3200 
Q 3003 3519 2839 3656 
Q 2675 3794 2297 3794 
L 1791 3794 
L 1791 2597 
L 2297 2597 
z
M 1791 1766 
L 1791 0 
L 588 0 
L 588 4666 
L 2425 4666 
Q 3347 4666 3776 4356 
Q 4206 4047 4206 3378 
Q 4206 2916 3982 2619 
Q 3759 2322 3309 2181 
Q 3556 2125 3751 1926 
Q 3947 1728 4147 1325 
L 4800 0 
L 3519 0 
L 2950 1159 
Q 2778 1509 2601 1637 
Q 2425 1766 2131 1766 
L 1791 1766 
z
" transform="scale(0.015625)"/>
     <path id="DejaVuSans-Bold-55" d="M 588 4666 
L 1791 4666 
L 1791 1869 
Q 1791 1291 1980 1042 
Q 2169 794 2597 794 
Q 3028 794 3217 1042 
Q 3406 1291 3406 1869 
L 3406 4666 
L 4609 4666 
L 4609 1869 
Q 4609 878 4112 393 
Q 3616 -91 2597 -91 
Q 1581 -91 1084 393 
Q 588 878 588 1869 
L 588 4666 
z
" transform="scale(0.015625)"/>
     <path id="DejaVuSans-Bold-30" d="M 2944 2338 
Q 2944 3213 2780 3570 
Q 2616 3928 2228 3928 
Q 1841 3928 1675 3570 
Q 1509 3213 1509 2338 
Q 1509 1453 1675 1090 
Q 1841 728 2228 728 
Q 2613 728 2778 1090 
Q 2944 1453 2944 2338 
z
M 4147 2328 
Q 4147 1169 3647 539 
Q 3147 -91 2228 -91 
Q 1306 -91 806 539 
Q 306 1169 306 2328 
Q 306 3491 806 4120 
Q 1306 4750 2228 4750 
Q 3147 4750 3647 4120 
Q 4147 3491 4147 2328 
z
" transform="scale(0.015625)"/>
     <path id="DejaVuSans-Bold-35" d="M 678 4666 
L 3669 4666 
L 3669 3781 
L 1638 3781 
L 1638 3059 
Q 1775 3097 1914 3117 
Q 2053 3138 2203 3138 
Q 3056 3138 3531 2711 
Q 4006 2284 4006 1522 
Q 4006 766 3489 337 
Q 2972 -91 2053 -91 
Q 1656 -91 1267 -14 
Q 878 63 494 219 
L 494 1166 
Q 875 947 1217 837 
Q 1559 728 1863 728 
Q 2300 728 2551 942 
Q 2803 1156 2803 1522 
Q 2803 1891 2551 2103 
Q 2300 2316 1863 2316 
Q 1603 2316 1309 2248 
Q 1016 2181 678 2041 
L 678 4666 
z
" transform="scale(0.015625)"/>
     <path id="DejaVuSans-Bold-33" d="M 2981 2516 
Q 3453 2394 3698 2092 
Q 3944 1791 3944 1325 
Q 3944 631 3412 270 
Q 2881 -91 1863 -91 
Q 1503 -91 1142 -33 
Q 781 25 428 141 
L 428 1069 
Q 766 900 1098 814 
Q 1431 728 1753 728 
Q 2231 728 2486 893 
Q 2741 1059 2741 1369 
Q 2741 1688 2480 1852 
Q 2219 2016 1709 2016 
L 1228 2016 
L 1228 2791 
L 1734 2791 
Q 2188 2791 2409 2933 
Q 2631 3075 2631 3366 
Q 2631 3634 2415 3781 
Q 2200 3928 1806 3928 
Q 1516 3928 1219 3862 
Q 922 3797 628 3669 
L 628 4550 
Q 984 4650 1334 4700 
Q 1684 4750 2022 4750 
Q 2931 4750 3382 4451 
Q 3834 4153 3834 3553 
Q 3834 3144 3618 2883 
Q 3403 2622 2981 2516 
z
" transform="scale(0.015625)"/>
     <path id="DejaVuSans-Bold-2d" d="M 347 2297 
L 2309 2297 
L 2309 1388 
L 347 1388 
L 347 2297 
z
" transform="scale(0.015625)"/>
     <path id="DejaVuSans-Bold-41" d="M 3419 850 
L 1538 850 
L 1241 0 
L 31 0 
L 1759 4666 
L 3194 4666 
L 4922 0 
L 3713 0 
L 3419 850 
z
M 1838 1716 
L 3116 1716 
L 2478 3572 
L 1838 1716 
z
" transform="scale(0.015625)"/>
     <path id="DejaVuSans-Bold-6c" d="M 538 4863 
L 1656 4863 
L 1656 0 
L 538 0 
L 538 4863 
z
" transform="scale(0.015625)"/>
     <path id="DejaVuSans-Bold-56" d="M 31 4666 
L 1241 4666 
L 2478 1222 
L 3713 4666 
L 4922 4666 
L 3194 0 
L 1759 0 
L 31 4666 
z
" transform="scale(0.015625)"/>
     <path id="DejaVuSans-Bold-62" d="M 2400 722 
Q 2759 722 2948 984 
Q 3138 1247 3138 1747 
Q 3138 2247 2948 2509 
Q 2759 2772 2400 2772 
Q 2041 2772 1848 2508 
Q 1656 2244 1656 1747 
Q 1656 1250 1848 986 
Q 2041 722 2400 722 
z
M 1656 2988 
Q 1888 3294 2169 3439 
Q 2450 3584 2816 3584 
Q 3463 3584 3878 3070 
Q 4294 2556 4294 1747 
Q 4294 938 3878 423 
Q 3463 -91 2816 -91 
Q 2450 -91 2169 54 
Q 1888 200 1656 506 
L 1656 0 
L 538 0 
L 538 4863 
L 1656 4863 
L 1656 2988 
z
" transform="scale(0.015625)"/>
     <path id="DejaVuSans-Bold-6f" d="M 2203 2784 
Q 1831 2784 1636 2517 
Q 1441 2250 1441 1747 
Q 1441 1244 1636 976 
Q 1831 709 2203 709 
Q 2569 709 2762 976 
Q 2956 1244 2956 1747 
Q 2956 2250 2762 2517 
Q 2569 2784 2203 2784 
z
M 2203 3584 
Q 3106 3584 3614 3096 
Q 4122 2609 4122 1747 
Q 4122 884 3614 396 
Q 3106 -91 2203 -91 
Q 1297 -91 786 396 
Q 275 884 275 1747 
Q 275 2609 786 3096 
Q 1297 3584 2203 3584 
z
" transform="scale(0.015625)"/>
     <path id="DejaVuSans-Bold-28" d="M 2413 -844 
L 1484 -844 
Q 1006 -72 778 623 
Q 550 1319 550 2003 
Q 550 2688 779 3389 
Q 1009 4091 1484 4856 
L 2413 4856 
Q 2013 4116 1813 3408 
Q 1613 2700 1613 2009 
Q 1613 1319 1811 609 
Q 2009 -100 2413 -844 
z
" transform="scale(0.015625)"/>
     <path id="DejaVuSans-Bold-67" d="M 2919 594 
Q 2688 288 2409 144 
Q 2131 0 1766 0 
Q 1125 0 706 504 
Q 288 1009 288 1791 
Q 288 2575 706 3076 
Q 1125 3578 1766 3578 
Q 2131 3578 2409 3434 
Q 2688 3291 2919 2981 
L 2919 3500 
L 4044 3500 
L 4044 353 
Q 4044 -491 3511 -936 
Q 2978 -1381 1966 -1381 
Q 1638 -1381 1331 -1331 
Q 1025 -1281 716 -1178 
L 716 -306 
Q 1009 -475 1290 -558 
Q 1572 -641 1856 -641 
Q 2406 -641 2662 -400 
Q 2919 -159 2919 353 
L 2919 594 
z
M 2181 2772 
Q 1834 2772 1640 2515 
Q 1447 2259 1447 1791 
Q 1447 1309 1634 1061 
Q 1822 813 2181 813 
Q 2531 813 2725 1069 
Q 2919 1325 2919 1791 
Q 2919 2259 2725 2515 
Q 2531 2772 2181 2772 
z
" transform="scale(0.015625)"/>
     <path id="DejaVuSans-Bold-32" d="M 1844 884 
L 3897 884 
L 3897 0 
L 506 0 
L 506 884 
L 2209 2388 
Q 2438 2594 2547 2791 
Q 2656 2988 2656 3200 
Q 2656 3528 2436 3728 
Q 2216 3928 1850 3928 
Q 1569 3928 1234 3808 
Q 900 3688 519 3450 
L 519 4475 
Q 925 4609 1322 4679 
Q 1719 4750 2100 4750 
Q 2938 4750 3402 4381 
Q 3866 4013 3866 3353 
Q 3866 2972 3669 2642 
Q 3472 2313 2841 1759 
L 1844 884 
z
" transform="scale(0.015625)"/>
     <path id="DejaVuSans-Bold-2f" d="M 1644 4666 
L 2338 4666 
L 691 -594 
L 0 -594 
L 1644 4666 
z
" transform="scale(0.015625)"/>
     <path id="DejaVuSans-Bold-29" d="M 513 -844 
Q 913 -100 1113 609 
Q 1313 1319 1313 2009 
Q 1313 2700 1113 3408 
Q 913 4116 513 4856 
L 1441 4856 
Q 1916 4091 2145 3389 
Q 2375 2688 2375 2003 
Q 2375 1319 2147 623 
Q 1919 -72 1441 -844 
L 513 -844 
z
" transform="scale(0.015625)"/>
    </defs>
    <use xlink:href="#DejaVuSans-Bold-4a"/>
    <use xlink:href="#DejaVuSans-Bold-48" transform="translate(37.207031 0)"/>
    <use xlink:href="#DejaVuSans-Bold-42" transform="translate(120.898438 0)"/>
    <use xlink:href="#DejaVuSans-Bold-5f" transform="translate(197.119141 0)"/>
    <use xlink:href="#DejaVuSans-Bold-44" transform="translate(247.119141 0)"/>
    <use xlink:href="#DejaVuSans-Bold-50" transform="translate(330.126953 0)"/>
    <use xlink:href="#DejaVuSans-Bold-48" transform="translate(403.417969 0)"/>
    <use xlink:href="#DejaVuSans-Bold-52" transform="translate(487.109375 0)"/>
    <use xlink:href="#DejaVuSans-Bold-55" transform="translate(564.111328 0)"/>
    <use xlink:href="#DejaVuSans-Bold-5f" transform="translate(645.3125 0)"/>
    <use xlink:href="#DejaVuSans-Bold-30" transform="translate(695.3125 0)"/>
    <use xlink:href="#DejaVuSans-Bold-35" transform="translate(764.892578 0)"/>
    <use xlink:href="#DejaVuSans-Bold-33" transform="translate(834.472656 0)"/>
    <use xlink:href="#DejaVuSans-Bold-20" transform="translate(904.052734 0)"/>
    <use xlink:href="#DejaVuSans-Bold-2d" transform="translate(938.867188 0)"/>
    <use xlink:href="#DejaVuSans-Bold-20" transform="translate(980.371094 0)"/>
    <use xlink:href="#DejaVuSans-Bold-41" transform="translate(1015.185547 0)"/>
    <use xlink:href="#DejaVuSans-Bold-6c" transform="translate(1092.578125 0)"/>
    <use xlink:href="#DejaVuSans-Bold-6c" transform="translate(1126.855469 0)"/>
    <use xlink:href="#DejaVuSans-Bold-20" transform="translate(1161.132812 0)"/>
    <use xlink:href="#DejaVuSans-Bold-56" transform="translate(1195.947266 0)"/>
    <use xlink:href="#DejaVuSans-Bold-61" transform="translate(1267.839844 0)"/>
    <use xlink:href="#DejaVuSans-Bold-72" transform="translate(1335.320312 0)"/>
    <use xlink:href="#DejaVuSans-Bold-69" transform="translate(1384.636719 0)"/>
    <use xlink:href="#DejaVuSans-Bold-61" transform="translate(1418.914062 0)"/>
    <use xlink:href="#DejaVuSans-Bold-62" transform="translate(1486.394531 0)"/>
    <use xlink:href="#DejaVuSans-Bold-6c" transform="translate(1557.976562 0)"/>
    <use xlink:href="#DejaVuSans-Bold-65" transform="translate(1592.253906 0)"/>
    <use xlink:href="#DejaVuSans-Bold-73" transform="translate(1660.076172 0)"/>
    <use xlink:href="#DejaVuSans-Bold-20" transform="translate(1719.597656 0)"/>
    <use xlink:href="#DejaVuSans-Bold-44" transform="translate(1754.412109 0)"/>
    <use xlink:href="#DejaVuSans-Bold-69" transform="translate(1837.419922 0)"/>
    <use xlink:href="#DejaVuSans-Bold-73" transform="translate(1871.697266 0)"/>
    <use xlink:href="#DejaVuSans-Bold-74" transform="translate(1931.21875 0)"/>
    <use xlink:href="#DejaVuSans-Bold-72" transform="translate(1979.021484 0)"/>
    <use xlink:href="#DejaVuSans-Bold-69" transform="translate(2028.337891 0)"/>
    <use xlink:href="#DejaVuSans-Bold-62" transform="translate(2062.615234 0)"/>
    <use xlink:href="#DejaVuSans-Bold-75" transform="translate(2134.197266 0)"/>
    <use xlink:href="#DejaVuSans-Bold-74" transform="translate(2205.388672 0)"/>
    <use xlink:href="#DejaVuSans-Bold-69" transform="translate(2253.191406 0)"/>
    <use xlink:href="#DejaVuSans-Bold-6f" transform="translate(2287.46875 0)"/>
    <use xlink:href="#DejaVuSans-Bold-6e" transform="translate(2356.169922 0)"/>
    <use xlink:href="#DejaVuSans-Bold-20" transform="translate(2427.361328 0)"/>
    <use xlink:href="#DejaVuSans-Bold-28" transform="translate(2462.175781 0)"/>
    <use xlink:href="#DejaVuSans-Bold-50" transform="translate(2507.878906 0)"/>
    <use xlink:href="#DejaVuSans-Bold-61" transform="translate(2578.544922 0)"/>
    <use xlink:href="#DejaVuSans-Bold-67" transform="translate(2646.025391 0)"/>
    <use xlink:href="#DejaVuSans-Bold-65" transform="translate(2717.607422 0)"/>
    <use xlink:href="#DejaVuSans-Bold-20" transform="translate(2785.429688 0)"/>
    <use xlink:href="#DejaVuSans-Bold-32" transform="translate(2820.244141 0)"/>
    <use xlink:href="#DejaVuSans-Bold-2f" transform="translate(2889.824219 0)"/>
    <use xlink:href="#DejaVuSans-Bold-32" transform="translate(2926.347656 0)"/>
    <use xlink:href="#DejaVuSans-Bold-29" transform="translate(2995.927734 0)"/>
   </g>
  </g>
 </g>
 <defs>
  <clipPath id="pfadb05a19d">
   <rect x="48.845" y="61.84" width="305.14746" height="253.61"/>
  </clipPath>
  <clipPath id="p2fe1f02857">
   <rect x="407.10127" y="61.84" width="305.14746" height="253.61"/>
  </clipPath>
 </defs>
</svg>
